<svg xmlns="http://www.w3.org/2000/svg" xmlns:xlink="http://www.w3.org/1999/xlink" id="Layer_1" x="0px" y="0px" viewBox="0 0 195.1 195.1" style="enable-background:new 0 0 195.1 195.1;" xml:space="preserve">
<style type="text/css">
	.st0{fill:#F4F4F4;}
	.st1{fill:#269EF7;}
	.st2{enable-background:new    ;}
	.st3{fill:#022494;}
</style>
<g>
	<path class="st0" d="M18.2,0h158.6c10.1,0,18.2,8.2,18.2,18.2v158.6c0,10.1-8.2,18.2-18.2,18.2H18.2C8.2,195.1,0,186.9,0,176.8   V18.2C0,8.2,8.2,0,18.2,0z"></path>
</g>
<g>
	<path class="st1" d="M61,159.1H39.1c-3.4,0-6.1-2.7-6.1-6.1V42c0-3.4,2.7-6.1,6.1-6.1h21.8c3.4,0,6.1,2.7,6.1,6.1s-2.7,6.1-6.1,6.1   H45.2V147H61c3.4,0,6.1,2.7,6.1,6.1S64.3,159.1,61,159.1z"></path>
</g>
<g>
	<path class="st1" d="M156,159.1h-21.8c-3.4,0-6.1-2.7-6.1-6.1s2.7-6.1,6.1-6.1h15.7V48.1h-15.8c-3.4,0-6.1-2.7-6.1-6.1   s2.7-6.1,6.1-6.1H156c3.4,0,6.1,2.7,6.1,6.1v111.1C162,156.4,159.3,159.1,156,159.1z"></path>
</g>
<g class="st2">
	<path class="st3" d="M75.7,109v-3.3c0-1.6,0.2-3.1,0.5-4.4c0.3-1.4,0.8-2.7,1.5-3.9c0.7-1.3,1.6-2.5,2.8-3.8   c1.2-1.3,2.6-2.6,4.3-4.1c1.8-1.6,3.2-3,4.2-4.4c1-1.3,1.5-2.9,1.5-4.9c0-2-0.7-3.7-2.2-5.3c-1.5-1.5-3.5-2.3-6.1-2.3   c-1.4,0-2.7,0.2-3.8,0.7c-1.1,0.5-2.1,1.1-3,1.9c-0.9,0.8-1.6,1.7-2.1,2.7c-0.6,1-1,2-1.2,3.1l-11.4-4.8c0.5-1.9,1.4-3.7,2.5-5.6   c1.2-1.9,2.6-3.5,4.4-5c1.8-1.5,3.8-2.7,6.2-3.6c2.4-0.9,5.1-1.4,8.1-1.4c3.2,0,6.1,0.5,8.7,1.4c2.6,1,4.9,2.3,6.8,4   c1.9,1.7,3.4,3.7,4.4,6c1.1,2.3,1.6,4.8,1.6,7.5c0,1.9-0.2,3.6-0.7,5.2c-0.5,1.5-1.1,2.9-1.9,4.3c-0.8,1.3-1.7,2.6-2.8,3.7   c-1.1,1.2-2.2,2.3-3.4,3.4c-1.1,1.1-2.1,2-2.8,2.9c-0.8,0.9-1.4,1.7-1.8,2.5c-0.4,0.8-0.7,1.7-0.9,2.6c-0.2,0.9-0.3,2-0.3,3.2v1.6   H75.7z M82.1,133.4c-2.4,0-4.4-0.8-6.1-2.5c-1.7-1.7-2.5-3.7-2.5-6.1s0.8-4.4,2.5-6.1c1.7-1.7,3.7-2.5,6.1-2.5s4.4,0.8,6.1,2.5   c1.7,1.7,2.5,3.7,2.5,6.1s-0.8,4.4-2.5,6.1C86.5,132.6,84.5,133.4,82.1,133.4z"></path>
	<path class="st3" d="M114.5,141.7l5.9-9c-1.5-0.5-2.7-1.5-3.7-2.9c-1-1.4-1.5-3-1.5-5c0-2.4,0.8-4.4,2.5-6.1   c1.7-1.7,3.7-2.5,6.1-2.5c2.4,0,4.4,0.8,6.1,2.5c1.7,1.7,2.5,3.7,2.5,6.1c0,1.3-0.2,2.4-0.6,3.3c-0.4,1-1,2.1-1.9,3.3l-9.4,14.1   L114.5,141.7z M123.8,100.7c-2.4,0-4.4-0.8-6.1-2.5c-1.7-1.7-2.5-3.7-2.5-6.1s0.8-4.4,2.5-6.1c1.7-1.7,3.7-2.5,6.1-2.5   c2.4,0,4.4,0.8,6.1,2.5c1.7,1.7,2.5,3.7,2.5,6.1s-0.8,4.4-2.5,6.1C128.2,99.9,126.1,100.7,123.8,100.7z"></path>
</g>
</svg>