<svg xmlns="http://www.w3.org/2000/svg" xmlns:xlink="http://www.w3.org/1999/xlink" id="Layer_1" x="0px" y="0px" viewBox="0 0 547.5 500.4" style="enable-background:new 0 0 547.5 500.4;" xml:space="preserve">
<style type="text/css">
	.st0{fill:#FF8388;}
	.st1{fill:#F4F4F4;}
	.st2{fill:#022494;}
	.st3{fill:#269EF7;}
	.st4{fill:#FFFFFF;}
	.st5{enable-background:new    ;}
	.st6{fill:none;stroke:#269EF7;stroke-width:1.43;stroke-linecap:round;stroke-linejoin:round;}
	.st7{fill:none;stroke:#022494;stroke-width:1.58;stroke-linecap:round;stroke-linejoin:round;}
	.st8{fill:none;stroke:#269EF7;stroke-width:1.16;stroke-linecap:round;stroke-linejoin:round;}
	.st9{fill:none;stroke:#022494;stroke-width:2.11;stroke-linecap:round;stroke-linejoin:round;}
	.st10{fill:none;stroke:#269EF7;stroke-width:1.75;stroke-linecap:round;stroke-linejoin:round;}
	.st11{fill:none;stroke:#FF8388;stroke-width:1.3352;stroke-linecap:round;stroke-linejoin:round;stroke-miterlimit:3.9858;}
	.st12{fill:none;stroke:#022494;stroke-width:1.5744;stroke-linecap:round;stroke-linejoin:round;stroke-miterlimit:3.9858;}
	.st13{fill:none;stroke:#FF8388;stroke-width:1.5046;stroke-linecap:round;stroke-linejoin:round;stroke-miterlimit:3.9858;}
	.st14{fill:none;stroke:#FF8388;stroke-width:1.5345;stroke-linecap:round;stroke-linejoin:round;stroke-miterlimit:3.9858;}
	.st15{fill:none;stroke:#FF8388;stroke-width:1.963;stroke-linecap:round;stroke-linejoin:round;stroke-miterlimit:3.9858;}
	.st16{fill:none;stroke:#FF8388;stroke-width:1.9701;stroke-linecap:round;stroke-linejoin:round;stroke-miterlimit:4.0002;}
	.st17{fill:none;stroke:#269EF7;stroke-width:1.1568;stroke-linecap:round;stroke-linejoin:round;stroke-miterlimit:3.989;}
</style>
<g>
	<path class="st0" d="M526,345.4H303.3c-7.6,0-13.8-6.2-13.8-13.8V32.4c0-7.6,6.2-13.8,13.8-13.8h230.3c7.6,0,13.8,6.2,13.8,13.8   V324C547.4,335.8,537.8,345.4,526,345.4z"></path>
</g>
<g>
	<path class="st1" d="M282.6,0H513c7.6,0,13.8,6.2,13.8,13.8V313c0,7.6-6.2,13.8-13.8,13.8H282.6c-7.6,0-13.8-6.2-13.8-13.8V13.8   C268.8,6.2,275,0,282.6,0z"></path>
</g>
<g>
	<path class="st2" d="M132.8,279.9c1-19.2,15.6-34.9,34.9-34.9s39.3,10.3,42.1,34.7c4.1,34.8,35.6,38.5,51.8,95.2   c0.9,3-0.8,6.1-3.8,6.9c-0.5,0.1-1,0.2-1.6,0.2h-97C159.3,382.1,131,314.5,132.8,279.9z"></path>
</g>
<g>
	<path class="st3" d="M182.1,471l-15.9-38.6c-2.9-7-9.8-11.6-17.4-11.6H84.9l34.8-55.1c4.7-7.5,12.8-12.1,21.7-12.4l9.7-0.3   c5.2-0.2,9.3-4.6,9.2-9.8c0-0.2,0-0.5-0.1-0.7l-0.9-7.9h38.5l4.7,18.1h13.2c8.2,0,16,4,20.8,10.7l71.3,99.5   c6.5,9.1,4.4,21.7-4.6,28.2c-1.5,1.1-3.2,1.9-4.9,2.6l-18.9,6.9h-85.2L182.1,471z M204.8,465.1c20.2-5.4,36.6-10.1,36.6-10.1   c1.8-0.8,2.6-2.9,1.8-4.7c-0.1-0.2-0.2-0.4-0.4-0.6l-17.8-25L204.8,465.1z"></path>
</g>
<g>
	<path class="st0" d="M189.3,301.5l8.5,33h-38.5l-0.8-7.2c0,0-11.5-1.6-14.8-9.9c-1.1-2.7-2.3-8.3-3.4-14.5c5.3,0,9.6-4.4,9.5-9.7   c0-5.3-4.4-9.6-9.7-9.5c-1,0-1.9,0.1-2.9,0.4v-0.1c0,0,14.6-8.5,22.6-22.7c0.4-0.8,1.4-1,2.2-0.6c0.3,0.2,0.5,0.4,0.6,0.7   c2.9,5.6,10.4,18.3,23.8,25c0,0,5.2-8.3,10.8-4S199.1,298.6,189.3,301.5z M169.5,299.4c5.4-2.1,8-8.1,5.9-13.5s-8.1-8-13.5-5.9   c-5.3,2.1-8,8.1-5.9,13.5C158.1,298.8,164.1,301.5,169.5,299.4C169.5,299.4,169.5,299.4,169.5,299.4z"></path>
</g>
<g>
	<path class="st2" d="M181,205.6c12,0,21.7,9.7,21.7,21.7c0,12-9.7,21.7-21.7,21.7c-12,0-21.7-9.7-21.7-21.7c0,0,0,0,0,0   C159.3,215.3,169,205.6,181,205.6C181,205.6,181,205.6,181,205.6z"></path>
</g>
<g>
	<path class="st0" d="M182.1,471l12.2,29.4H54.6c1-10.3,12.9-6.5,34.4-10.7c12.1-2.4,27.5-9.4,44.2-9   C140.5,480.9,161,476.4,182.1,471z"></path>
</g>
<g>
	<path class="st2" d="M166.2,432.4l15.9,38.6c-21.1,5.3-41.6,9.9-49,9.7c-16.7-0.4-32.1,6.6-44.2,9c-21.5,4.2-33.4,0.4-34.4,10.7   h-9.7l-24.3-62.8l-4-10.3c-1-2.5,0.3-5.3,2.8-6.3c0.6-0.2,1.1-0.3,1.7-0.3h127.7C156.4,420.8,163.3,425.4,166.2,432.4z    M102.6,462.2c0-5.4-4.4-9.8-9.8-9.8s-9.8,4.4-9.8,9.8c0,5.4,4.4,9.8,9.8,9.8C98.2,471.9,102.6,467.6,102.6,462.2   C102.6,462.2,102.6,462.2,102.6,462.2z"></path>
</g>
<g>
	<path class="st4" d="M175.4,285.9c2.1,5.4-0.6,11.4-5.9,13.5s-11.4-0.6-13.5-5.9c-2.1-5.4,0.6-11.4,5.9-13.5c0,0,0,0,0.1,0   C167.3,277.9,173.4,280.6,175.4,285.9z"></path>
</g>
<g>
	<path class="st4" d="M140.1,283.8c5.3,0,9.6,4.2,9.7,9.5c0,5.3-4.2,9.6-9.5,9.7c-1.2-6.4-2.3-13.4-3-18.7   C138.2,284,139.1,283.8,140.1,283.8z"></path>
</g>
<g>
	<path class="st4" d="M140.3,303h-0.2c-5.3,0-9.6-4.3-9.6-9.6c0-4.2,2.7-7.9,6.7-9.1C138,289.6,139.1,296.6,140.3,303z"></path>
</g>
<g>
	<path class="st3" d="M20.6,437.7l24.3,62.8h-9.7c-15.7,0-28.5-12.7-28.5-28.5c0-4.5,1.1-8.9,3.1-13L20.6,437.7z"></path>
</g>
<g>
	<polygon class="st3" points="87.3,360.9 77.3,420.8 31.2,420.8 55.3,360.8 55.3,360.8 86.7,360.8  "></polygon>
</g>
<g>
	<path class="st0" d="M10.6,308.8c1.3,2,2.9,3.8,4.6,5.5c4.4,4.3,11.7,9.7,23.4,13.9c1.3-2.3,3.1-4.4,5.1-6.2   c-10.6-2.9-17.5-8.1-21.7-12.7c-1.4-1.5-2.7-3.2-3.8-4.9c-0.8-1.4-2.2-2.4-3.9-2.8c-3.4-0.6-6.2,2-4.1,6.6   C10.3,308.4,10.4,308.6,10.6,308.8z"></path>
</g>
<g>
	<path class="st0" d="M9.8,323.5c-0.6-0.5-1.2-0.9-1.8-1.3c0.9,0.8,2,1.7,3.1,2.6c6.7,5.3,14.3,9.2,22.5,11.6l0,0   c0.1,0,0.2,0,0.5-0.4c0.4-0.5,0.7-1,1-1.5c0.7-1.2,1.4-2.9,2.4-4.7c-16.2-5.9-24.1-14-27.6-18.7c-1.3-1.8-3.8-2.4-5.7-1.3   c-0.3,0.2-0.5,0.3-0.7,0.6C2.3,312,1.1,316.4,9.8,323.5z"></path>
</g>
<g>
	<path class="st0" d="M81.5,319.1c-10.1-5-21.1-9.1-24.9-17s-14.7,0.8-1.5,13.6c-6.8-1.5-16-4.2-22.2-9c-5.5-4.3-6.9-9.3-10.9-8.3   c-1,0.2-1.9,0.9-2.3,1.9c-0.5,1.3-0.3,2.8,0.5,3.9c0.9,1.4,2,2.7,3.1,3.9c4.2,4.6,11.2,9.8,22.2,12.5c1.5-1,3.2-1.8,5-2.3   c0.5-0.1,1,0.1,1.1,0.6c0,0,0,0,0,0c0.1,0.5-0.1,1-0.6,1.1c0,0,0,0,0,0c-3.4,1-6.5,3-8.6,5.8c-1.8,2.4-3.4,5-4.6,7.7   c-0.5,1.1-1.1,2.2-1.8,3.2c1.1,0.1,2.2,0.2,3.3,0.2c5.9,0,11.8-1.7,17.1-3.4s9.9-3.5,13.6-3.5c1.1,0,2.1,0.2,3.1,0.6   c1,0.5,1.8,1.2,2.3,2.1l0,0c0.3,0.4,0.1,1-0.3,1.3c-0.4,0.3-1,0.1-1.3-0.3c-0.4-0.6-0.9-1.1-1.6-1.4c-0.7-0.3-1.5-0.5-2.3-0.4   c-3.1,0-7.7,1.7-13,3.4s-11.4,3.5-17.7,3.5c-2.1,0-4.1-0.2-6.1-0.6h0c-10.4-3-20-8.4-27.8-15.9c-1.3-1.3-3.3-1.3-4.6,0   c0,0-0.1,0.1-0.1,0.1l-0.2,0.3c-1,1.8-0.4,4.7,0.9,6.3c19,22.9,57.5,22.6,57.5,22.6l-3.7,9.2h31.4l0.6,0.1l3.9-23.3   C92.1,328,87.2,322,81.5,319.1z"></path>
</g>
<g>
	<path class="st4" d="M164.8,307.7l-19.7,0.3c0,0,0.8,11.5,9.9,10.8C163,318,164.8,307.7,164.8,307.7z"></path>
</g>
<g>
	<path class="st2" d="M165,308.6l-0.1-0.5v-0.2v-0.1v-0.1l-0.1-0.2c-1.3-0.4-2.6-0.7-3.9-0.9c-1.6-0.2-3.2-0.4-4.8-0.4   c-1.7-0.1-3.5,0.1-5.2,0.5c-1.6,0.5-3.3,0.8-4.9,1.1l-0.9,0.1l0.1,0.7c0.3,1.3,0.5,2.6,0.9,3.9c0.3,1.4,0.8,2.7,1.4,4   c0.7,1.4,1.9,2.6,3.3,3.3c1.5,0.7,3.1,1.1,4.8,1c1.6,0,3.3-0.5,4.6-1.4c1.3-0.9,2.4-2,3.2-3.4c0.7-1.3,1.2-2.6,1.4-4.1   c0.1-0.7,0.2-1.4,0.1-2.1C165,309.2,165,308.9,165,308.6z M163.8,308.3l-0.5,0.8c-0.4,0.5-0.7,1-1.1,1.5c-0.7,0.9-1.4,1.8-2.2,2.6   c-1.3,1.3-3,2.2-4.8,2.7c-1.9,0.4-3.8-0.1-5.3-1.4c-1.6-1.3-2.7-3.2-3.1-5.2c1,0.1,1.6,0.5,2.7,0.7c1.7,0.3,3.3,0.3,5,0   c1.4-0.2,2.9-0.5,4.5-0.9s3.2-0.8,5.2-1.3l-0.1,0.2L163.8,308.3z"></path>
</g>
<g>
	<path class="st2" d="M155.2,321.1c-1.6,0-3.1-0.4-4.5-1.1c-1.5-0.8-2.8-2-3.6-3.5c-0.7-1.3-1.2-2.7-1.5-4.1   c-0.3-1.2-0.6-2.5-0.9-3.9l-0.1-0.7c0-0.2,0-0.3,0.1-0.4s0.2-0.2,0.4-0.2l0.8-0.1c1.6-0.3,3.3-0.6,4.8-1.1c1.8-0.4,3.6-0.6,5.4-0.6   c1.6,0,3.2,0.2,4.8,0.4c1.3,0.2,2.7,0.5,4,0.9c0.2,0.1,0.3,0.2,0.4,0.4l0.1,0.2c0,0,0,0.1,0,0.1v0.5l0.1,0.4c0,0,0,0.1,0,0.1   c0,0.3,0,0.6,0.1,0.8c0,0.1,0,0.1,0,0.2c0,0.7,0,1.5-0.2,2.2c-0.2,1.5-0.7,2.9-1.5,4.3c-0.8,1.5-2,2.7-3.4,3.6   c-1.5,0.9-3.2,1.4-4.9,1.5C155.6,321.1,155.4,321.1,155.2,321.1z M145.9,308.2l0,0.1c0.3,1.4,0.5,2.6,0.9,3.9   c0.3,1.3,0.8,2.6,1.4,3.8c0.7,1.3,1.8,2.4,3.1,3c1.4,0.7,2.9,1,4.5,0.9c1.6,0,3.1-0.5,4.4-1.3c1.2-0.8,2.3-1.9,3-3.2   c0.7-1.2,1.2-2.5,1.4-3.9c0.1-0.6,0.1-1.3,0.1-1.9c-0.2-0.4-0.2-0.8-0.2-1.1l0-0.2l-0.2,0.2l-0.5,0.8c-0.2,0.3-0.5,0.6-0.7,1   l-0.4,0.6c-0.7,0.9-1.4,1.8-2.3,2.7c-1.4,1.4-3.2,2.4-5.1,2.8c-2.1,0.4-4.2-0.2-5.8-1.5c-1.7-1.4-2.8-3.4-3.2-5.6   c0-0.2,0-0.4,0.2-0.5c0.1-0.1,0.3-0.2,0.5-0.2c0.6,0.1,1,0.2,1.5,0.4c0.4,0.1,0.8,0.2,1.2,0.3c1.6,0.3,3.2,0.3,4.8,0   c1.2-0.2,2.6-0.4,4.5-0.8c1.4-0.3,2.7-0.6,4.3-1.1c-0.8-0.2-1.5-0.3-2.3-0.5c-1.6-0.2-3.1-0.4-4.7-0.4c-1.7-0.1-3.4,0.1-5,0.5   c-1.6,0.5-3.3,0.8-5,1.1L145.9,308.2z M147.6,309.9c0.5,1.6,1.4,3,2.7,4.1c1.3,1.2,3.1,1.6,4.8,1.3c1.7-0.4,3.3-1.3,4.5-2.5   c0.8-0.8,1.5-1.6,2.1-2.5l0.4-0.6c0.2-0.3,0.4-0.6,0.7-0.9l0-0.1c-1.3,0.3-2.5,0.6-3.7,0.9c-1.9,0.4-3.3,0.7-4.6,0.9   c-1.7,0.3-3.4,0.3-5.2,0c-0.6-0.1-1-0.2-1.4-0.4C147.9,310,147.8,310,147.6,309.9z"></path>
</g>
<g>
	<path class="st1" d="M238.1,447.6c-0.3,0-0.6-0.2-0.8-0.5c-5.1-9.1-19.7-33-26.6-34.4c-0.5-0.1-0.8-0.6-0.7-1.1   c0.1-0.5,0.6-0.8,1.1-0.7c9.1,2,27,34,27.8,35.3c0.2,0.4,0.1,1-0.4,1.3C238.4,447.6,238.2,447.6,238.1,447.6z"></path>
</g>
<g>
	<path class="st1" d="M109.5,420.8c0.2-1.9,2.5-18,16.8-28c9.9-6.9,12-13.8,12-18c0-1.4-0.2-2.9-0.7-4.2c-0.2-0.5-0.8-0.7-1.2-0.5   c-0.5,0.2-0.7,0.8-0.5,1.2c0,0,0,0,0,0l0,0c0.4,1.1,0.6,2.2,0.6,3.4c0,3.6-1.6,9.8-11.2,16.5c-16,11.2-17.5,29.4-17.5,29.5"></path>
</g>
<g>
	<path class="st2" d="M483.9,57.2H306.6c-3,0.1-5.5-2.2-5.6-5.2c-0.1-3,2.2-5.5,5.2-5.6c0.2,0,0.3,0,0.5,0h177.3   c3-0.1,5.5,2.2,5.6,5.2c0.1,3-2.2,5.5-5.2,5.6C484.2,57.2,484,57.2,483.9,57.2z"></path>
</g>
<g>
	<path class="st2" d="M483.9,85.1H306.6c-3,0.1-5.5-2.2-5.6-5.2c-0.1-3,2.2-5.5,5.2-5.6c0.2,0,0.3,0,0.5,0h177.3   c3-0.1,5.5,2.2,5.6,5.2c0.1,3-2.2,5.5-5.2,5.6C484.2,85.1,484,85.1,483.9,85.1z"></path>
</g>
<g>
	<path class="st2" d="M483.9,113H306.6c-3,0.1-5.5-2.2-5.6-5.2c-0.1-3,2.2-5.5,5.2-5.6c0.2,0,0.3,0,0.5,0h177.3   c3-0.1,5.5,2.2,5.6,5.2c0.1,3-2.2,5.5-5.2,5.6C484.2,113,484,113,483.9,113z"></path>
</g>
<g>
	<path class="st2" d="M483.9,141H306.6c-3,0.1-5.5-2.2-5.6-5.2c-0.1-3,2.2-5.5,5.2-5.6c0.2,0,0.3,0,0.5,0h177.3   c3-0.1,5.5,2.2,5.6,5.2c0.1,3-2.2,5.5-5.2,5.6C484.2,141,484,141,483.9,141z"></path>
</g>
<g>
	<path class="st2" d="M483.9,168.9H306.6c-3,0.1-5.5-2.2-5.6-5.2c-0.1-3,2.2-5.5,5.2-5.6c0.2,0,0.3,0,0.5,0h177.3   c3-0.1,5.5,2.2,5.6,5.2c0.1,3-2.2,5.5-5.2,5.6C484.2,168.9,484,168.9,483.9,168.9z"></path>
</g>
<g>
	<path class="st2" d="M483.9,196.9H306.6c-3,0.1-5.5-2.2-5.6-5.2c-0.1-3,2.2-5.5,5.2-5.6c0.2,0,0.3,0,0.5,0h177.3   c3-0.1,5.5,2.2,5.6,5.2c0.1,3-2.2,5.5-5.2,5.6C484.2,196.9,484,196.9,483.9,196.9z"></path>
</g>
<g>
	<path class="st2" d="M483.9,224.8H306.6c-3,0.1-5.5-2.2-5.6-5.2c-0.1-3,2.2-5.5,5.2-5.6c0.2,0,0.3,0,0.5,0h177.3   c3-0.1,5.5,2.2,5.6,5.2c0.1,3-2.2,5.5-5.2,5.6C484.2,224.8,484,224.8,483.9,224.8z"></path>
</g>
<g>
	<path class="st2" d="M460.7,252.8H306.6c-3,0-5.4-2.4-5.4-5.4c0-3,2.4-5.4,5.4-5.4c0,0,0,0,0,0h154.1c3,0,5.4,2.4,5.4,5.4   C466.1,250.3,463.6,252.7,460.7,252.8z"></path>
</g>
<g>
	<path class="st2" d="M425.6,280.7h-119c-3,0.1-5.5-2.2-5.6-5.2c-0.1-3,2.2-5.5,5.2-5.6c0.2,0,0.3,0,0.5,0h119   c3-0.1,5.5,2.2,5.6,5.2c0.1,3-2.2,5.5-5.2,5.6C425.9,280.7,425.7,280.7,425.6,280.7z"></path>
</g>
<g class="st5">
	<path class="st3" d="M226.3,97.5h4.5l8.2,13.7h0.2l-0.2-3.9v-9.8h3.8v20.4h-4l-8.7-14.5h-0.2l0.2,3.9v10.5h-3.8V97.5z"></path>
</g>
<g class="st5">
	<path class="st6" d="M226.3,97.5h4.5l8.2,13.7h0.2l-0.2-3.9v-9.8h3.8v20.4h-4l-8.7-14.5h-0.2l0.2,3.9v10.5h-3.8V97.5z"></path>
</g>
<g class="st5">
	<path class="st2" d="M91.7,248.6H96l7.9,13.2h0.2l-0.2-3.8v-9.4h3.7v19.7h-3.9l-8.4-14h-0.2l0.2,3.8v10.2h-3.7V248.6z"></path>
</g>
<g class="st5">
	<path class="st7" d="M91.7,248.6H96l7.9,13.2h0.2l-0.2-3.8v-9.4h3.7v19.7h-3.9l-8.4-14h-0.2l0.2,3.8v10.2h-3.7V248.6z"></path>
</g>
<g class="st5">
	<path class="st3" d="M271.2,59.1h-2v-2.6h2V53h3v3.5h2.8v2.6h-2.8v4.5c0,0.3,0,0.5,0.1,0.8s0.2,0.4,0.3,0.6   c0.2,0.3,0.5,0.4,0.9,0.4c0.3,0,0.5,0,0.6-0.1c0.2-0.1,0.3-0.1,0.4-0.2l0.9,2.7c-0.4,0.2-0.7,0.3-1.1,0.4c-0.4,0.1-0.9,0.1-1.4,0.1   c-0.6,0-1.1-0.1-1.5-0.3c-0.5-0.2-0.8-0.4-1.1-0.7c-0.7-0.7-1.1-1.7-1.1-3V59.1z"></path>
</g>
<g class="st5">
	<path class="st8" d="M271.2,59.1h-2v-2.6h2V53h3v3.5h2.8v2.6h-2.8v4.5c0,0.3,0,0.5,0.1,0.8s0.2,0.4,0.3,0.6   c0.2,0.3,0.5,0.4,0.9,0.4c0.3,0,0.5,0,0.6-0.1c0.2-0.1,0.3-0.1,0.4-0.2l0.9,2.7c-0.4,0.2-0.7,0.3-1.1,0.4c-0.4,0.1-0.9,0.1-1.4,0.1   c-0.6,0-1.1-0.1-1.5-0.3c-0.5-0.2-0.8-0.4-1.1-0.7c-0.7-0.7-1.1-1.7-1.1-3V59.1z"></path>
</g>
<g class="st5">
	<path class="st2" d="M114.3,174.5l4.6-24.4l-8.3-1.6l1-5.3l22.2,4.2l-1,5.3l-8.3-1.6l-4.6,24.4L114.3,174.5z"></path>
</g>
<g class="st5">
	<path class="st9" d="M114.3,174.5l4.6-24.4l-8.3-1.6l1-5.3l22.2,4.2l-1,5.3l-8.3-1.6l-4.6,24.4L114.3,174.5z"></path>
</g>
<g class="st5">
	<path class="st2" d="M190.4,88.2l-1,7l12,1.7l-0.7,5.4l-12-1.7l-1,7l13.4,1.8l-0.7,5.4l-19-2.6l4.1-30l19,2.6l-0.7,5.4L190.4,88.2z   "></path>
</g>
<g class="st5">
	<path class="st9" d="M190.4,88.2l-1,7l12,1.7l-0.7,5.4l-12-1.7l-1,7l13.4,1.8l-0.7,5.4l-19-2.6l4.1-30l19,2.6l-0.7,5.4L190.4,88.2z   "></path>
</g>
<g class="st5">
	<path class="st3" d="M182,137.5l0.3,0.1c0.7-0.7,1.5-1.3,2.5-1.6c1-0.3,2-0.4,3.2-0.2c1.1,0.2,1.9,0.5,2.7,1   c0.7,0.5,1.3,1.1,1.7,1.8c0.4,0.7,0.6,1.6,0.7,2.5c0.1,0.9,0,1.9-0.2,3l-1.9,10.2l-4.5-0.8l1.8-9.6c0.2-1.2,0.1-2.2-0.3-2.8   c-0.4-0.7-1.2-1.1-2.2-1.3c-0.6-0.1-1.2-0.1-1.7,0.1c-0.5,0.2-1,0.5-1.4,0.8s-0.8,0.9-1.1,1.4c-0.3,0.6-0.5,1.2-0.6,1.9l-1.6,8.2   l-4.5-0.8l3.2-16.8l4.2,0.8L182,137.5z"></path>
</g>
<g class="st5">
	<path class="st10" d="M182,137.5l0.3,0.1c0.7-0.7,1.5-1.3,2.5-1.6c1-0.3,2-0.4,3.2-0.2c1.1,0.2,1.9,0.5,2.7,1   c0.7,0.5,1.3,1.1,1.7,1.8c0.4,0.7,0.6,1.6,0.7,2.5c0.1,0.9,0,1.9-0.2,3l-1.9,10.2l-4.5-0.8l1.8-9.6c0.2-1.2,0.1-2.2-0.3-2.8   c-0.4-0.7-1.2-1.1-2.2-1.3c-0.6-0.1-1.2-0.1-1.7,0.1c-0.5,0.2-1,0.5-1.4,0.8s-0.8,0.9-1.1,1.4c-0.3,0.6-0.5,1.2-0.6,1.9l-1.6,8.2   l-4.5-0.8l3.2-16.8l4.2,0.8L182,137.5z"></path>
</g>
<g class="st5">
	<path class="st0" d="M111.3,303.3c-0.4,0.6-0.8,1.1-1.4,1.6c-0.5,0.5-1.1,0.9-1.7,1.3c-1.2,0.7-2.5,1.2-3.8,1.4   c-1.3,0.2-2.6,0.1-3.8-0.2s-2.4-0.8-3.4-1.6c-1.1-0.8-2-1.8-2.7-2.9c-0.7-1.2-1.2-2.4-1.4-3.7c-0.2-1.3-0.2-2.6,0.1-3.8   c0.3-1.2,0.8-2.4,1.6-3.5c0.8-1.1,1.8-2,3-2.7s2.5-1.2,3.8-1.4c1.3-0.2,2.6-0.1,3.8,0.2c1.2,0.3,2.4,0.8,3.4,1.6   c1.1,0.8,2,1.8,2.7,2.9c0.8,1.3,1.2,2.6,1.4,3.9c0.2,1.4,0.1,2.7-0.3,4l2.4,1.1l-1.3,2.9L111.3,303.3z M104.7,300.2l1.3-2.9   l3.4,1.6c0.1-0.7,0.1-1.5,0-2.2c-0.1-0.8-0.5-1.5-0.9-2.3c-0.5-0.8-1.1-1.5-1.8-2c-0.7-0.5-1.4-0.9-2.2-1c-0.8-0.2-1.6-0.2-2.4-0.1   c-0.8,0.1-1.6,0.4-2.4,0.9c-0.8,0.5-1.4,1-1.9,1.7c-0.5,0.7-0.8,1.4-1,2.2c-0.2,0.8-0.2,1.6-0.1,2.5c0.1,0.9,0.5,1.7,1,2.5   c0.5,0.8,1.1,1.5,1.8,2c0.7,0.5,1.4,0.9,2.2,1.1c0.8,0.2,1.6,0.2,2.4,0.1c0.8-0.1,1.6-0.4,2.4-0.9c0.3-0.2,0.6-0.4,0.9-0.7   c0.3-0.2,0.5-0.5,0.7-0.8L104.7,300.2z"></path>
</g>
<g class="st5">
	<path class="st11" d="M111.3,303.3c-0.4,0.6-0.8,1.1-1.4,1.6c-0.5,0.5-1.1,0.9-1.7,1.3c-1.2,0.7-2.5,1.2-3.8,1.4   c-1.3,0.2-2.6,0.1-3.8-0.2s-2.4-0.8-3.4-1.6c-1.1-0.8-2-1.8-2.7-2.9c-0.7-1.2-1.2-2.4-1.4-3.7c-0.2-1.3-0.2-2.6,0.1-3.8   c0.3-1.2,0.8-2.4,1.6-3.5c0.8-1.1,1.8-2,3-2.7s2.5-1.2,3.8-1.4c1.3-0.2,2.6-0.1,3.8,0.2c1.2,0.3,2.4,0.8,3.4,1.6   c1.1,0.8,2,1.8,2.7,2.9c0.8,1.3,1.2,2.6,1.4,3.9c0.2,1.4,0.1,2.7-0.3,4l2.4,1.1l-1.3,2.9L111.3,303.3z M104.7,300.2l1.3-2.9   l3.4,1.6c0.1-0.7,0.1-1.5,0-2.2c-0.1-0.8-0.5-1.5-0.9-2.3c-0.5-0.8-1.1-1.5-1.8-2c-0.7-0.5-1.4-0.9-2.2-1c-0.8-0.2-1.6-0.2-2.4-0.1   c-0.8,0.1-1.6,0.4-2.4,0.9c-0.8,0.5-1.4,1-1.9,1.7c-0.5,0.7-0.8,1.4-1,2.2c-0.2,0.8-0.2,1.6-0.1,2.5c0.1,0.9,0.5,1.7,1,2.5   c0.5,0.8,1.1,1.5,1.8,2c0.7,0.5,1.4,0.9,2.2,1.1c0.8,0.2,1.6,0.2,2.4,0.1c0.8-0.1,1.6-0.4,2.4-0.9c0.3-0.2,0.6-0.4,0.9-0.7   c0.3-0.2,0.5-0.5,0.7-0.8L104.7,300.2z"></path>
</g>
<g class="st5">
	<path class="st2" d="M272.1,99.7c-1.3,0.8-2.7,1.2-4.1,1.1c-1.4-0.1-2.7-0.7-3.9-1.7l2.2-3c0.7,0.6,1.3,1,2,1.1   c0.7,0.1,1.4-0.1,2-0.5c0.7-0.4,1.2-1,1.3-1.7c0.1-0.7-0.1-1.5-0.6-2.3l-7-11.5l3.2-1.9l7,11.5c0.6,0.9,0.9,1.9,1.1,2.7   c0.1,0.9,0.1,1.7-0.1,2.5c-0.2,0.8-0.6,1.5-1.1,2.1C273.5,98.7,272.9,99.2,272.1,99.7z"></path>
</g>
<g class="st5">
	<path class="st12" d="M272.1,99.7c-1.3,0.8-2.7,1.2-4.1,1.1c-1.4-0.1-2.7-0.7-3.9-1.7l2.2-3c0.7,0.6,1.3,1,2,1.1   c0.7,0.1,1.4-0.1,2-0.5c0.7-0.4,1.2-1,1.3-1.7c0.1-0.7-0.1-1.5-0.6-2.3l-7-11.5l3.2-1.9l7,11.5c0.6,0.9,0.9,1.9,1.1,2.7   c0.1,0.9,0.1,1.7-0.1,2.5c-0.2,0.8-0.6,1.5-1.1,2.1C273.5,98.7,272.9,99.2,272.1,99.7z"></path>
</g>
<g class="st5">
	<path class="st0" d="M161.8,134.1l-0.2,0.1c-0.1,0.7-0.3,1.4-0.7,2.1c-0.3,0.7-1,1.3-1.8,1.8c-0.7,0.4-1.3,0.7-2,0.8   c-0.7,0.1-1.4,0.1-2,0c-0.7-0.1-1.3-0.4-1.8-0.7c-0.6-0.4-1-0.9-1.4-1.5c-0.4-0.7-0.6-1.3-0.7-2c-0.1-0.7,0-1.3,0.3-2   s0.6-1.3,1.1-1.9c0.5-0.6,1.1-1.1,1.9-1.5c0.8-0.5,1.5-0.9,2.1-1c0.6-0.2,1.1-0.3,1.6-0.4l-0.2-0.4c-0.4-0.7-1-1.1-1.8-1.2   c-0.8-0.1-1.6,0.1-2.4,0.6c-1.2,0.7-1.8,1.8-2.1,3.3L148,130c0.3-2.5,1.6-4.4,3.9-5.9c2-1.2,3.7-1.6,5.3-1.4c1.6,0.3,2.9,1.3,4,3.1   l4.6,7.5l-3.3,2L161.8,134.1z M159.5,130.3c-0.5,0.1-1,0.2-1.5,0.3c-0.5,0.1-1,0.4-1.5,0.7c-0.8,0.5-1.3,1-1.5,1.7   c-0.2,0.6-0.2,1.2,0.1,1.7c0.3,0.5,0.8,0.8,1.4,0.8c0.6,0.1,1.2-0.1,1.7-0.4c0.4-0.3,0.8-0.6,1.1-1c0.3-0.4,0.5-0.8,0.6-1.2   c0.1-0.4,0.1-0.9,0.1-1.3C159.9,131.1,159.7,130.7,159.5,130.3z"></path>
</g>
<g class="st5">
	<path class="st13" d="M161.8,134.1l-0.2,0.1c-0.1,0.7-0.3,1.4-0.7,2.1c-0.3,0.7-1,1.3-1.8,1.8c-0.7,0.4-1.3,0.7-2,0.8   c-0.7,0.1-1.4,0.1-2,0c-0.7-0.1-1.3-0.4-1.8-0.7c-0.6-0.4-1-0.9-1.4-1.5c-0.4-0.7-0.6-1.3-0.7-2c-0.1-0.7,0-1.3,0.3-2   s0.6-1.3,1.1-1.9c0.5-0.6,1.1-1.1,1.9-1.5c0.8-0.5,1.5-0.9,2.1-1c0.6-0.2,1.1-0.3,1.6-0.4l-0.2-0.4c-0.4-0.7-1-1.1-1.8-1.2   c-0.8-0.1-1.6,0.1-2.4,0.6c-1.2,0.7-1.8,1.8-2.1,3.3L148,130c0.3-2.5,1.6-4.4,3.9-5.9c2-1.2,3.7-1.6,5.3-1.4c1.6,0.3,2.9,1.3,4,3.1   l4.6,7.5l-3.3,2L161.8,134.1z M159.5,130.3c-0.5,0.1-1,0.2-1.5,0.3c-0.5,0.1-1,0.4-1.5,0.7c-0.8,0.5-1.3,1-1.5,1.7   c-0.2,0.6-0.2,1.2,0.1,1.7c0.3,0.5,0.8,0.8,1.4,0.8c0.6,0.1,1.2-0.1,1.7-0.4c0.4-0.3,0.8-0.6,1.1-1c0.3-0.4,0.5-0.8,0.6-1.2   c0.1-0.4,0.1-0.9,0.1-1.3C159.9,131.1,159.7,130.7,159.5,130.3z"></path>
</g>
<g class="st5">
	<path class="st0" d="M154.4,176.8l-11.4-18.7l6.6-4c0.9-0.5,1.8-0.9,2.8-1.1s1.9-0.2,2.8,0c0.9,0.2,1.7,0.5,2.5,1   c0.8,0.5,1.4,1.2,2,2.1c0.5,0.9,0.9,1.8,1,2.7c0.1,0.9,0,1.8-0.2,2.7c-0.3,0.9-0.7,1.7-1.3,2.5c-0.6,0.8-1.3,1.4-2.2,2l-3.1,1.9   l4.2,6.9L154.4,176.8z M154.7,162.5c0.9-0.6,1.5-1.3,1.6-2.1c0.2-0.8,0-1.6-0.4-2.2c-0.2-0.3-0.5-0.6-0.8-0.9   c-0.3-0.2-0.6-0.4-1-0.5c-0.4-0.1-0.8-0.1-1.2,0c-0.4,0.1-0.9,0.3-1.4,0.5l-3.1,1.9l3.1,5.1L154.7,162.5z"></path>
</g>
<g class="st5">
	<path class="st14" d="M154.4,176.8l-11.4-18.7l6.6-4c0.9-0.5,1.8-0.9,2.8-1.1s1.9-0.2,2.8,0c0.9,0.2,1.7,0.5,2.5,1   c0.8,0.5,1.4,1.2,2,2.1c0.5,0.9,0.9,1.8,1,2.7c0.1,0.9,0,1.8-0.2,2.7c-0.3,0.9-0.7,1.7-1.3,2.5c-0.6,0.8-1.3,1.4-2.2,2l-3.1,1.9   l4.2,6.9L154.4,176.8z M154.7,162.5c0.9-0.6,1.5-1.3,1.6-2.1c0.2-0.8,0-1.6-0.4-2.2c-0.2-0.3-0.5-0.6-0.8-0.9   c-0.3-0.2-0.6-0.4-1-0.5c-0.4-0.1-0.8-0.1-1.2,0c-0.4,0.1-0.9,0.3-1.4,0.5l-3.1,1.9l3.1,5.1L154.7,162.5z"></path>
</g>
<g class="st5">
	<path class="st0" d="M79.9,211.8l5.1-3.1l23.6,18.4l-5,3l-5.5-4.5l-9.2,5.6l1.5,6.9l-5,3L79.9,211.8z M94.3,222.4l-5.8-4.7   l-2.6-2.4l-0.3,0.2l0.9,3.4l1.5,7.3L94.3,222.4z"></path>
</g>
<g class="st5">
	<path class="st15" d="M79.9,211.8l5.1-3.1l23.6,18.4l-5,3l-5.5-4.5l-9.2,5.6l1.5,6.9l-5,3L79.9,211.8z M94.3,222.4l-5.8-4.7   l-2.6-2.4l-0.3,0.2l0.9,3.4l1.5,7.3L94.3,222.4z"></path>
</g>
<g class="st5">
	<path class="st0" d="M236.7,137.8l4-3.4l7.8,9.2l0.2-0.2l0-15.9l4.9-4.2l0.2,0.2l-0.2,15.5l18.9,4.8l0.2,0.2l-4.9,4.2l-14.2-3.7   l0,4.9l5.4,6.3l-4,3.4L236.7,137.8z"></path>
</g>
<g class="st5">
	<path class="st16" d="M236.7,137.8l4-3.4l7.8,9.2l0.2-0.2l0-15.9l4.9-4.2l0.2,0.2l-0.2,15.5l18.9,4.8l0.2,0.2l-4.9,4.2l-14.2-3.7   l0,4.9l5.4,6.3l-4,3.4L236.7,137.8z"></path>
</g>
<g class="st5">
	<path class="st3" d="M107,194.7l3.1-1.2l5.9,8.1l1,1.5l0.2-0.1l-0.2-1.8l-0.5-7.8l2.7-1.1l4.9,6.1l1.1,1.5l0.2-0.1l-0.3-1.8   l-1.2-9.9l3.1-1.2l1.9,17.1l-2.8,1.1l-5.3-6.5l-1.1-1.5l-0.2,0.1l0.2,1.9l0.5,8.4l-2.8,1.1L107,194.7z"></path>
</g>
<g class="st5">
	<path class="st17" d="M107,194.7l3.1-1.2l5.9,8.1l1,1.5l0.2-0.1l-0.2-1.8l-0.5-7.8l2.7-1.1l4.9,6.1l1.1,1.5l0.2-0.1l-0.3-1.8   l-1.2-9.9l3.1-1.2l1.9,17.1l-2.8,1.1l-5.3-6.5l-1.1-1.5l-0.2,0.1l0.2,1.9l0.5,8.4l-2.8,1.1L107,194.7z"></path>
</g>
<g>
	<path class="st2" d="M165.7,283.5L165.7,283.5c3.4,0,6.2,2.8,6.2,6.2c0,2.6-1.6,4.9-4,5.8c-0.7,0.3-1.5,0.4-2.2,0.4   c-3.4,0-6.2-2.8-6.2-6.3c0-2.5,1.6-4.8,3.9-5.7C164.2,283.6,165,283.5,165.7,283.5 M165.7,279.3c-5.7,0-10.4,4.7-10.4,10.4   c0,5.7,4.7,10.4,10.4,10.4c5.7,0,10.4-4.7,10.4-10.4c0-1.3-0.2-2.6-0.7-3.8C173.9,281.9,170,279.3,165.7,279.3L165.7,279.3z"></path>
</g>
<g>
	<path class="st2" d="M139.3,287L139.3,287c3.4,0,6.2,2.8,6.2,6.2s-2.8,6.2-6.2,6.2s-6.2-2.8-6.2-6.2c0-2.6,1.6-4.8,4-5.8   C137.7,287.1,138.5,287,139.3,287 M139.3,282.8c-5.7,0-10.4,4.7-10.4,10.4c0,5.7,4.7,10.4,10.4,10.4c5.7,0,10.4-4.7,10.4-10.4   c0-1.3-0.2-2.6-0.7-3.8C147.4,285.4,143.6,282.8,139.3,282.8L139.3,282.8z"></path>
</g>
<g>
	
		<rect x="147.1" y="288.8" transform="matrix(0.9975 -7.097518e-02 7.097518e-02 0.9975 -20.2436 11.5264)" class="st2" width="9.9" height="3.6"></rect>
</g>
<g>
	<path class="st0" d="M510.8,167.8l-14.5-5.9l-3.7,0.9l-35.5,86.6c-0.6,1.5-1,3.1-1.1,4.8l-1.8,23.6c-0.3,1.6,0.8,3.1,2.4,3.3   c1.1,0.2,2.2-0.3,2.8-1.2l15.3-18c1.1-1.3,1.9-2.7,2.5-4.2l35.4-86.6L510.8,167.8z"></path>
</g>
<g>
	<path class="st4" d="M456,254.2l-1.8,23.6c-0.3,1.6,0.8,3.1,2.4,3.3c1.1,0.2,2.2-0.3,2.8-1.2l15.3-18L456,254.2z"></path>
</g>
<g>
	<path class="st2" d="M521.3,150.2c1.5-3.8-0.2-8.1-4-9.6c0,0,0,0,0,0l-6.5-2.7c-3.8-1.6-8,0.2-9.6,4c0,0,0,0,0,0l-2.8,6.9l1.9,2.8   l15,6.1l3.3-0.7L521.3,150.2z"></path>
</g>
<g>
	
		<rect x="498" y="149.1" transform="matrix(0.3788 -0.9255 0.9255 0.3788 165.9602 567.2416)" class="st0" width="15.1" height="21.8"></rect>
</g>
<g>
	<path class="st2" d="M455,269.2l10,4.4l-6.8,7.7c-0.9,1-2.4,1.1-3.3,0.2c-0.6-0.5-0.9-1.2-0.8-2L455,269.2z"></path>
</g>
</svg>