<svg xmlns="http://www.w3.org/2000/svg" id="Layer_1" data-name="Layer 1" viewBox="0 0 195.06 195.06"><defs><style>.cls-1{fill:#f4f4f4;}.cls-2{fill:#ff8388;}.cls-3{fill:#fff;}.cls-4{fill:#022494;}</style></defs><rect class="cls-1" width="195.06" height="195.06" rx="18.25"></rect><rect class="cls-2" x="37.7" y="39.55" width="121.87" height="119.3" rx="5.04"></rect><path class="cls-3" d="M142.14,62.85H52.69a3.19,3.19,0,0,1,0-6.37h89.45a3.19,3.19,0,1,1,0,6.37Z"></path><path class="cls-3" d="M142.14,79.38H52.69a3.19,3.19,0,0,1,0-6.37h89.45a3.19,3.19,0,1,1,0,6.37Z"></path><path class="cls-3" d="M142.14,95.92H52.69a3.19,3.19,0,0,1,0-6.37h89.45a3.19,3.19,0,1,1,0,6.37Z"></path><path class="cls-3" d="M142.14,112.45H52.69a3.19,3.19,0,0,1,0-6.37h89.45a3.19,3.19,0,1,1,0,6.37Z"></path><path class="cls-3" d="M140.26,129H52.69a3.19,3.19,0,0,1,0-6.37h87.57a3.19,3.19,0,1,1,0,6.37Z"></path><path class="cls-3" d="M117.17,145.52H52.69a3.19,3.19,0,0,1,0-6.37h64.48a3.19,3.19,0,1,1,0,6.37Z"></path><path class="cls-4" d="M169.08,77.67l-9.32-3.81-2.35.59-22.75,55.6a10.11,10.11,0,0,0-.72,3.07l-1.12,15.13a1.85,1.85,0,0,0,3.34,1.36L146,138a10,10,0,0,0,1.63-2.69l22.75-55.6Z"></path><path class="cls-4" d="M133.94,133.12l-1.12,15.13a1.85,1.85,0,0,0,3.34,1.36L146,138Z"></path><path class="cls-2" d="M175.82,66.35a4.73,4.73,0,0,0-2.58-6.17l-4.18-1.71a4.73,4.73,0,0,0-6.17,2.59l-1.81,4.43,1.19,1.78,9.64,3.94,2.1-.43Z"></path><rect class="cls-4" x="160.85" y="65.64" width="9.68" height="13.97" transform="translate(35.72 198.47) rotate(-67.74)"></rect><path class="cls-4" d="M133.27,142.71l6.39,2.83-4.34,4.93a1.52,1.52,0,0,1-2.65-1.14Z"></path></svg>