<svg xmlns="http://www.w3.org/2000/svg" xmlns:xlink="http://www.w3.org/1999/xlink" id="Layer_1" x="0px" y="0px" viewBox="0 0 1056 794.3" style="enable-background:new 0 0 1056 794.3;" xml:space="preserve">
<style type="text/css">
	.st0{fill:#FF8388;}
	.st1{fill:#F4F4F4;}
	.st2{fill:#022494;}
	.st3{fill:#269EF7;}
	.st4{fill:#FFFFFF;}
	.st5{enable-background:new    ;}
	.st6{fill:none;stroke:#022494;stroke-width:1.55;stroke-linecap:round;stroke-linejoin:round;}
	.st7{fill:none;stroke:#269EF7;stroke-width:1.23;stroke-linecap:round;stroke-linejoin:round;}
	.st8{fill:none;stroke:#022494;stroke-width:1.36;stroke-linecap:round;stroke-linejoin:round;}
	.st9{fill:none;stroke:#269EF7;stroke-linecap:round;stroke-linejoin:round;}
	.st10{fill:none;stroke:#FF8388;stroke-width:1.03;stroke-linecap:round;stroke-linejoin:round;}
	.st11{fill:none;stroke:#FF8388;stroke-width:1.82;stroke-linecap:round;stroke-linejoin:round;}
	.st12{fill:none;stroke:#269EF7;stroke-width:1.2321;stroke-linecap:round;stroke-linejoin:round;stroke-miterlimit:4.0068;}
	.st13{fill:none;stroke:#269EF7;stroke-width:0.9012;stroke-linecap:round;stroke-linejoin:round;stroke-miterlimit:4.0052;}
	.st14{fill:none;stroke:#022494;stroke-width:1.66;stroke-linecap:round;stroke-linejoin:round;}
	.st15{fill:none;stroke:#022494;stroke-width:1.82;stroke-linecap:round;stroke-linejoin:round;}
	.st16{fill:none;stroke:#269EF7;stroke-width:1.5;stroke-linecap:round;stroke-linejoin:round;}
	.st17{fill:none;stroke:#022494;stroke-width:1.45;stroke-linecap:round;stroke-linejoin:round;}
	.st18{fill:none;stroke:#022494;stroke-width:1.63;stroke-linecap:round;stroke-linejoin:round;}
	.st19{fill:none;stroke:#FF8388;stroke-width:1.2754;stroke-linecap:round;stroke-linejoin:round;stroke-miterlimit:3.9858;}
	.st20{fill:none;stroke:#FF8388;stroke-width:1.1459;stroke-linecap:round;stroke-linejoin:round;stroke-miterlimit:3.9858;}
	.st21{fill:none;stroke:#022494;stroke-width:1.3552;stroke-linecap:round;stroke-linejoin:round;stroke-miterlimit:3.9858;}
	.st22{fill:none;stroke:#FF8388;stroke-width:1.2954;stroke-linecap:round;stroke-linejoin:round;stroke-miterlimit:3.9858;}
	.st23{fill:none;stroke:#FF8388;stroke-width:1.3153;stroke-linecap:round;stroke-linejoin:round;stroke-miterlimit:3.9858;}
	.st24{fill:none;stroke:#FF8388;stroke-width:1.684;stroke-linecap:round;stroke-linejoin:round;stroke-miterlimit:3.9858;}
	.st25{fill:none;stroke:#FF8388;stroke-width:1.6901;stroke-linecap:round;stroke-linejoin:round;stroke-miterlimit:4.0002;}
	.st26{fill:none;stroke:#FF8388;stroke-width:1.7605;stroke-linecap:round;stroke-linejoin:round;stroke-miterlimit:3.9785;}
	.st27{fill:none;stroke:#269EF7;stroke-width:1.2266;stroke-linecap:round;stroke-linejoin:round;stroke-miterlimit:3.989;}
	.st28{fill:none;stroke:#269EF7;stroke-width:0.9972;stroke-linecap:round;stroke-linejoin:round;stroke-miterlimit:3.989;}
	.st29{fill:none;stroke:#022494;stroke-width:1.3655;stroke-linecap:round;stroke-linejoin:round;stroke-miterlimit:4.0162;}
</style>
<g>
	<path class="st0" d="M1037.5,298.1H845.7c-6.6,0-11.9-5.3-11.9-11.9l0,0V28.6c0-6.6,5.3-11.9,11.9-11.9l0,0h198.3   c6.6,0,11.9,5.3,11.9,11.8c0,0,0,0,0,0v251.1C1056,289.9,1047.7,298.1,1037.5,298.1C1037.5,298.1,1037.5,298.1,1037.5,298.1z"></path>
</g>
<g>
	<path class="st1" d="M827.9,0.7h198.3c6.6,0,11.9,5.3,11.9,11.9v257.6c0,6.6-5.3,11.9-11.9,11.9H827.9c-6.6,0-11.9-5.3-11.9-11.9   V12.6C816.1,6.1,821.4,0.7,827.9,0.7z"></path>
</g>
<g>
	<path class="st1" d="M327.3,383.4c5.2,6.9,12.5,12.5,21.1,13.7c13.9,1.9,26.2-8.2,37.2-17c17.2-13.9,36.9-26.3,58.9-28.1   c12.8-1.1,25.5,1.5,38.1,4c25.9,5.2,53.3,11.2,72.2,29.7c13.9,13.6,22.4,33.3,39.7,42.1c18.3,9.3,40.9,3.5,60.4,9.8   c15,5,26.9,16.6,32.2,31.5c6.1,17.6,2,37.4-6.8,53.9s-21.7,30.2-34.2,44c-31.5,34.6-61.7,70.7-97.4,100.8s-78,54.5-124.4,60.7   c-10.2,1.4-21.1,1.8-30.3-3c-6.9-3.6-12.2-9.7-16.7-16.1c-24.1-33.7-33.3-75.7-38.1-116.8s-5.9-82.9-16.1-123   c-6.9-27.1-18.1-54.8-12.7-82.3"></path>
</g>
<g>
	<path class="st1" d="M835.5,770.9c0,12.8-135.6,23.1-302.8,23.1s-302.8-10.3-302.8-23.1s135.6-23.1,302.8-23.1   S835.5,758.1,835.5,770.9z"></path>
</g>
<g>
	<path class="st1" d="M532.7,794.3c-170,0-303.1-10.3-303.1-23.4c0-13.1,133.2-23.5,303.1-23.5c170,0,303.1,10.3,303.1,23.5   C835.8,784,702.7,794.3,532.7,794.3z M532.7,748.1c-80.9,0-156.9,2.4-214.1,6.8c-79.8,6.1-88.4,13.2-88.4,16s8.6,9.9,88.4,16   c57.2,4.4,133.2,6.8,214.1,6.8s156.9-2.4,214.1-6.8c79.8-6.1,88.4-13.2,88.4-16c0-2.8-8.6-9.9-88.4-16   C689.6,750.5,613.6,748.1,532.7,748.1z"></path>
</g>
<g>
	<path class="st1" d="M755.1,633.6c-5.9-7.5-12.6-14.8-16-23.8c-15.6-41.3,63-36.5,85.2-45.9c44.3-18.8,40.8-64.3,39.7-104.6   c-0.9-31.6-4.9-65.2-25-89.7c-50.3-61.5-117.8,8.7-155.9,44.9C671,426,659,438.1,652.1,453.3c-6.7,14.8-8,31.4-11.6,47.2   c-5.6,25-17.1,50.2-11.1,75.1c5.2,21.4,22.2,37.6,38.4,52.6c20.6,19,43.4,38.9,58.5,62.9c13.3,21.2,3.2,35.8,7.7,57.3   c4.1,19.6,35.3,32,52.6,20.9c15.3-9.9,7.3-30.3,5.6-45C788.5,691.3,775.6,659.9,755.1,633.6z"></path>
</g>
<g>
	<path class="st1" d="M280.2,637.8c3-12.7,5.5-26,0.5-37.9c-14.7-35.5-59-23.8-87.5-35.9c-44.3-18.8-40.8-64.3-39.7-104.6   c0.9-31.6,4.9-65.2,25-89.7c50.3-61.5,117.8,8.7,155.9,44.9c12.1,11.5,24.2,23.7,31.1,38.9c6.7,14.8,8,31.4,11.6,47.2   c5.6,25,17.1,50.2,11.1,75.1c-3.2,13-14.5,21.3-18.2,33.1c-5.1,16.4,0.7,44,0.4,61.5l-1.1,74.5c-0.1,5.9-0.2,11.9-2.3,17.3   c-3.7,9.8-13.4,16.4-23.5,19.1s-20.8,2.3-31.2,1.8c-14.7-0.7-32-2.9-38.9-15.9c-2.7-5-3.2-10.8-3.5-16.5c-2.2-36,0.8-72,9-107.1   C279.3,641.6,279.8,639.7,280.2,637.8z"></path>
</g>
<g>
	<path class="st2" d="M689.5,289.2c0.9-16.6,13.5-30,30-30s33.9,8.9,36.3,29.9c3.5,30,30.7,33.2,44.6,82c0.7,2.6-0.7,5.2-3.3,6   c-0.4,0.1-0.9,0.2-1.3,0.2h-83.5C712.3,377.2,687.9,319,689.5,289.2z"></path>
</g>
<g>
	<path class="st1" d="M719.4,646.8c5.3,5.5,4.1,15.1-0.8,21s-12.4,8.9-19.8,11.1c-23,6.8-47.3,8-71.3,10.4   c-48,4.8-95.3,14.6-141.1,29.3c-9.5,3.1-19.1,6.4-27.8,11.2c-3.5,2-7.2,4.5-8.5,8.3c-1.7,5,1.3,10.6,5.6,13.5s9.7,3.9,14.9,4.6   c66.6,9.1,134.4-4,201.3,1.9c15.2,1.3,31.5,3.5,44.9-3.9c16-8.9,22.5-29,21.8-47.3c-0.9-20.8-9.1-40.6-23.2-56"></path>
</g>
<g>
	<path class="st1" d="M716.2,650c10.7,13.5-12.3,22.8-21.8,25.3c-14,3.8-28.4,5.7-42.8,7.1c-25.5,2.5-51,5-76.3,9.5   c-26,4.6-51.6,10.7-76.9,18.3c-11.1,3.3-22.4,6.7-33,11.4c-7.6,3.3-17.9,7.6-19.8,16.7c-4.4,21.2,25.6,23,39.1,24.2   c27,2.5,54.1,1.8,81.2,0.8s54.3-2.6,81.4-1.8c21.8,0.6,47.9,7.8,68.6-1.6c18.4-8.3,26.6-28.6,27.3-47.8   c0.8-23.7-8.9-46.8-24.5-64.3c-3.9-4.4-10.3,2.1-6.4,6.4c14.5,16.3,23.4,38.3,21.7,60.4s-14.4,39-37.3,40.4   c-10.6,0.7-21.2-1.1-31.7-1.8c-12.9-0.9-25.9-1.1-38.8-1c-23.6,0.2-47.2,1.6-70.8,2.4c-24.1,0.8-48.3,1-72.3-1.3   c-5.4-0.5-11-0.9-16.3-2.1c-3.3-0.8-7.3-1.6-9.7-4.3c-5.4-6.1-1.8-9.2,1.9-11.8c10.2-7.1,23.6-10.5,35.4-14.1   c45.7-14.1,92.6-23.4,140.2-27.8c24.4-2.3,51-3.1,73.8-12.8c14.5-6.2,25.8-22.3,14.3-36.7C719,639,712.6,645.5,716.2,650z"></path>
</g>
<g>
	<path class="st2" d="M429.1,731.4c0,0-10.8,16.8-10.8,45.1h130c-0.8-9.8-7.5-18.1-16.8-21.1c-16.2-5.4-54.8-18-57.2-24.1H429.1"></path>
</g>
<g>
	<path class="st2" d="M382.3,731.3c0,0-10.8,16.9-10.8,45.1h130c-0.8-9.8-7.5-18.1-16.9-21.1c-16.2-5.4-54.8-18.1-57.2-24.1H382.3"></path>
</g>
<g>
	<path class="st0" d="M342.3,731.4c0,0-10.8,16.8-10.8,45.1h130c-0.8-9.8-7.5-18.1-16.9-21.1c-16.2-5.4-54.8-18-57.2-24.1"></path>
</g>
<g>
	<path class="st3" d="M732,453.7l-13.7-33.2c-2.5-6.1-8.4-10-15-10h-55l29.9-47.5c4.1-6.4,11.1-10.4,18.7-10.7l8.4-0.3   c4.5-0.1,8.1-3.9,7.9-8.4c0-0.2,0-0.4,0-0.6l-0.7-6.8h33.2l4,15.6h11.4c7.1,0,13.8,3.4,17.9,9.2l61.4,85.7c5.6,7.8,3.8,18.7-4,24.3   c-1.3,0.9-2.7,1.7-4.2,2.2l-16.3,5.9h-73.3L732,453.7z M751.5,448.6c17.3-4.6,31.5-8.7,31.5-8.7c1.6-0.7,2.3-2.5,1.6-4   c-0.1-0.2-0.2-0.4-0.3-0.6L769,413.8L751.5,448.6z"></path>
</g>
<g>
	<path class="st3" d="M544.4,731.4c-0.9,2.2-6.4,5.2-13.9,8.4c2.4,1.7,8.5,7.1,12.6,18.7c0.1,0.4-0.1,0.9-0.5,1s-0.9-0.1-1-0.5l0,0   c-4.7-13.5-12.2-18.1-12.8-18.5c-3.2,1.4-6.8,2.7-10.4,4.1c1.8,1.5,5.7,5.7,8,14.4c0.1,0.4-0.1,0.9-0.5,1c0,0,0,0,0,0   c-0.4,0.1-0.9-0.1-1-0.5c0,0,0,0,0,0c-2.8-10.7-8-14-8.2-14.1l0,0c-3.3,1.2-6.7,2.5-10.1,3.6c1.5,1.6,4.1,5,6.2,11.2   c0.2,0.4,0,0.9-0.4,1.1s-0.9,0-1.1-0.4c0-0.1,0-0.1-0.1-0.2c-2.3-6.9-5.2-10.1-6.4-11.1c-6.8,2.3-13.1,4.4-17.7,6   c-9.4,3-16,11.3-16.9,21.1h130c6.1-21.8-0.1-62.8-0.1-62.8L544.4,731.4z"></path>
</g>
<g>
	<path class="st1" d="M511.3,760.7c0.1,0.4,0.5,0.7,1,0.6c0.4-0.1,0.7-0.5,0.6-1c0-0.1,0-0.1-0.1-0.2c-2.1-6.2-4.7-9.7-6.2-11.2   l-1.7,0.6C506,750.5,509,753.7,511.3,760.7z"></path>
</g>
<g>
	<path class="st1" d="M516.7,745.3L516.7,745.3c0.2,0.1,5.4,3.5,8.2,14.1c0.1,0.4,0.5,0.7,1,0.6c0,0,0,0,0,0c0.4-0.1,0.7-0.5,0.6-1   c0,0,0,0,0,0c-2.3-8.7-6.2-12.9-8-14.4L516.7,745.3L516.7,745.3z"></path>
</g>
<g>
	<path class="st1" d="M541.6,759.1c0.1,0.4,0.6,0.6,1,0.5s0.6-0.6,0.5-1c-4-11.6-10.2-17-12.6-18.7l-1.7,0.7   C529.4,740.9,536.9,745.6,541.6,759.1z"></path>
</g>
<g>
	<path class="st2" d="M769.4,524.1c1.8,13.7-11.6,18.3-11.6,18.3H663c-6.6,0-12.3,4.4-14,10.7c-0.7,2.4-1.4,5.1-0.7,7.8l0.5,18.9   l49.3,155.5H513.9l73.7-211.1H769.4z"></path>
</g>
<g>
	<path class="st0" d="M738.2,307.8l7.3,28.4h-33.2l-0.7-6.2c0,0-9.9-1.4-12.8-8.5c-1.3-4.1-2.3-8.2-3-12.5c4.6-0.2,8.1-4,7.9-8.6   c-0.2-4.3-3.7-7.8-8.1-7.9c-0.8,0-1.7,0.1-2.5,0.4v-0.1c0,0,12.6-7.4,19.4-19.5c0.4-0.7,1.2-0.9,1.8-0.6c0.2,0.1,0.4,0.3,0.6,0.6   c2.5,4.9,9,15.7,20.5,21.6c0,0,4.5-7.1,9.3-3.5S746.6,305.3,738.2,307.8z M721.2,306c4.6-1.8,7-7,5.2-11.6s-7-7-11.6-5.2   c-4.6,1.8-7,7-5.2,11.6c0,0,0,0,0,0.1C711.4,305.5,716.5,307.7,721.2,306L721.2,306z"></path>
</g>
<g>
	<path class="st2" d="M731,225.2c10.3,0,18.7,8.4,18.7,18.7s-8.4,18.7-18.7,18.7c-10.3,0-18.7-8.4-18.7-18.7c0,0,0,0,0,0   C712.3,233.6,720.7,225.2,731,225.2C731,225.2,731,225.2,731,225.2z"></path>
</g>
<g>
	<path class="st0" d="M732,453.7l10.5,25.3H622.1c0.9-8.9,11.1-5.6,29.6-9.2c10.4-2.1,23.7-8.1,38-7.8   C696.2,462.3,713.8,458.3,732,453.7z"></path>
</g>
<g>
	<path class="st2" d="M718.2,420.5l13.8,33.2c-18.2,4.6-35.8,8.5-42.2,8.4c-14.4-0.4-27.6,5.7-38,7.8c-18.5,3.6-28.7,0.4-29.6,9.2   h-8.4l-21-54.1l-3.4-8.9c-0.8-2.2,0.2-4.6,2.4-5.4c0.5-0.2,1-0.3,1.5-0.3h109.9C709.8,410.4,715.7,414.4,718.2,420.5z M663.5,446.1   c0-4.6-3.8-8.4-8.4-8.4c-4.6,0-8.4,3.8-8.4,8.4c0,4.6,3.8,8.4,8.4,8.4C659.7,454.5,663.5,450.8,663.5,446.1   C663.5,446.1,663.5,446.1,663.5,446.1z"></path>
</g>
<g>
	<path class="st4" d="M726.2,294.4c1.8,4.6-0.4,9.9-5.1,11.7c-4.6,1.8-9.9-0.4-11.7-5.1c-1.8-4.6,0.4-9.9,5.1-11.7c0,0,0,0,0.1,0   C719.2,287.5,724.4,289.8,726.2,294.4z"></path>
</g>
<g>
	<path class="st4" d="M695.8,292.6c4.6,0.1,8.2,3.9,8.1,8.5c-0.1,4.3-3.6,7.9-7.9,8.1c-1-5.5-2-11.5-2.6-16.1   C694.1,292.7,695,292.6,695.8,292.6z"></path>
</g>
<g>
	<path class="st4" d="M695.9,309.1h-0.2c-4.6-0.1-8.2-3.9-8.1-8.4c0.1-3.5,2.3-6.6,5.6-7.7C694,297.6,694.9,303.6,695.9,309.1z"></path>
</g>
<g>
	<path class="st3" d="M592.9,425l20.9,54h-8.4c-13.5,0-24.5-11-24.5-24.5c0-3.9,0.9-7.7,2.7-11.1L592.9,425z"></path>
</g>
<g>
	<path class="st3" d="M607.9,270.3c0.7,3.8-4.8,8.2-4.8,12.2s5.5,8.4,4.8,12.2s-7.4,6.2-8.7,9.8s2.3,9.8,0.4,13.1s-9,3.2-11.5,6.2   s-1.2,9.9-4.2,12.5s-9.6,0-13,1.9s-4.5,9-8.2,10.3c-3.5,1.3-8.6-3-12.5-2.7c-8.3-10.7-22.6-14.3-22.6-14.3l16.1-27.8   c0,0,7.9,0.4,9.8-6s-2.6-7.8-6.9-7.8c0,0,1.6-5-1.1-6.4s-7.4,0.2-10.5-3.6s1.2-5.8-1.1-9.9s-8.2-0.5-10.9-4.2   c-0.6-0.9-1-1.9-1.1-2.9c-0.2-1.3-1.4-2.3-2.7-2.1c-0.7,0.1-1.3,0.4-1.7,1c-6,8-14.9,20.4-16.2,25.5c-2,7.8,2.3,13.2,2.3,19.5   s-5.9,14.1-5.9,14.1l-20.5-4.4c-0.8-3.5,2-8.6,0.8-12c-1.3-3.6-8-5.9-8.7-9.8s4.9-8.2,4.9-12.2s-5.5-8.4-4.9-12.2s7.4-6.2,8.7-9.8   s-2.3-9.8-0.4-13.1s9-3.2,11.5-6.2s1.1-9.9,4.1-12.5s9.6,0.1,13-1.9s4.4-8.9,8.1-10.3c3.7-1.3,9,3.3,12.9,2.6s7.2-6.9,11.2-6.9   s7.4,6.2,11.2,6.9s9.2-4,12.9-2.6s4.8,8.3,8.1,10.3s10-0.6,13,1.9s1.6,9.5,4.2,12.5s9.6,2.8,11.5,6.2s-1.7,9.4-0.4,13.1   S607.2,266.4,607.9,270.3z"></path>
</g>
<g>
	<path class="st3" d="M587.6,524.1l-73.7,211.1h-32.6l20.2-174.2l8.2-12.1c1.4-2.7,0.2-6.1-2.5-7.4c-0.8-0.4-1.6-0.6-2.4-0.6h-1   l2-16.8h48.2c0.8,1.6,1.6,2.6,3.4,2.8c3.2,0.4,4.6-0.8,5-2.8L587.6,524.1z"></path>
</g>
<g>
	<path class="st2" d="M582.9,507.9c-3.7-17.8-15.3-25.4-27.6-28.9c-11.5-3.2-23.7-3-30.8-4.3c-5.2-1-15.2-3.4-29.5-11.7l-1.9-1.1   c-3.2,6.4-6,12.3-8.3,17.1c-3.6,7.8-5.8,12.7-5.8,12.7l-0.4,1l17.5,6.5c0,0,13.8,8.3,20.3,10.1c8.4,2.3,20.5-4,32.4,7.6   c2,2.1,3.7,4.5,4.9,7.2c0.8,1.6,1.6,2.6,3.4,2.8c3.2,0.4,4.6-0.8,5-2.8c0.2-0.8,0.2-1.7,0.2-2.5c1.8,4.1,8.9,1.6,6.8-4.7   c2.1,4.8,9.3,2.3,7.2-5.1C578.6,517.2,584.2,514.2,582.9,507.9z"></path>
</g>
<g>
	<path class="st2" d="M546.7,289.9c4.3,0,8.8,1.4,6.9,7.8s-9.8,6-9.8,6l-16.1,27.8l-6.3,10.6c-4-0.2-7.9-1.6-11.3-3.8   c-9.1-6.2-12.2-17.5-12.2-17.5s5.9-7.8,5.9-14.1s-4.3-11.7-2.3-19.5c1.3-5.1,10.2-17.5,16.2-25.5c0.8-1.1,2.3-1.3,3.4-0.5   c0.5,0.4,0.9,1,1,1.7c0.1,1,0.5,2,1.1,2.9c2.7,3.7,8.6,0.2,10.9,4.2s-1.9,6,1.1,9.9s7.8,2.3,10.5,3.6S546.7,289.9,546.7,289.9z"></path>
</g>
<g>
	<path class="st0" d="M550.3,345.8l-0.4,0c-3.8,0.7-7.2,6.9-11.2,6.9s-7.4-6.2-11.2-6.9c-1.6-0.1-3.3,0.2-4.8,0.9l-1.4-4.5l6.3-10.6   C527.7,331.6,542,335.1,550.3,345.8z"></path>
</g>
<g>
	<path class="st0" d="M521.4,342.2l1.4,4.5c-2.9,1.1-5.8,2.6-8.1,1.8c-3.5-1.3-4.6-7.5-7.5-9.9l3-0.3   C513.4,340.6,517.3,342,521.4,342.2z"></path>
</g>
<g>
	<path class="st0" d="M510.1,338.4l-3,0.3c-0.2-0.2-0.4-0.3-0.6-0.4c-3.4-2-10,0.6-13-1.9s-1.6-9.5-4.1-12.5s-9.6-2.8-11.5-6.2   c-0.2-0.4-0.4-0.8-0.4-1.2l20.5,4.4C497.9,320.8,501,332.2,510.1,338.4z"></path>
</g>
<g>
	<path class="st1" d="M504.8,541c3.1,0,5.5,2.5,5.5,5.6c0,0.8-0.2,1.7-0.6,2.4l-8.2,12.1l2.3-20.1H504.8z"></path>
</g>
<g>
	<polygon class="st3" points="505.8,524.1 503.8,541 468.5,541 467,540.4 472.9,524.1  "></polygon>
</g>
<g>
	<polygon class="st1" points="503.8,541 501.5,561.1 410.5,694.2 467,540.4 468.5,541  "></polygon>
</g>
<g>
	<polygon class="st3" points="501.5,561.1 481.3,735.2 410.5,735.2 410.5,694.2  "></polygon>
</g>
<g>
	<path class="st2" d="M480.6,357.1c-4.5,3.3-26.4,18.1-26.4,18.1c-8.9,6.2-16.9-1.1-16.9-1.1v-0.4c3.3,0,6.6-0.8,9.6-2.3l0.1-0.1   c0.5-0.3,1.1-0.7,1.5-1.1l0,0l33.6-23.3c1.4-0.9,3.7-1.9,5.8,0.4s0,4.9-1.2,5.8L480.6,357.1z"></path>
</g>
<g>
	<path class="st0" d="M583.5,443.4c0,0-23.2-71.9-28.8-89.3c-1-3-2.5-5.8-4.4-8.4l-0.4,0c-3.8,0.7-7.2,6.9-11.2,6.9   s-7.4-6.2-11.2-6.9c-1.6-0.1-3.3,0.2-4.8,0.9c-2.9,1.1-5.8,2.6-8.1,1.8c-3.5-1.3-4.6-7.5-7.5-9.9c-0.2-0.2-0.4-0.3-0.6-0.4   c-3.4-2-10,0.6-13-1.9s-1.6-9.5-4.1-12.5s-9.6-2.8-11.5-6.2c-0.2-0.4-0.4-0.8-0.4-1.2l-1.9-0.4c-14.3-3-28.9,3.7-35.8,16.6   L395,396.6l13.3-5.9c0,0,9.8-18.2,11.3-20.8c4.6-8.5,19.5-2.2,25.8-6.2c5.9-3.8,8.2,2.5,3.1,6.7l33.6-23.3c1.4-0.9,3.7-1.9,5.8,0.4   s0,4.9-1.2,5.8l-6,3.9c4.5-3.3,10.8,2.5,2.9,8c-4,2.9-30.4,25.4-55.5,47.1c-24.9,21.5-48.6,42.1-48.6,42.1l8.8,2.4   c12.9,2.5,40-0.5,53.6,22.3l37,13.7l0.4-1c0,0,2.1-5,5.8-12.7c2.2-4.8,5.1-10.7,8.3-17.1c6.6-13.3,13.9-26.3,21.9-38.9   c2.4-3.7,5.7-8,5.7-8l34.8,64h49.9c-13.5,0-24.5-11.1-24.5-24.6C580.9,450.6,581.8,446.8,583.5,443.4z"></path>
</g>
<g>
	<path class="st3" d="M437.2,373.8v0.4c0,0,8.1,7.3,16.9,1.1c0,0,21.9-14.9,26.4-18.1s10.8,2.5,2.9,8c-4,2.9-30.4,25.4-55.5,47.1   l-0.5-0.6l-19.2-21c0,0,9.8-18.2,11.3-20.8c4.6-8.5,19.5-2.2,25.8-6.2c5.9-3.8,8.2,2.5,3.1,6.7l0,0l-1.5,1.1l-0.1,0.1   C443.8,372.9,440.5,373.8,437.2,373.8z"></path>
</g>
<g>
	<polygon class="st3" points="472.9,524.1 467,540.4 410.5,694.2 410.5,542.4 410.5,524.1  "></polygon>
</g>
<g>
	<path class="st2" d="M446.9,371.4l1.5-1.1C448,370.7,447.5,371.1,446.9,371.4z"></path>
</g>
<g>
	<path class="st3" d="M446.4,489.9c1.9,6.1-4.4,9.3-6.4,3.9c-1.7-5.7-5.1-10.8-9.6-14.7h11.3C443.7,482.5,445.3,486.1,446.4,489.9z"></path>
</g>
<g>
	<path class="st2" d="M395,396.6l13.3-5.9l19.2,21l0.5,0.6c-24.9,21.5-48.6,42.1-48.6,42.1l-34.5-10.7l6.1-27.6L395,396.6z"></path>
</g>
<g>
	<path class="st2" d="M425.8,270c9.3,16.4,4.6,30.8-0.1,33.5c-2.3,1.5-5.1,1.9-7.7,1.2c-3.4-0.8-7.6-3.5-12.9-9.6   c-4.7-5.4-12.1-1-16.3,2.4c-1,0.8-2.6,0.7-3.4-0.4c-0.2-0.3-0.4-0.6-0.5-1c-0.6-2.6-1.9-5.5-4.6-5.8c-7.9-0.9-4.7,12.2-8.7,18.4   s-10.5,3.9-15.8,0.6c-12.7-16.7-10.1-45.9,4.5-53.4c6.5-3.3,14-2.2,17-0.5c1.5,0.8,3.3,0.3,4.1-1.2c0.1-0.2,0.2-0.4,0.3-0.6   c1.2-4,5.4-7.2,12-7.5C404.7,245.8,419.5,259,425.8,270z"></path>
</g>
<g>
	<path class="st3" d="M441.7,479.1c-13.6-22.8-40.7-19.9-53.6-22.3l-8.8-2.4L355,479.1c0,0,18.7,10.5,25.2,12.3   c8.4,2.2,20.5-4,32.4,7.6c5.4,5.3,4.3,9.5,8.3,10c4.3,0.5,5.4-2,5.2-5.4c1.8,4.1,8.9,1.6,6.8-4.7c2.1,4.8,9.3,2.3,7.2-5.1   c-1.7-5.7-5.1-10.8-9.6-14.7L441.7,479.1L441.7,479.1z"></path>
</g>
<g>
	<path class="st3" d="M417.9,304.8v0.1c0,0-9.7,24.3-16.3,27.8s-12.8-0.4-16.8-0.9s-18,12.8-18,12.8L338.2,324l6.3-3.9   c3.7-2.2,6.9-5.1,9.6-8.5l1.7-2.1c5.2,3.3,11.8,5.5,15.8-0.6s0.9-19.2,8.7-18.4c2.7,0.3,4,3.2,4.6,5.8c0.3,1.3,1.6,2.1,2.9,1.8   c0.3-0.1,0.7-0.2,1-0.5c4.2-3.4,11.6-7.8,16.3-2.4C410.3,301.2,414.5,303.9,417.9,304.8z"></path>
</g>
<g>
	<path class="st2" d="M410.5,694.2v41h-79.2l9.8-177.6c0.4-7.4-5.3-13.7-12.6-14.1c-0.2,0-0.5,0-0.7,0h-93.7   c-11.3,0-21-8.2-22.8-19.3h199.4V694.2z"></path>
</g>
<g>
	<path class="st2" d="M231,479.1h-21.1c8.6-19.4,24.6-60.5,45.8-93.1c50.3-77.2,60.6-66.7,82.5-62l28.6,20.5l-11.9,53.6l-4,17.9   l-6.1,27.6l34.5,10.7L355,479.1H231z"></path>
</g>
<g>
	<path class="st1" d="M231,479.1h20.6c-6.9,0-15.5,2.4-23.1,4.4L231,479.1z"></path>
</g>
<g>
	<path class="st1" d="M426.7,515.3c0,0-0.1,0-0.1,0c-0.4-0.1-0.7-0.5-0.7-0.9c0-0.1,2-13.8-7.5-22.1c-9.7-8.4-18.9-9.9-19-9.9   c-0.4-0.1-0.7-0.5-0.7-0.9c0.1-0.4,0.5-0.7,0.9-0.7c0.4,0.1,9.7,1.5,19.8,10.3c10.2,8.9,8.2,22.9,8.1,23.5   C427.4,515,427.1,515.3,426.7,515.3z"></path>
</g>
<g>
	<path class="st1" d="M434,508.3c0,0-0.1,0-0.1,0c-0.4-0.1-0.7-0.5-0.7-0.9c0-0.1,2-13.8-7.5-22.1c-9.7-8.5-18.9-9.9-19-9.9   c-0.4-0.1-0.7-0.5-0.7-0.9c0.1-0.4,0.5-0.7,0.9-0.7c0.4,0.1,9.7,1.5,19.8,10.3c10.2,8.9,8.2,22.9,8.1,23.5   C434.7,508,434.4,508.3,434,508.3z"></path>
</g>
<g>
	<path class="st1" d="M441.1,502.5c0,0-0.1,0-0.1,0c-0.4-0.1-0.7-0.5-0.7-0.9c0-0.1,2-13.7-7.5-22.1c-9.7-8.5-18.9-9.9-19-9.9   c-0.4-0.1-0.7-0.5-0.7-0.9s0.5-0.7,0.9-0.7c0.4,0.1,9.7,1.5,19.8,10.3c10.2,8.9,8.2,22.9,8.1,23.5   C441.8,502.2,441.5,502.5,441.1,502.5z"></path>
</g>
<g>
	<path class="st1" d="M562.9,523.7c-0.4,0-0.7-0.3-0.8-0.7c-1-5.2-3.7-10.1-7.6-13.7c-9.7-8.4-18.8-9.9-18.9-9.9   c-0.4-0.1-0.7-0.5-0.7-0.9c0.1-0.4,0.5-0.7,0.9-0.7c0.4,0.1,9.7,1.5,19.8,10.3c4.2,3.8,7.1,9,8.2,14.6c0.1,0.4-0.2,0.9-0.6,0.9   C563,523.7,562.9,523.7,562.9,523.7z"></path>
</g>
<g>
	<path class="st1" d="M570.3,521c-0.4,0-0.8-0.3-0.8-0.8c-0.2-5.2-1.7-12.5-7.7-17.8c-9.7-8.4-18.9-9.9-19-9.9   c-0.4-0.1-0.7-0.5-0.7-0.9s0.5-0.7,0.9-0.7c0.4,0.1,9.7,1.5,19.8,10.3c6.5,5.7,8.1,13.4,8.3,18.9   C571.2,520.6,570.8,520.9,570.3,521C570.4,521,570.3,521,570.3,521z"></path>
</g>
<g>
	<path class="st1" d="M577.3,519.5c0,0-0.1,0-0.1,0c-0.4-0.1-0.7-0.5-0.7-0.9c0-0.1,2-13.8-7.5-22.1c-9.7-8.4-18.9-9.9-19-9.9   c-0.4-0.1-0.7-0.5-0.7-0.9s0.5-0.7,0.9-0.7c0.4,0.1,9.7,1.5,19.8,10.3c10.2,8.9,8.2,22.9,8.1,23.5   C578,519.3,577.7,519.5,577.3,519.5z"></path>
</g>
<g>
	<polygon class="st3" points="650.3,358.9 641.7,410.5 602,410.5 622.7,358.8 622.8,358.8 649.8,358.8  "></polygon>
</g>
<g>
	<path class="st1" d="M592,308.4c0,0-10.5,3.6-12.2,17.3l6.9,9.3l18.2-16.9l-9.3-10.3L592,308.4z"></path>
</g>
<g>
	<path class="st0" d="M584.3,314.1c1.2,1.7,2.5,3.3,4,4.7c3.8,3.7,10,8.3,20.1,12c1.2-2,2.6-3.8,4.4-5.4   c-7.1-1.8-13.6-5.6-18.7-10.9c-1.2-1.3-2.3-2.7-3.3-4.2c-0.7-1.2-1.9-2.1-3.3-2.4c-2.9-0.5-5.3,1.7-3.5,5.7   C584,313.7,584.2,313.9,584.3,314.1z"></path>
</g>
<g>
	<path class="st0" d="M583.6,326.8c-0.5-0.4-1-0.8-1.5-1.1c0.8,0.7,1.7,1.5,2.7,2.3c5.7,4.6,12.3,8,19.4,10l0,0c0.1,0,0.2,0,0.5-0.3   c0.3-0.4,0.6-0.8,0.9-1.3c0.6-1,1.2-2.5,2.1-4c-13.9-5.1-20.8-12-23.8-16.1c-1.1-1.6-3.2-2.1-4.9-1.1c-0.2,0.1-0.4,0.3-0.6,0.5   C577.1,316.9,576.1,320.6,583.6,326.8z"></path>
</g>
<g>
	<path class="st0" d="M645.4,323c-8.7-4.3-18.2-7.8-21.5-14.6s-12.6,0.7-1.3,11.7c-5.9-1.3-13.8-3.7-19.1-7.8   c-4.7-3.7-5.9-8-9.4-7.2c-0.9,0.2-1.6,0.8-2,1.6c-0.4,1.1-0.3,2.4,0.4,3.3c0.8,1.2,1.7,2.3,2.7,3.4c3.6,4,9.6,8.5,19.1,10.8   c1.3-0.9,2.8-1.6,4.3-2c0.4-0.1,0.9,0.1,1,0.6c0,0,0,0,0,0c0.1,0.4-0.1,0.9-0.5,1c0,0,0,0,0,0c-3,0.8-5.6,2.6-7.4,5   c-1.6,2.1-2.9,4.3-4,6.6c-0.4,1-1,1.9-1.5,2.7c1,0.1,1.9,0.2,2.9,0.2c5.1,0,10.2-1.5,14.7-3s8.5-3,11.7-3c0.9,0,1.8,0.2,2.7,0.5   c0.8,0.4,1.5,1,2,1.8l0,0c0.2,0.4,0.1,0.9-0.3,1.1c0,0,0,0,0,0c-0.4,0.2-0.9,0.1-1.1-0.3c0,0,0,0,0,0c-0.3-0.5-0.8-1-1.3-1.2   c-0.6-0.3-1.3-0.4-2-0.4c-2.7,0-6.6,1.4-11.2,3s-9.8,3-15.2,3c-1.8,0-3.5-0.2-5.3-0.5l0,0c-9-2.6-17.2-7.3-24-13.7   c-1.1-1.1-2.9-1.1-4,0c0,0,0,0,0,0l-0.2,0.3c-0.8,1.8-0.5,3.9,0.8,5.4c16.4,19.7,49.5,19.5,49.5,19.5l-3.2,7.9h27.1l0.5,0.1l3.3-20   C654.4,330.6,650.3,325.5,645.4,323z"></path>
</g>
<g>
	<path class="st3" d="M744.6,731.4h-45.1c-0.9,2.2-6.5,5.2-14.2,8.5c2.5,1.8,8.4,7.2,12.4,18.6c0.1,0.4-0.1,0.9-0.5,1   c-0.4,0.1-0.9-0.1-1-0.5c0,0,0,0,0,0c-4.4-12.7-11.3-17.5-12.6-18.4c-3.2,1.4-6.8,2.7-10.4,4.1c1.8,1.6,5.6,5.8,7.9,14.3   c0.1,0.4-0.1,0.9-0.5,1c0,0,0,0,0,0c-0.4,0.1-0.9-0.1-1-0.5c0,0,0,0,0,0c-2.6-9.8-7.2-13.4-8.1-14c-3.4,1.2-6.8,2.5-10.1,3.6   c1.5,1.6,4.1,5,6.1,11.1c0.1,0.4-0.1,0.9-0.5,1c-0.4,0.1-0.9-0.1-1-0.5c-2.2-6.7-5.1-9.9-6.2-11c-6.7,2.3-12.9,4.4-17.3,5.8   c-9.4,3-16,11.3-16.8,21.1h130C755.4,748.3,744.6,731.4,744.6,731.4z"></path>
</g>
<g>
	<path class="st1" d="M665.8,760.7c0.1,0.4,0.6,0.6,1,0.5c0.4-0.1,0.6-0.6,0.5-1c-2-6.1-4.6-9.5-6.1-11.1l-1.7,0.6   C660.8,750.8,663.6,753.9,665.8,760.7z"></path>
</g>
<g>
	<path class="st1" d="M679.5,759.5c0.1,0.4,0.5,0.7,1,0.6c0,0,0,0,0,0c0.4-0.1,0.7-0.5,0.6-1c0,0,0,0,0,0c-2.2-8.5-6-12.7-7.9-14.3   l-1.8,0.7C672.2,746,676.9,749.6,679.5,759.5z"></path>
</g>
<g>
	<path class="st1" d="M696.2,759.1c0.1,0.4,0.6,0.6,1,0.5c0,0,0,0,0,0c0.4-0.1,0.6-0.6,0.5-1c-4-11.4-9.9-16.8-12.4-18.6l-1.7,0.7   C684.8,741.5,691.7,746.4,696.2,759.1z"></path>
</g>
<g>
	<path class="st2" d="M634.8,735.2h115.9c-10.8-116.3-108.5-133-101.8-181.6l-2.7,0.1"></path>
</g>
<g>
	<path class="st4" d="M717.1,313.1l-17,0.2c0,0,0.7,9.9,8.5,9.3C715.5,322,717.1,313.1,717.1,313.1z"></path>
</g>
<g>
	<path class="st2" d="M717.2,313.9l-0.1-0.5v-0.2v-0.1V313l0,0l-0.1-0.2c-1.1-0.4-2.2-0.6-3.3-0.8c-1.4-0.2-2.7-0.3-4.1-0.4   c-1.5-0.1-3,0.1-4.5,0.5c-1.4,0.4-2.8,0.7-4.3,0.9l-0.7,0.1l0.1,0.6c0.2,1.2,0.5,2.2,0.7,3.4c0.3,1.2,0.7,2.3,1.2,3.4   c0.6,1.2,1.6,2.2,2.9,2.8c1.3,0.6,2.7,0.9,4.1,0.8c1.4,0,2.8-0.4,4-1.2c1.1-0.7,2.1-1.8,2.8-3c0.6-1.1,1-2.3,1.2-3.5   c0.1-0.6,0.1-1.2,0.1-1.8C717.3,314.5,717.3,314.2,717.2,313.9z M716.2,313.6l-0.5,0.7c-0.3,0.5-0.6,0.9-0.9,1.3   c-0.6,0.8-1.2,1.5-1.9,2.2c-1.1,1.1-2.6,1.9-4.2,2.3c-1.6,0.3-3.3-0.1-4.5-1.2c-1.4-1.2-2.3-2.8-2.6-4.5c0.8,0.1,1.4,0.4,2.3,0.6   c1.4,0.2,2.9,0.2,4.3,0c1.2-0.2,2.5-0.4,3.9-0.7s2.8-0.7,4.5-1.1l-0.1,0.1L716.2,313.6z"></path>
</g>
<g>
	<path class="st2" d="M708.8,324.7c-1.3,0-2.7-0.3-3.9-0.9c-1.3-0.7-2.4-1.7-3.1-3.1c-0.6-1.1-1-2.3-1.3-3.5   c-0.3-1.1-0.5-2.2-0.7-3.4l-0.1-0.6c0-0.1,0-0.3,0.1-0.4c0.1-0.1,0.2-0.2,0.3-0.2l0.7-0.1c1.4-0.2,2.8-0.5,4.2-0.9   c1.5-0.4,3.1-0.5,4.6-0.5c1.4,0,2.8,0.2,4.2,0.4c1.2,0.2,2.3,0.4,3.4,0.8c0.2,0.1,0.3,0.2,0.3,0.3l0.1,0.2c0,0,0,0.1,0,0.1v0.4   l0.1,0.4c0.1,0.3,0.1,0.6,0.1,1c0,0.7,0,1.3-0.1,1.9c-0.2,1.3-0.6,2.5-1.3,3.7c-0.7,1.3-1.7,2.3-2.9,3.1c-1.3,0.8-2.8,1.2-4.3,1.3   C709.1,324.7,708.9,324.7,708.8,324.7z M700.8,313.6L700.8,313.6c0.2,1.3,0.5,2.4,0.7,3.4c0.3,1.1,0.7,2.2,1.2,3.3   c0.6,1.1,1.5,2,2.6,2.6c1.2,0.6,2.5,0.9,3.8,0.8c1.3,0,2.6-0.4,3.8-1.1c1.1-0.7,2-1.7,2.6-2.8c0.6-1,1-2.2,1.2-3.3   c0.1-0.6,0.1-1.1,0.1-1.7c0-0.3-0.1-0.5-0.1-0.8c0,0,0,0,0,0l0-0.2l-0.6,0.9c-0.3,0.4-0.6,0.8-0.9,1.2c-0.6,0.8-1.2,1.6-1.9,2.3   c-1.2,1.2-2.7,2-4.4,2.4c-1.8,0.4-3.6-0.1-5-1.3c-1.5-1.2-2.5-2.9-2.8-4.8c0-0.2,0-0.3,0.1-0.4c0.1-0.1,0.3-0.2,0.4-0.1   c0.5,0.1,0.9,0.2,1.2,0.3c0.3,0.1,0.7,0.2,1.1,0.3c1.3,0.2,2.7,0.2,4.1,0c1.1-0.1,2.3-0.4,3.9-0.7c1.2-0.3,2.3-0.6,3.6-0.9   c-0.6-0.2-1.3-0.3-1.9-0.4c-1.3-0.2-2.7-0.3-4.1-0.4c-1.5,0-2.9,0.1-4.3,0.5c-1.4,0.4-2.9,0.7-4.3,0.9L700.8,313.6z M702.3,315.1   c0.4,1.4,1.2,2.6,2.3,3.5c1.1,1,2.7,1.4,4.1,1.1c1.5-0.3,2.8-1.1,3.9-2.2c0.7-0.7,1.3-1.4,1.8-2.1c0.3-0.4,0.6-0.8,0.8-1.2l0.1-0.2   c-1.1,0.3-2.2,0.5-3.2,0.8c-1.5,0.4-2.8,0.6-3.9,0.7c-1.5,0.2-2.9,0.2-4.4,0c-0.5-0.1-0.9-0.2-1.2-0.3   C702.5,315.1,702.4,315.1,702.3,315.1z"></path>
</g>
<g>
	<path class="st3" d="M408.6,323.7c2.1,0.9,4.4,0.4,6-1.2c2.8-2.7,0.3-10.8,0.3-10.8l-5.3-4.1"></path>
</g>
<g>
	<path class="st1" d="M355,479.9c-0.1,0-0.1,0-0.2,0c-0.2,0-16-4.8-30.7-21.8c-13.5-15.6-28.7-45.1-24.7-96.9c0-0.4,0.4-0.8,0.9-0.7   c0.4,0,0.8,0.4,0.7,0.9c-2.2,28.3,0.2,67.8,24.3,95.7c14.4,16.7,29.9,21.3,30,21.3c0.4,0.1,0.7,0.6,0.5,1   C355.7,479.7,355.3,479.9,355,479.9z"></path>
</g>
<g>
	<path class="st1" d="M496.1,463.5c-0.1,0-0.3,0-0.4-0.1l-67.2-35.9c-0.4-0.2-0.5-0.7-0.3-1.1c0.2-0.4,0.7-0.5,1.1-0.3l67.2,35.9   c0.4,0.2,0.5,0.7,0.3,1.1C496.7,463.4,496.4,463.5,496.1,463.5z"></path>
</g>
<g>
	<path class="st1" d="M504.6,443.1c-0.1,0-0.3,0-0.4-0.1c-0.4-0.2-0.5-0.7-0.3-1.1c0.3-0.5,27.6-45.8,36.1-57.1   c0.3-0.4,0.8-0.4,1.1-0.2c0.4,0.3,0.4,0.8,0.2,1.1c-8.5,11.2-35.8,56.5-36.1,56.9C505.2,443,504.9,443.1,504.6,443.1z"></path>
</g>
<g>
	<path class="st1" d="M780.2,433.6c-0.3,0-0.6-0.1-0.7-0.4c-4.4-7.8-17-28.4-22.9-29.6c-0.4-0.1-0.7-0.5-0.6-0.9   c0.1-0.4,0.5-0.7,0.9-0.6c3.3,0.7,8.4,6.1,15,15.9c4.9,7.2,8.9,14.4,8.9,14.5c0.2,0.4,0.1,0.9-0.3,1.1   C780.4,433.6,780.3,433.6,780.2,433.6z"></path>
</g>
<g>
	<path class="st1" d="M669.5,410.5c0.2-1.6,2.1-15.5,14.4-24.1c8.6-6,10.3-11.9,10.3-15.5c0-1.2-0.2-2.4-0.6-3.6   c-0.2-0.4-0.7-0.6-1-0.4c-0.4,0.2-0.6,0.7-0.4,1.1l0,0c0.4,0.9,0.5,1.9,0.5,2.9c0,3.1-1.4,8.4-9.6,14.2   c-13.8,9.6-15.1,25.3-15.1,25.4"></path>
</g>
<g>
	<path class="st1" d="M332.7,20.6v184c0,11.3-9.2,20.6-20.5,20.6c0,0,0,0-0.1,0H20.5C9.2,225.2,0,216,0,204.6c0,0,0-0.1,0-0.1v-184   C0,9.2,9.2,0,20.5,0c0,0,0,0,0,0h291.6C323.5,0,332.7,9.2,332.7,20.6C332.7,20.6,332.7,20.6,332.7,20.6"></path>
</g>
<g>
	<path class="st3" d="M34.3,30.2h264.1c4,0,7.2,3.2,7.2,7.2v156.2c0,4-3.2,7.2-7.2,7.2H34.3c-4,0-7.2-3.2-7.2-7.2V37.4   C27.1,33.4,30.3,30.2,34.3,30.2z"></path>
</g>
<g>
	<path class="st1" d="M255.6,165.1H77c-3,0.2-5.6-2.1-5.8-5.2s2.1-5.6,5.2-5.8c0.2,0,0.4,0,0.7,0h178.6c3,0.2,5.4,2.8,5.2,5.8   C260.6,162.7,258.4,164.9,255.6,165.1z"></path>
</g>
<g>
	<path class="st1" d="M272.6,188H60c-3-0.2-5.4-2.8-5.2-5.8c0.2-2.8,2.4-5,5.2-5.2h212.6c3-0.2,5.6,2.1,5.8,5.2s-2.1,5.6-5.2,5.8   C273.1,188,272.9,188,272.6,188z"></path>
</g>
<g>
	<path class="st2" d="M1001.2,50H848.5c-2.6-0.1-4.5-2.3-4.4-4.9c0.1-2.4,2-4.3,4.4-4.4h152.7c2.6,0.1,4.5,2.3,4.4,4.9   C1005.5,48,1003.6,49.9,1001.2,50z"></path>
</g>
<g>
	<path class="st2" d="M1001.2,74H848.5c-2.6-0.1-4.5-2.3-4.4-4.9c0.1-2.4,2-4.3,4.4-4.4h152.7c2.6,0.1,4.5,2.3,4.4,4.9   C1005.5,72,1003.6,73.9,1001.2,74z"></path>
</g>
<g>
	<path class="st2" d="M1001.2,98.1H848.5c-2.6-0.1-4.5-2.3-4.4-4.9c0.1-2.4,2-4.3,4.4-4.4h152.7c2.6,0.1,4.5,2.3,4.4,4.9   C1005.5,96,1003.6,98,1001.2,98.1z"></path>
</g>
<g>
	<path class="st2" d="M1001.2,122.1H848.5c-2.6-0.1-4.5-2.3-4.4-4.9c0.1-2.4,2-4.3,4.4-4.4h152.7c2.6,0.1,4.5,2.3,4.4,4.9   C1005.5,120.1,1003.6,122,1001.2,122.1z"></path>
</g>
<g>
	<path class="st2" d="M1001.2,146.2H848.5c-2.6,0-4.6-2.1-4.6-4.6c0-2.6,2.1-4.6,4.6-4.6h152.7c2.6,0,4.6,2.1,4.6,4.6   C1005.8,144.1,1003.8,146.2,1001.2,146.2z"></path>
</g>
<g>
	<path class="st2" d="M1001.2,170.3H848.5c-2.6,0-4.6-2.1-4.6-4.6c0-2.6,2.1-4.6,4.6-4.6h152.7c2.6,0,4.6,2.1,4.6,4.6   C1005.8,168.2,1003.8,170.3,1001.2,170.3z"></path>
</g>
<g>
	<path class="st2" d="M1001.2,194.3H848.5c-2.6-0.1-4.5-2.3-4.4-4.9c0.1-2.4,2-4.3,4.4-4.4h152.7c2.6,0.1,4.5,2.3,4.4,4.9   C1005.5,192.3,1003.6,194.2,1001.2,194.3z"></path>
</g>
<g>
	<path class="st2" d="M981.2,218.4H848.5c-2.6-0.1-4.5-2.3-4.4-4.9c0.1-2.4,2-4.3,4.4-4.4h132.7c2.6-0.1,4.7,1.9,4.9,4.4   c0.1,2.6-1.9,4.7-4.4,4.9C981.5,218.4,981.4,218.4,981.2,218.4z"></path>
</g>
<g>
	<path class="st2" d="M951,242.4H848.5c-2.6-0.1-4.5-2.3-4.4-4.9c0.1-2.4,2-4.3,4.4-4.4H951c2.6-0.1,4.7,1.9,4.9,4.4   c0.1,2.6-1.9,4.7-4.4,4.9C951.3,242.4,951.1,242.4,951,242.4z"></path>
</g>
<g class="st5">
	<path class="st2" d="M478.2,216.5c1,0,2,0.2,2.8,0.5c0.9,0.4,1.6,0.8,2.2,1.5s1.1,1.4,1.5,2.2s0.5,1.8,0.5,2.8c0,1-0.2,2-0.5,2.8   c-0.4,0.9-0.8,1.6-1.5,2.2s-1.4,1.1-2.2,1.5c-0.9,0.4-1.8,0.5-2.8,0.5s-2-0.2-2.8-0.5c-0.9-0.4-1.6-0.8-2.2-1.5   c-0.6-0.6-1.1-1.4-1.5-2.2c-0.4-0.9-0.5-1.8-0.5-2.8c0-1,0.2-2,0.5-2.8c0.4-0.9,0.8-1.6,1.5-2.2c0.6-0.6,1.4-1.1,2.2-1.5   C476.3,216.7,477.2,216.5,478.2,216.5z M478.2,227.3c0.4,0,0.9-0.1,1.3-0.3c0.4-0.2,0.8-0.4,1.1-0.7c0.3-0.3,0.6-0.7,0.8-1.2   c0.2-0.5,0.3-1,0.3-1.6s-0.1-1.1-0.3-1.6c-0.2-0.5-0.4-0.9-0.8-1.2c-0.3-0.3-0.7-0.6-1.1-0.7c-0.4-0.2-0.9-0.3-1.3-0.3   c-0.5,0-0.9,0.1-1.3,0.3c-0.4,0.2-0.8,0.4-1.1,0.7c-0.3,0.3-0.6,0.7-0.8,1.2c-0.2,0.5-0.3,1-0.3,1.6s0.1,1.1,0.3,1.6   c0.2,0.5,0.4,0.9,0.8,1.2c0.3,0.3,0.7,0.6,1.1,0.7C477.3,227.2,477.8,227.3,478.2,227.3z"></path>
</g>
<g class="st5">
	<path class="st6" d="M478.2,216.5c1,0,2,0.2,2.8,0.5c0.9,0.4,1.6,0.8,2.2,1.5s1.1,1.4,1.5,2.2s0.5,1.8,0.5,2.8c0,1-0.2,2-0.5,2.8   c-0.4,0.9-0.8,1.6-1.5,2.2s-1.4,1.1-2.2,1.5c-0.9,0.4-1.8,0.5-2.8,0.5s-2-0.2-2.8-0.5c-0.9-0.4-1.6-0.8-2.2-1.5   c-0.6-0.6-1.1-1.4-1.5-2.2c-0.4-0.9-0.5-1.8-0.5-2.8c0-1,0.2-2,0.5-2.8c0.4-0.9,0.8-1.6,1.5-2.2c0.6-0.6,1.4-1.1,2.2-1.5   C476.3,216.7,477.2,216.5,478.2,216.5z M478.2,227.3c0.4,0,0.9-0.1,1.3-0.3c0.4-0.2,0.8-0.4,1.1-0.7c0.3-0.3,0.6-0.7,0.8-1.2   c0.2-0.5,0.3-1,0.3-1.6s-0.1-1.1-0.3-1.6c-0.2-0.5-0.4-0.9-0.8-1.2c-0.3-0.3-0.7-0.6-1.1-0.7c-0.4-0.2-0.9-0.3-1.3-0.3   c-0.5,0-0.9,0.1-1.3,0.3c-0.4,0.2-0.8,0.4-1.1,0.7c-0.3,0.3-0.6,0.7-0.8,1.2c-0.2,0.5-0.3,1-0.3,1.6s0.1,1.1,0.3,1.6   c0.2,0.5,0.4,0.9,0.8,1.2c0.3,0.3,0.7,0.6,1.1,0.7C477.3,227.2,477.8,227.3,478.2,227.3z"></path>
</g>
<g class="st5">
	<path class="st3" d="M770,132.1h3.9l7.1,11.8h0.2l-0.2-3.4v-8.4h3.3v17.6h-3.5l-7.5-12.4h-0.2l0.2,3.4v9.1H770V132.1z"></path>
</g>
<g class="st5">
	<path class="st7" d="M770,132.1h3.9l7.1,11.8h0.2l-0.2-3.4v-8.4h3.3v17.6h-3.5l-7.5-12.4h-0.2l0.2,3.4v9.1H770V132.1z"></path>
</g>
<g class="st5">
	<path class="st2" d="M654.1,262.3h3.7l6.8,11.4h0.2l-0.2-3.3v-8.1h3.2v17h-3.4l-7.2-12h-0.2l0.2,3.3v8.8h-3.2V262.3z"></path>
</g>
<g class="st5">
	<path class="st8" d="M654.1,262.3h3.7l6.8,11.4h0.2l-0.2-3.3v-8.1h3.2v17h-3.4l-7.2-12h-0.2l0.2,3.3v8.8h-3.2V262.3z"></path>
</g>
<g class="st5">
	<path class="st3" d="M824.4,63.8h-1.7v-2.2h1.7v-3h2.6v3h2.4v2.2H827v3.9c0,0.2,0,0.5,0.1,0.6c0,0.2,0.1,0.4,0.3,0.5   c0.2,0.2,0.5,0.3,0.8,0.3c0.2,0,0.4,0,0.5-0.1c0.1,0,0.3-0.1,0.4-0.2l0.7,2.3c-0.3,0.1-0.6,0.3-1,0.3c-0.4,0.1-0.7,0.1-1.2,0.1   c-0.5,0-0.9-0.1-1.3-0.2c-0.4-0.2-0.7-0.4-1-0.6c-0.6-0.6-0.9-1.5-0.9-2.6V63.8z"></path>
</g>
<g class="st5">
	<path class="st9" d="M824.4,63.8h-1.7v-2.2h1.7v-3h2.6v3h2.4v2.2H827v3.9c0,0.2,0,0.5,0.1,0.6c0,0.2,0.1,0.4,0.3,0.5   c0.2,0.2,0.5,0.3,0.8,0.3c0.2,0,0.4,0,0.5-0.1c0.1,0,0.3-0.1,0.4-0.2l0.7,2.3c-0.3,0.1-0.6,0.3-1,0.3c-0.4,0.1-0.7,0.1-1.2,0.1   c-0.5,0-0.9-0.1-1.3-0.2c-0.4-0.2-0.7-0.4-1-0.6c-0.6-0.6-0.9-1.5-0.9-2.6V63.8z"></path>
</g>
<g class="st5">
	<path class="st0" d="M457.5,263.3l2.4-13.4l3.6,0.6l-2.4,13.4L457.5,263.3z M462,248.5c-0.3-0.1-0.6-0.2-0.9-0.3   c-0.3-0.2-0.5-0.4-0.7-0.6c-0.2-0.2-0.3-0.5-0.4-0.8c-0.1-0.3-0.1-0.6,0-0.9c0.1-0.3,0.2-0.6,0.3-0.9c0.2-0.3,0.4-0.5,0.6-0.6   c0.2-0.2,0.5-0.3,0.8-0.4c0.3-0.1,0.6-0.1,0.9,0c0.6,0.1,1.1,0.4,1.5,1c0.4,0.5,0.5,1.1,0.4,1.8c-0.1,0.6-0.4,1.1-1,1.5   S462.6,248.6,462,248.5z"></path>
</g>
<g class="st5">
	<path class="st10" d="M457.5,263.3l2.4-13.4l3.6,0.6l-2.4,13.4L457.5,263.3z M462,248.5c-0.3-0.1-0.6-0.2-0.9-0.3   c-0.3-0.2-0.5-0.4-0.7-0.6c-0.2-0.2-0.3-0.5-0.4-0.8c-0.1-0.3-0.1-0.6,0-0.9c0.1-0.3,0.2-0.6,0.3-0.9c0.2-0.3,0.4-0.5,0.6-0.6   c0.2-0.2,0.5-0.3,0.8-0.4c0.3-0.1,0.6-0.1,0.9,0c0.6,0.1,1.1,0.4,1.5,1c0.4,0.5,0.5,1.1,0.4,1.8c-0.1,0.6-0.4,1.1-1,1.5   S462.6,248.6,462,248.5z"></path>
</g>
<g class="st5">
	<path class="st0" d="M332,70.2l4.6,1.3l-2.1,7l-1.2,3l0.3,0.1c0.7-0.7,1.6-1.1,2.7-1.4c1.1-0.3,2.2-0.2,3.3,0.1   c2.2,0.6,3.7,1.8,4.3,3.4c0.7,1.6,0.7,3.6,0,5.8l-3,10.4l-4.6-1.3l2.9-9.8c0.3-1.2,0.3-2.2,0-3c-0.4-0.8-1.1-1.3-2.1-1.6   c-0.6-0.2-1.2-0.2-1.8-0.1c-0.6,0.1-1.1,0.4-1.6,0.7c-0.5,0.4-0.9,0.8-1.2,1.4c-0.4,0.6-0.6,1.2-0.8,1.9l-2.5,8.3l-4.6-1.3   L332,70.2z"></path>
</g>
<g class="st5">
	<path class="st11" d="M332,70.2l4.6,1.3l-2.1,7l-1.2,3l0.3,0.1c0.7-0.7,1.6-1.1,2.7-1.4c1.1-0.3,2.2-0.2,3.3,0.1   c2.2,0.6,3.7,1.8,4.3,3.4c0.7,1.6,0.7,3.6,0,5.8l-3,10.4l-4.6-1.3l2.9-9.8c0.3-1.2,0.3-2.2,0-3c-0.4-0.8-1.1-1.3-2.1-1.6   c-0.6-0.2-1.2-0.2-1.8-0.1c-0.6,0.1-1.1,0.4-1.6,0.7c-0.5,0.4-0.9,0.8-1.2,1.4c-0.4,0.6-0.6,1.2-0.8,1.9l-2.5,8.3l-4.6-1.3   L332,70.2z"></path>
</g>
<g class="st5">
	<path class="st3" d="M362.1,82.7l10.8-2.8l0.8,3l-7.6,2l1.1,4.1l6.8-1.8l0.8,3l-6.8,1.8l1.8,6.8l-3.2,0.8L362.1,82.7z"></path>
</g>
<g class="st5">
	<path class="st12" d="M362.1,82.7l10.8-2.8l0.8,3l-7.6,2l1.1,4.1l6.8-1.8l0.8,3l-6.8,1.8l1.8,6.8l-3.2,0.8L362.1,82.7z"></path>
</g>
<g class="st5">
	<path class="st3" d="M439.9,256.7l5.3,1.7c0.6,0.2,1.1,0.5,1.5,0.8c0.4,0.3,0.8,0.7,1.1,1.2c0.3,0.4,0.4,0.9,0.5,1.4   c0.1,0.5,0,1-0.1,1.5c-0.2,0.7-0.6,1.3-1.1,1.6c-0.5,0.4-1.1,0.6-1.7,0.7l0,0.2c0.6,0.5,1,1.1,1.3,1.7c0.2,0.7,0.2,1.4,0,2.2   c-0.2,0.6-0.5,1.1-0.9,1.5c-0.4,0.4-0.8,0.7-1.3,0.9c-0.5,0.2-1.1,0.3-1.7,0.3c-0.6,0-1.2-0.1-1.8-0.3l-5.5-1.8L439.9,256.7z    M441.7,269.8c0.6,0.2,1.2,0.2,1.6,0c0.4-0.2,0.8-0.6,0.9-1.1c0.2-0.5,0.1-1-0.1-1.4c-0.2-0.5-0.7-0.8-1.4-1l-2.8-0.9l-1.1,3.5   L441.7,269.8z M443.2,264c0.6,0.2,1.1,0.2,1.5,0c0.4-0.2,0.7-0.5,0.9-1s0.1-0.9-0.1-1.3c-0.2-0.4-0.6-0.7-1.2-0.9l-2.6-0.9   l-1.1,3.3L443.2,264z"></path>
</g>
<g class="st5">
	<path class="st9" d="M439.9,256.7l5.3,1.7c0.6,0.2,1.1,0.5,1.5,0.8c0.4,0.3,0.8,0.7,1.1,1.2c0.3,0.4,0.4,0.9,0.5,1.4   c0.1,0.5,0,1-0.1,1.5c-0.2,0.7-0.6,1.3-1.1,1.6c-0.5,0.4-1.1,0.6-1.7,0.7l0,0.2c0.6,0.5,1,1.1,1.3,1.7c0.2,0.7,0.2,1.4,0,2.2   c-0.2,0.6-0.5,1.1-0.9,1.5c-0.4,0.4-0.8,0.7-1.3,0.9c-0.5,0.2-1.1,0.3-1.7,0.3c-0.6,0-1.2-0.1-1.8-0.3l-5.5-1.8L439.9,256.7z    M441.7,269.8c0.6,0.2,1.2,0.2,1.6,0c0.4-0.2,0.8-0.6,0.9-1.1c0.2-0.5,0.1-1-0.1-1.4c-0.2-0.5-0.7-0.8-1.4-1l-2.8-0.9l-1.1,3.5   L441.7,269.8z M443.2,264c0.6,0.2,1.1,0.2,1.5,0c0.4-0.2,0.7-0.5,0.9-1s0.1-0.9-0.1-1.3c-0.2-0.4-0.6-0.7-1.2-0.9l-2.6-0.9   l-1.1,3.3L443.2,264z"></path>
</g>
<g class="st5">
	<path class="st3" d="M427.8,132.4c0.2,0.1,0.3,0.2,0.5,0.3c0.2,0.1,0.3,0.1,0.6,0.2c0.9,0.1,1.5-0.4,1.7-1.7l2.6-17l4.1,0.6   l-2.6,17.1c-0.2,1-0.4,1.9-0.8,2.5c-0.4,0.7-0.8,1.2-1.4,1.6c-0.5,0.4-1.1,0.6-1.7,0.7c-0.6,0.1-1.3,0.1-2,0   c-0.5-0.1-1-0.2-1.4-0.3c-0.4-0.1-0.8-0.3-1.1-0.5L427.8,132.4z M435.4,112.4c-0.4-0.1-0.7-0.2-1-0.4c-0.3-0.2-0.6-0.4-0.8-0.7   c-0.2-0.3-0.4-0.6-0.4-0.9c-0.1-0.3-0.1-0.7,0-1.1c0.1-0.4,0.2-0.7,0.4-1c0.2-0.3,0.4-0.5,0.7-0.7c0.3-0.2,0.6-0.3,0.9-0.4   c0.3-0.1,0.7-0.1,1.1,0c0.7,0.1,1.3,0.5,1.8,1.1c0.4,0.6,0.6,1.3,0.5,2c-0.1,0.7-0.5,1.3-1.1,1.7   C436.8,112.4,436.2,112.5,435.4,112.4z"></path>
</g>
<g class="st5">
	<path class="st13" d="M427.8,132.4c0.2,0.1,0.3,0.2,0.5,0.3c0.2,0.1,0.3,0.1,0.6,0.2c0.9,0.1,1.5-0.4,1.7-1.7l2.6-17l4.1,0.6   l-2.6,17.1c-0.2,1-0.4,1.9-0.8,2.5c-0.4,0.7-0.8,1.2-1.4,1.6c-0.5,0.4-1.1,0.6-1.7,0.7c-0.6,0.1-1.3,0.1-2,0   c-0.5-0.1-1-0.2-1.4-0.3c-0.4-0.1-0.8-0.3-1.1-0.5L427.8,132.4z M435.4,112.4c-0.4-0.1-0.7-0.2-1-0.4c-0.3-0.2-0.6-0.4-0.8-0.7   c-0.2-0.3-0.4-0.6-0.4-0.9c-0.1-0.3-0.1-0.7,0-1.1c0.1-0.4,0.2-0.7,0.4-1c0.2-0.3,0.4-0.5,0.7-0.7c0.3-0.2,0.6-0.3,0.9-0.4   c0.3-0.1,0.7-0.1,1.1,0c0.7,0.1,1.3,0.5,1.8,1.1c0.4,0.6,0.6,1.3,0.5,2c-0.1,0.7-0.5,1.3-1.1,1.7   C436.8,112.4,436.2,112.5,435.4,112.4z"></path>
</g>
<g class="st5">
	<path class="st2" d="M463,177.5c-1-0.2-1.9-0.5-2.8-1c-0.9-0.5-1.6-1-2.3-1.7c-0.7-0.7-1.2-1.5-1.6-2.4c-0.4-0.9-0.7-2-0.8-3.1   l4.4-0.8c0.1,1.2,0.4,2.3,1,3.2c0.6,0.9,1.5,1.5,2.8,1.7c0.5,0.1,0.9,0.1,1.4,0.1c0.4,0,0.9-0.1,1.2-0.3c0.4-0.2,0.7-0.4,1-0.7   c0.3-0.3,0.4-0.7,0.5-1.2c0.1-0.4,0.1-0.8,0-1.2s-0.3-0.8-0.6-1.1c-0.3-0.4-0.7-0.8-1.2-1.1s-1.2-0.8-2-1.3l-1.3-0.8   c-0.6-0.3-1.2-0.8-1.7-1.2c-0.6-0.5-1.1-1-1.5-1.7c-0.4-0.6-0.7-1.3-0.9-2.1c-0.2-0.8-0.2-1.6-0.1-2.5c0.2-0.9,0.5-1.7,1-2.5   c0.5-0.7,1.1-1.3,1.9-1.8c0.8-0.5,1.7-0.8,2.6-1c1-0.2,2-0.1,3.2,0.1c1.2,0.2,2.2,0.6,3,1c0.8,0.5,1.5,1,2,1.6   c0.5,0.6,0.9,1.2,1.1,1.9c0.3,0.7,0.4,1.3,0.5,1.8l-4.2,0.9c-0.1-0.7-0.4-1.4-0.9-2c-0.5-0.6-1.2-1-2.2-1.2c-1-0.2-1.8-0.1-2.5,0.2   c-0.7,0.3-1.1,0.8-1.3,1.6c-0.1,0.7,0.1,1.3,0.6,1.9c0.5,0.6,1.4,1.3,2.6,2l1.4,0.8c0.9,0.5,1.7,1,2.3,1.6c0.7,0.6,1.3,1.2,1.7,1.9   c0.4,0.7,0.7,1.4,0.9,2.2c0.2,0.8,0.1,1.7,0,2.7c-0.2,1.2-0.7,2.2-1.3,3c-0.7,0.8-1.4,1.4-2.3,1.8s-1.8,0.7-2.8,0.8   C464.8,177.7,463.9,177.7,463,177.5z"></path>
</g>
<g class="st5">
	<path class="st14" d="M463,177.5c-1-0.2-1.9-0.5-2.8-1c-0.9-0.5-1.6-1-2.3-1.7c-0.7-0.7-1.2-1.5-1.6-2.4c-0.4-0.9-0.7-2-0.8-3.1   l4.4-0.8c0.1,1.2,0.4,2.3,1,3.2c0.6,0.9,1.5,1.5,2.8,1.7c0.5,0.1,0.9,0.1,1.4,0.1c0.4,0,0.9-0.1,1.2-0.3c0.4-0.2,0.7-0.4,1-0.7   c0.3-0.3,0.4-0.7,0.5-1.2c0.1-0.4,0.1-0.8,0-1.2s-0.3-0.8-0.6-1.1c-0.3-0.4-0.7-0.8-1.2-1.1s-1.2-0.8-2-1.3l-1.3-0.8   c-0.6-0.3-1.2-0.8-1.7-1.2c-0.6-0.5-1.1-1-1.5-1.7c-0.4-0.6-0.7-1.3-0.9-2.1c-0.2-0.8-0.2-1.6-0.1-2.5c0.2-0.9,0.5-1.7,1-2.5   c0.5-0.7,1.1-1.3,1.9-1.8c0.8-0.5,1.7-0.8,2.6-1c1-0.2,2-0.1,3.2,0.1c1.2,0.2,2.2,0.6,3,1c0.8,0.5,1.5,1,2,1.6   c0.5,0.6,0.9,1.2,1.1,1.9c0.3,0.7,0.4,1.3,0.5,1.8l-4.2,0.9c-0.1-0.7-0.4-1.4-0.9-2c-0.5-0.6-1.2-1-2.2-1.2c-1-0.2-1.8-0.1-2.5,0.2   c-0.7,0.3-1.1,0.8-1.3,1.6c-0.1,0.7,0.1,1.3,0.6,1.9c0.5,0.6,1.4,1.3,2.6,2l1.4,0.8c0.9,0.5,1.7,1,2.3,1.6c0.7,0.6,1.3,1.2,1.7,1.9   c0.4,0.7,0.7,1.4,0.9,2.2c0.2,0.8,0.1,1.7,0,2.7c-0.2,1.2-0.7,2.2-1.3,3c-0.7,0.8-1.4,1.4-2.3,1.8s-1.8,0.7-2.8,0.8   C464.8,177.7,463.9,177.7,463,177.5z"></path>
</g>
<g class="st5">
	<path class="st2" d="M673.6,198.4l4-21l-7.2-1.3l0.9-4.6l19.1,3.6l-0.9,4.6l-7.2-1.3l-4,21L673.6,198.4z"></path>
</g>
<g class="st5">
	<path class="st15" d="M673.6,198.4l4-21l-7.2-1.3l0.9-4.6l19.1,3.6l-0.9,4.6l-7.2-1.3l-4,21L673.6,198.4z"></path>
</g>
<g class="st5">
	<path class="st2" d="M739.1,124.1l-0.8,6l10.3,1.4l-0.6,4.6l-10.3-1.4l-0.8,6l11.5,1.6l-0.6,4.6l-16.4-2.2l3.5-25.8l16.4,2.2   l-0.6,4.6L739.1,124.1z"></path>
</g>
<g class="st5">
	<path class="st15" d="M739.1,124.1l-0.8,6l10.3,1.4l-0.6,4.6l-10.3-1.4l-0.8,6l11.5,1.6l-0.6,4.6l-16.4-2.2l3.5-25.8l16.4,2.2   l-0.6,4.6L739.1,124.1z"></path>
</g>
<g class="st5">
	<path class="st3" d="M731.9,166.6l0.2,0c0.6-0.6,1.3-1.1,2.2-1.4c0.8-0.3,1.8-0.3,2.7-0.1c0.9,0.2,1.7,0.5,2.3,0.9   c0.6,0.4,1.1,1,1.5,1.6c0.3,0.6,0.6,1.3,0.6,2.1c0.1,0.8,0,1.7-0.1,2.6l-1.7,8.8l-3.9-0.7l1.6-8.3c0.2-1,0.1-1.9-0.3-2.5   s-1-1-1.9-1.1c-0.5-0.1-1-0.1-1.5,0.1c-0.4,0.2-0.8,0.4-1.2,0.7s-0.7,0.7-0.9,1.2c-0.2,0.5-0.4,1-0.5,1.6l-1.3,7.1l-3.9-0.7   l2.7-14.5l3.6,0.7L731.9,166.6z"></path>
</g>
<g class="st5">
	<path class="st16" d="M731.9,166.6l0.2,0c0.6-0.6,1.3-1.1,2.2-1.4c0.8-0.3,1.8-0.3,2.7-0.1c0.9,0.2,1.7,0.5,2.3,0.9   c0.6,0.4,1.1,1,1.5,1.6c0.3,0.6,0.6,1.3,0.6,2.1c0.1,0.8,0,1.7-0.1,2.6l-1.7,8.8l-3.9-0.7l1.6-8.3c0.2-1,0.1-1.9-0.3-2.5   s-1-1-1.9-1.1c-0.5-0.1-1-0.1-1.5,0.1c-0.4,0.2-0.8,0.4-1.2,0.7s-0.7,0.7-0.9,1.2c-0.2,0.5-0.4,1-0.5,1.6l-1.3,7.1l-3.9-0.7   l2.7-14.5l3.6,0.7L731.9,166.6z"></path>
</g>
<g class="st5">
	<path class="st2" d="M437.1,77.5c1.1,0.2,2,0.6,2.9,1.1c0.8,0.5,1.5,1.2,2,2c0.5,0.8,0.9,1.7,1.1,2.6c0.2,1,0.2,2,0,3.1   c-0.2,1.1-0.6,2-1.1,2.9c-0.5,0.8-1.2,1.5-2,2.1c-0.8,0.5-1.7,0.9-2.6,1.1c-1,0.2-2,0.2-3.1,0s-2-0.6-2.9-1.1c-0.8-0.5-1.5-1.2-2-2   c-0.5-0.8-0.9-1.7-1.1-2.6c-0.2-1-0.2-2,0-3.1c0.2-1.1,0.6-2,1.1-2.9c0.5-0.8,1.2-1.5,2-2.1c0.8-0.5,1.7-0.9,2.6-1.1   C435,77.3,436,77.3,437.1,77.5z M434.9,88.9c0.5,0.1,1,0.1,1.4,0c0.5-0.1,0.9-0.3,1.3-0.6c0.4-0.3,0.8-0.6,1-1.1   c0.3-0.5,0.5-1,0.6-1.6c0.1-0.6,0.1-1.2,0-1.7c-0.1-0.5-0.3-1-0.6-1.4c-0.3-0.4-0.6-0.7-1-1c-0.4-0.3-0.9-0.4-1.3-0.5   c-0.5-0.1-1-0.1-1.4,0c-0.5,0.1-0.9,0.3-1.3,0.6c-0.4,0.3-0.8,0.6-1,1.1c-0.3,0.5-0.5,1-0.6,1.6c-0.1,0.6-0.1,1.2,0,1.7   c0.1,0.5,0.3,1,0.6,1.4c0.3,0.4,0.6,0.7,1,1C434,88.6,434.4,88.8,434.9,88.9z"></path>
</g>
<g class="st5">
	<path class="st17" d="M437.1,77.5c1.1,0.2,2,0.6,2.9,1.1c0.8,0.5,1.5,1.2,2,2c0.5,0.8,0.9,1.7,1.1,2.6c0.2,1,0.2,2,0,3.1   c-0.2,1.1-0.6,2-1.1,2.9c-0.5,0.8-1.2,1.5-2,2.1c-0.8,0.5-1.7,0.9-2.6,1.1c-1,0.2-2,0.2-3.1,0s-2-0.6-2.9-1.1c-0.8-0.5-1.5-1.2-2-2   c-0.5-0.8-0.9-1.7-1.1-2.6c-0.2-1-0.2-2,0-3.1c0.2-1.1,0.6-2,1.1-2.9c0.5-0.8,1.2-1.5,2-2.1c0.8-0.5,1.7-0.9,2.6-1.1   C435,77.3,436,77.3,437.1,77.5z M434.9,88.9c0.5,0.1,1,0.1,1.4,0c0.5-0.1,0.9-0.3,1.3-0.6c0.4-0.3,0.8-0.6,1-1.1   c0.3-0.5,0.5-1,0.6-1.6c0.1-0.6,0.1-1.2,0-1.7c-0.1-0.5-0.3-1-0.6-1.4c-0.3-0.4-0.6-0.7-1-1c-0.4-0.3-0.9-0.4-1.3-0.5   c-0.5-0.1-1-0.1-1.4,0c-0.5,0.1-0.9,0.3-1.3,0.6c-0.4,0.3-0.8,0.6-1,1.1c-0.3,0.5-0.5,1-0.6,1.6c-0.1,0.6-0.1,1.2,0,1.7   c0.1,0.5,0.3,1,0.6,1.4c0.3,0.4,0.6,0.7,1,1C434,88.6,434.4,88.8,434.9,88.9z"></path>
</g>
<g class="st5">
	<path class="st2" d="M461.2,109.9l4.9,0.9l4.3,24.5l-4.8-0.9l-0.9-5.8l-8.8-1.7l-2.9,5.1l-4.8-0.9L461.2,109.9z M464.1,124.4   l-1-6.1l-0.3-2.9l-0.3,0l-1.4,2.6l-3.1,5.3L464.1,124.4z"></path>
</g>
<g class="st5">
	<path class="st18" d="M461.2,109.9l4.9,0.9l4.3,24.5l-4.8-0.9l-0.9-5.8l-8.8-1.7l-2.9,5.1l-4.8-0.9L461.2,109.9z M464.1,124.4   l-1-6.1l-0.3-2.9l-0.3,0l-1.4,2.6l-3.1,5.3L464.1,124.4z"></path>
</g>
<g class="st5">
	<path class="st0" d="M474.6,188.3l5.7-3.5c0.8-0.5,1.6-0.8,2.4-0.9c0.8-0.1,1.5-0.1,2.3,0s1.4,0.5,2,0.9c0.6,0.5,1.1,1,1.6,1.7   c0.3,0.5,0.5,1.1,0.6,1.6s0.1,1.1,0,1.7c-0.1,0.6-0.2,1.1-0.5,1.6c-0.2,0.5-0.5,1-0.9,1.4l0.1,0.2l7.8,3.4l0.1,0.2l-3.4,2.1   l-7.6-3.4l-1.4,0.8l3.6,5.8l-2.9,1.8L474.6,188.3z M484.6,191.9c0.7-0.4,1.1-0.9,1.3-1.6c0.2-0.7,0.1-1.3-0.3-1.9   c-0.2-0.3-0.4-0.5-0.6-0.7c-0.3-0.2-0.5-0.3-0.8-0.4c-0.3-0.1-0.6-0.1-1-0.1c-0.4,0.1-0.7,0.2-1.1,0.4l-2.8,1.7l2.6,4.3   L484.6,191.9z"></path>
</g>
<g class="st5">
	<path class="st19" d="M474.6,188.3l5.7-3.5c0.8-0.5,1.6-0.8,2.4-0.9c0.8-0.1,1.5-0.1,2.3,0s1.4,0.5,2,0.9c0.6,0.5,1.1,1,1.6,1.7   c0.3,0.5,0.5,1.1,0.6,1.6s0.1,1.1,0,1.7c-0.1,0.6-0.2,1.1-0.5,1.6c-0.2,0.5-0.5,1-0.9,1.4l0.1,0.2l7.8,3.4l0.1,0.2l-3.4,2.1   l-7.6-3.4l-1.4,0.8l3.6,5.8l-2.9,1.8L474.6,188.3z M484.6,191.9c0.7-0.4,1.1-0.9,1.3-1.6c0.2-0.7,0.1-1.3-0.3-1.9   c-0.2-0.3-0.4-0.5-0.6-0.7c-0.3-0.2-0.5-0.3-0.8-0.4c-0.3-0.1-0.6-0.1-1-0.1c-0.4,0.1-0.7,0.2-1.1,0.4l-2.8,1.7l2.6,4.3   L484.6,191.9z"></path>
</g>
<g class="st5">
	<path class="st0" d="M671,309.3c-0.3,0.5-0.7,0.9-1.2,1.3c-0.4,0.4-0.9,0.8-1.5,1.1c-1,0.6-2.1,1-3.2,1.2s-2.2,0.1-3.3-0.1   c-1.1-0.3-2-0.7-3-1.4c-0.9-0.7-1.7-1.5-2.3-2.5c-0.6-1-1-2.1-1.2-3.2c-0.2-1.1-0.1-2.2,0.1-3.3c0.2-1.1,0.7-2,1.4-3   s1.5-1.7,2.6-2.3c1-0.6,2.1-1,3.2-1.2c1.1-0.2,2.2-0.1,3.3,0.1c1.1,0.3,2,0.7,3,1.4c0.9,0.7,1.7,1.5,2.3,2.5   c0.7,1.1,1.1,2.2,1.2,3.4c0.2,1.2,0.1,2.3-0.2,3.4l2.1,0.9l-1.2,2.5L671,309.3z M665.3,306.7l1.1-2.5l2.9,1.4   c0.1-0.6,0.1-1.3,0-1.9c-0.1-0.7-0.4-1.3-0.8-2c-0.4-0.7-1-1.3-1.6-1.7c-0.6-0.4-1.2-0.7-1.9-0.9c-0.7-0.2-1.4-0.2-2.1-0.1   c-0.7,0.1-1.4,0.4-2,0.8c-0.7,0.4-1.2,0.9-1.6,1.5c-0.4,0.6-0.7,1.2-0.9,1.9c-0.2,0.7-0.2,1.4-0.1,2.1c0.1,0.7,0.4,1.5,0.8,2.2   c0.4,0.7,1,1.3,1.6,1.7c0.6,0.4,1.2,0.7,1.9,0.9c0.7,0.2,1.4,0.2,2.1,0.1c0.7-0.1,1.4-0.4,2-0.8c0.3-0.2,0.5-0.4,0.8-0.6   c0.2-0.2,0.4-0.4,0.6-0.7L665.3,306.7z"></path>
</g>
<g class="st5">
	<path class="st20" d="M671,309.3c-0.3,0.5-0.7,0.9-1.2,1.3c-0.4,0.4-0.9,0.8-1.5,1.1c-1,0.6-2.1,1-3.2,1.2s-2.2,0.1-3.3-0.1   c-1.1-0.3-2-0.7-3-1.4c-0.9-0.7-1.7-1.5-2.3-2.5c-0.6-1-1-2.1-1.2-3.2c-0.2-1.1-0.1-2.2,0.1-3.3c0.2-1.1,0.7-2,1.4-3   s1.5-1.7,2.6-2.3c1-0.6,2.1-1,3.2-1.2c1.1-0.2,2.2-0.1,3.3,0.1c1.1,0.3,2,0.7,3,1.4c0.9,0.7,1.7,1.5,2.3,2.5   c0.7,1.1,1.1,2.2,1.2,3.4c0.2,1.2,0.1,2.3-0.2,3.4l2.1,0.9l-1.2,2.5L671,309.3z M665.3,306.7l1.1-2.5l2.9,1.4   c0.1-0.6,0.1-1.3,0-1.9c-0.1-0.7-0.4-1.3-0.8-2c-0.4-0.7-1-1.3-1.6-1.7c-0.6-0.4-1.2-0.7-1.9-0.9c-0.7-0.2-1.4-0.2-2.1-0.1   c-0.7,0.1-1.4,0.4-2,0.8c-0.7,0.4-1.2,0.9-1.6,1.5c-0.4,0.6-0.7,1.2-0.9,1.9c-0.2,0.7-0.2,1.4-0.1,2.1c0.1,0.7,0.4,1.5,0.8,2.2   c0.4,0.7,1,1.3,1.6,1.7c0.6,0.4,1.2,0.7,1.9,0.9c0.7,0.2,1.4,0.2,2.1,0.1c0.7-0.1,1.4-0.4,2-0.8c0.3-0.2,0.5-0.4,0.8-0.6   c0.2-0.2,0.4-0.4,0.6-0.7L665.3,306.7z"></path>
</g>
<g class="st5">
	<path class="st2" d="M825.1,98.7c-1.1,0.7-2.3,1-3.6,0.9c-1.2-0.1-2.4-0.6-3.4-1.5l1.9-2.6c0.6,0.5,1.1,0.9,1.7,0.9   c0.6,0.1,1.2,0,1.7-0.4c0.6-0.4,1-0.9,1.1-1.5c0.1-0.6-0.1-1.3-0.5-2l-6-9.9l2.7-1.7l6,9.9c0.5,0.8,0.8,1.6,0.9,2.4   s0.1,1.5-0.1,2.2c-0.2,0.7-0.5,1.3-0.9,1.8C826.3,97.8,825.8,98.3,825.1,98.7z"></path>
</g>
<g class="st5">
	<path class="st21" d="M825.1,98.7c-1.1,0.7-2.3,1-3.6,0.9c-1.2-0.1-2.4-0.6-3.4-1.5l1.9-2.6c0.6,0.5,1.1,0.9,1.7,0.9   c0.6,0.1,1.2,0,1.7-0.4c0.6-0.4,1-0.9,1.1-1.5c0.1-0.6-0.1-1.3-0.5-2l-6-9.9l2.7-1.7l6,9.9c0.5,0.8,0.8,1.6,0.9,2.4   s0.1,1.5-0.1,2.2c-0.2,0.7-0.5,1.3-0.9,1.8C826.3,97.8,825.8,98.3,825.1,98.7z"></path>
</g>
<g class="st5">
	<path class="st0" d="M714.5,163.7l-0.2,0.1c-0.1,0.6-0.3,1.2-0.6,1.8c-0.3,0.6-0.8,1.1-1.6,1.6c-0.6,0.3-1.1,0.6-1.8,0.7   c-0.6,0.1-1.2,0.1-1.8,0c-0.6-0.1-1.1-0.3-1.6-0.6c-0.5-0.3-0.9-0.8-1.2-1.3c-0.3-0.6-0.5-1.1-0.6-1.7c-0.1-0.6,0-1.2,0.2-1.7   s0.5-1.1,1-1.6c0.4-0.5,1-0.9,1.6-1.3c0.7-0.4,1.3-0.7,1.8-0.9c0.5-0.2,1-0.3,1.3-0.3L711,158c-0.4-0.6-0.9-0.9-1.6-1   c-0.7-0.1-1.4,0.1-2,0.5c-1,0.6-1.6,1.6-1.8,2.8l-3-0.2c0.3-2.1,1.4-3.8,3.4-5c1.7-1,3.2-1.4,4.6-1.2c1.4,0.2,2.5,1.1,3.5,2.7   l4,6.5l-2.9,1.7L714.5,163.7z M712.5,160.4c-0.4,0-0.9,0.1-1.3,0.3c-0.4,0.1-0.8,0.3-1.3,0.6c-0.7,0.4-1.1,0.9-1.3,1.4   s-0.2,1,0.1,1.5s0.7,0.7,1.2,0.7c0.5,0,1-0.1,1.5-0.4c0.4-0.2,0.7-0.5,0.9-0.9c0.2-0.3,0.4-0.7,0.5-1.1c0.1-0.4,0.1-0.7,0-1.1   C712.8,161.1,712.7,160.7,712.5,160.4z"></path>
</g>
<g class="st5">
	<path class="st22" d="M714.5,163.7l-0.2,0.1c-0.1,0.6-0.3,1.2-0.6,1.8c-0.3,0.6-0.8,1.1-1.6,1.6c-0.6,0.3-1.1,0.6-1.8,0.7   c-0.6,0.1-1.2,0.1-1.8,0c-0.6-0.1-1.1-0.3-1.6-0.6c-0.5-0.3-0.9-0.8-1.2-1.3c-0.3-0.6-0.5-1.1-0.6-1.7c-0.1-0.6,0-1.2,0.2-1.7   s0.5-1.1,1-1.6c0.4-0.5,1-0.9,1.6-1.3c0.7-0.4,1.3-0.7,1.8-0.9c0.5-0.2,1-0.3,1.3-0.3L711,158c-0.4-0.6-0.9-0.9-1.6-1   c-0.7-0.1-1.4,0.1-2,0.5c-1,0.6-1.6,1.6-1.8,2.8l-3-0.2c0.3-2.1,1.4-3.8,3.4-5c1.7-1,3.2-1.4,4.6-1.2c1.4,0.2,2.5,1.1,3.5,2.7   l4,6.5l-2.9,1.7L714.5,163.7z M712.5,160.4c-0.4,0-0.9,0.1-1.3,0.3c-0.4,0.1-0.8,0.3-1.3,0.6c-0.7,0.4-1.1,0.9-1.3,1.4   s-0.2,1,0.1,1.5s0.7,0.7,1.2,0.7c0.5,0,1-0.1,1.5-0.4c0.4-0.2,0.7-0.5,0.9-0.9c0.2-0.3,0.4-0.7,0.5-1.1c0.1-0.4,0.1-0.7,0-1.1   C712.8,161.1,712.7,160.7,712.5,160.4z"></path>
</g>
<g class="st5">
	<path class="st0" d="M708.1,200.4l-9.9-16.1l5.7-3.5c0.8-0.5,1.6-0.8,2.4-0.9s1.6-0.2,2.4,0c0.8,0.1,1.5,0.4,2.2,0.9   c0.7,0.4,1.2,1,1.7,1.8c0.5,0.8,0.8,1.5,0.8,2.3s0,1.6-0.2,2.3c-0.2,0.8-0.6,1.5-1.1,2.1c-0.5,0.7-1.2,1.2-1.9,1.7l-2.6,1.6   l3.6,5.9L708.1,200.4z M708.4,188.1c0.8-0.5,1.3-1.1,1.4-1.8c0.1-0.7,0-1.3-0.3-1.9c-0.2-0.3-0.4-0.5-0.7-0.7   c-0.3-0.2-0.6-0.4-0.9-0.4c-0.3-0.1-0.7-0.1-1.1,0c-0.4,0.1-0.8,0.2-1.2,0.5l-2.7,1.6l2.7,4.4L708.4,188.1z"></path>
</g>
<g class="st5">
	<path class="st23" d="M708.1,200.4l-9.9-16.1l5.7-3.5c0.8-0.5,1.6-0.8,2.4-0.9s1.6-0.2,2.4,0c0.8,0.1,1.5,0.4,2.2,0.9   c0.7,0.4,1.2,1,1.7,1.8c0.5,0.8,0.8,1.5,0.8,2.3s0,1.6-0.2,2.3c-0.2,0.8-0.6,1.5-1.1,2.1c-0.5,0.7-1.2,1.2-1.9,1.7l-2.6,1.6   l3.6,5.9L708.1,200.4z M708.4,188.1c0.8-0.5,1.3-1.1,1.4-1.8c0.1-0.7,0-1.3-0.3-1.9c-0.2-0.3-0.4-0.5-0.7-0.7   c-0.3-0.2-0.6-0.4-0.9-0.4c-0.3-0.1-0.7-0.1-1.1,0c-0.4,0.1-0.8,0.2-1.2,0.5l-2.7,1.6l2.7,4.4L708.4,188.1z"></path>
</g>
<g class="st5">
	<path class="st0" d="M644,230.6l4.4-2.7l20.3,15.9l-4.3,2.6l-4.7-3.9l-7.9,4.9l1.3,6l-4.3,2.6L644,230.6z M656.3,239.7l-5-4l-2.3-2   l-0.2,0.1l0.8,3l1.3,6.3L656.3,239.7z"></path>
</g>
<g class="st5">
	<path class="st24" d="M644,230.6l4.4-2.7l20.3,15.9l-4.3,2.6l-4.7-3.9l-7.9,4.9l1.3,6l-4.3,2.6L644,230.6z M656.3,239.7l-5-4   l-2.3-2l-0.2,0.1l0.8,3l1.3,6.3L656.3,239.7z"></path>
</g>
<g class="st5">
	<path class="st0" d="M799.4,117.4l3.5-3l6.8,7.9l0.2-0.2l0-13.7l4.2-3.6l0.2,0.2l-0.2,13.3l16.2,4.1l0.2,0.2l-4.2,3.6l-12.2-3.2   l0,4.2l4.6,5.4l-3.5,3L799.4,117.4z"></path>
</g>
<g class="st5">
	<path class="st25" d="M799.4,117.4l3.5-3l6.8,7.9l0.2-0.2l0-13.7l4.2-3.6l0.2,0.2l-0.2,13.3l16.2,4.1l0.2,0.2l-4.2,3.6l-12.2-3.2   l0,4.2l4.6,5.4l-3.5,3L799.4,117.4z"></path>
</g>
<g class="st5">
	<path class="st0" d="M385.2,54.9l4.5-0.8l1.3,7.5l0.1,2.5l0.3,0c0.3-0.8,0.8-1.5,1.6-2.2c0.8-0.7,1.8-1.1,3.1-1.3   c1.1-0.2,2.2-0.1,3.2,0.1c1.1,0.3,2,0.8,2.9,1.4c0.9,0.7,1.6,1.5,2.3,2.6s1.1,2.2,1.3,3.5c0.2,1.3,0.2,2.6,0,3.8   c-0.2,1.2-0.7,2.2-1.3,3.2s-1.4,1.7-2.3,2.3c-0.9,0.6-1.9,1-3,1.2c-1.3,0.2-2.4,0.2-3.4-0.2c-1-0.4-1.7-0.9-2.3-1.5l-0.3,0l0.4,2   l-4.3,0.7L385.2,54.9z M397.7,74.6c0.6-0.1,1.2-0.3,1.7-0.6c0.5-0.3,0.9-0.7,1.3-1.2c0.3-0.5,0.6-1.1,0.7-1.7   c0.1-0.6,0.2-1.3,0-2.1c-0.1-0.7-0.4-1.4-0.7-1.9c-0.4-0.6-0.8-1-1.3-1.4c-0.5-0.3-1-0.6-1.6-0.7c-0.6-0.1-1.2-0.2-1.8,0   c-0.6,0.1-1.2,0.3-1.7,0.6c-0.5,0.3-0.9,0.7-1.3,1.2c-0.3,0.5-0.6,1.1-0.7,1.7c-0.2,0.6-0.2,1.3,0,2.1c0.1,0.8,0.4,1.4,0.7,2   c0.4,0.6,0.8,1,1.3,1.4c0.5,0.3,1,0.6,1.6,0.7C396.5,74.7,397.1,74.7,397.7,74.6z"></path>
</g>
<g class="st5">
	<path class="st26" d="M385.2,54.9l4.5-0.8l1.3,7.5l0.1,2.5l0.3,0c0.3-0.8,0.8-1.5,1.6-2.2c0.8-0.7,1.8-1.1,3.1-1.3   c1.1-0.2,2.2-0.1,3.2,0.1c1.1,0.3,2,0.8,2.9,1.4c0.9,0.7,1.6,1.5,2.3,2.6s1.1,2.2,1.3,3.5c0.2,1.3,0.2,2.6,0,3.8   c-0.2,1.2-0.7,2.2-1.3,3.2s-1.4,1.7-2.3,2.3c-0.9,0.6-1.9,1-3,1.2c-1.3,0.2-2.4,0.2-3.4-0.2c-1-0.4-1.7-0.9-2.3-1.5l-0.3,0l0.4,2   l-4.3,0.7L385.2,54.9z M397.7,74.6c0.6-0.1,1.2-0.3,1.7-0.6c0.5-0.3,0.9-0.7,1.3-1.2c0.3-0.5,0.6-1.1,0.7-1.7   c0.1-0.6,0.2-1.3,0-2.1c-0.1-0.7-0.4-1.4-0.7-1.9c-0.4-0.6-0.8-1-1.3-1.4c-0.5-0.3-1-0.6-1.6-0.7c-0.6-0.1-1.2-0.2-1.8,0   c-0.6,0.1-1.2,0.3-1.7,0.6c-0.5,0.3-0.9,0.7-1.3,1.2c-0.3,0.5-0.6,1.1-0.7,1.7c-0.2,0.6-0.2,1.3,0,2.1c0.1,0.8,0.4,1.4,0.7,2   c0.4,0.6,0.8,1,1.3,1.4c0.5,0.3,1,0.6,1.6,0.7C396.5,74.7,397.1,74.7,397.7,74.6z"></path>
</g>
<g class="st5">
	<path class="st0" d="M391.8,108.9l3.5-3.2l9.5,10.5l0.2-0.1l0.4-8.4l4.4-4l0.2,0.2l-0.6,9.2l12.6,3.2l0.2,0.2l-4.2,3.8l-8.9-2.5   l-0.2,3l3.9,4.3l-3.5,3.2L391.8,108.9z"></path>
</g>
<g class="st5">
	<path class="st11" d="M391.8,108.9l3.5-3.2l9.5,10.5l0.2-0.1l0.4-8.4l4.4-4l0.2,0.2l-0.6,9.2l12.6,3.2l0.2,0.2l-4.2,3.8l-8.9-2.5   l-0.2,3l3.9,4.3l-3.5,3.2L391.8,108.9z"></path>
</g>
<g class="st5">
	<path class="st2" d="M299.1,78.4l5.6-9l-6.9,1.3l-0.6-3.2l11.5-2.2l0.6,3.1l-5.6,9l7.2-1.4l0.6,3.2l-11.8,2.3L299.1,78.4z"></path>
</g>
<g class="st5">
	<path class="st17" d="M299.1,78.4l5.6-9l-6.9,1.3l-0.6-3.2l11.5-2.2l0.6,3.1l-5.6,9l7.2-1.4l0.6,3.2l-11.8,2.3L299.1,78.4z"></path>
</g>
<g class="st5">
	<path class="st3" d="M487,149.8l-6.3-16.3l5.8-2.2c0.8-0.3,1.6-0.5,2.3-0.5c0.8,0,1.5,0.1,2.2,0.4c0.7,0.3,1.3,0.7,1.8,1.2   c0.5,0.5,0.9,1.2,1.2,1.9c0.3,0.8,0.4,1.5,0.4,2.3c0,0.7-0.2,1.4-0.6,2.1c-0.3,0.7-0.8,1.2-1.4,1.7s-1.3,0.9-2,1.2l-2.7,1l2.3,6   L487,149.8z M489.3,138.6c0.8-0.3,1.3-0.8,1.6-1.4c0.2-0.6,0.2-1.2,0-1.8c-0.1-0.3-0.3-0.6-0.5-0.8c-0.2-0.2-0.5-0.4-0.7-0.5   c-0.3-0.1-0.6-0.2-1-0.2c-0.4,0-0.7,0.1-1.1,0.2l-2.7,1.1l1.7,4.5L489.3,138.6z"></path>
</g>
<g class="st5">
	<path class="st27" d="M487,149.8l-6.3-16.3l5.8-2.2c0.8-0.3,1.6-0.5,2.3-0.5c0.8,0,1.5,0.1,2.2,0.4c0.7,0.3,1.3,0.7,1.8,1.2   c0.5,0.5,0.9,1.2,1.2,1.9c0.3,0.8,0.4,1.5,0.4,2.3c0,0.7-0.2,1.4-0.6,2.1c-0.3,0.7-0.8,1.2-1.4,1.7s-1.3,0.9-2,1.2l-2.7,1l2.3,6   L487,149.8z M489.3,138.6c0.8-0.3,1.3-0.8,1.6-1.4c0.2-0.6,0.2-1.2,0-1.8c-0.1-0.3-0.3-0.6-0.5-0.8c-0.2-0.2-0.5-0.4-0.7-0.5   c-0.3-0.1-0.6-0.2-1-0.2c-0.4,0-0.7,0.1-1.1,0.2l-2.7,1.1l1.7,4.5L489.3,138.6z"></path>
</g>
<g class="st5">
	<path class="st3" d="M667.3,215.9l2.7-1l5.1,7l0.9,1.3l0.1-0.1l-0.2-1.6l-0.4-6.7l2.3-0.9l4.3,5.2l0.9,1.3l0.1-0.1l-0.3-1.5   l-1.1-8.5l2.7-1l1.6,14.7l-2.4,0.9l-4.6-5.6l-1-1.3L678,218l0.2,1.6l0.4,7.2l-2.4,0.9L667.3,215.9z"></path>
</g>
<g class="st5">
	<path class="st28" d="M667.3,215.9l2.7-1l5.1,7l0.9,1.3l0.1-0.1l-0.2-1.6l-0.4-6.7l2.3-0.9l4.3,5.2l0.9,1.3l0.1-0.1l-0.3-1.5   l-1.1-8.5l2.7-1l1.6,14.7l-2.4,0.9l-4.6-5.6l-1-1.3L678,218l0.2,1.6l0.4,7.2l-2.4,0.9L667.3,215.9z"></path>
</g>
<g class="st5">
	<path class="st2" d="M361.3,65.8l-0.2,0c-0.4,0.6-0.9,1-1.6,1.3s-1.4,0.4-2.2,0.3c-1.5-0.1-2.5-0.7-3.2-1.6c-0.6-1-0.9-2.2-0.8-3.7   l0.6-7.1l3.1,0.3l-0.6,6.7c-0.1,0.8,0.1,1.5,0.4,1.9c0.3,0.4,0.9,0.7,1.6,0.8c0.4,0,0.8,0,1.2-0.2c0.3-0.2,0.6-0.4,0.9-0.7   c0.3-0.3,0.5-0.6,0.6-1c0.2-0.4,0.3-0.9,0.3-1.3l0.5-5.7l3.1,0.3l-1,11.6l-2.9-0.3L361.3,65.8z"></path>
</g>
<g class="st5">
	<path class="st29" d="M361.3,65.8l-0.2,0c-0.4,0.6-0.9,1-1.6,1.3s-1.4,0.4-2.2,0.3c-1.5-0.1-2.5-0.7-3.2-1.6   c-0.6-1-0.9-2.2-0.8-3.7l0.6-7.1l3.1,0.3l-0.6,6.7c-0.1,0.8,0.1,1.5,0.4,1.9c0.3,0.4,0.9,0.7,1.6,0.8c0.4,0,0.8,0,1.2-0.2   c0.3-0.2,0.6-0.4,0.9-0.7c0.3-0.3,0.5-0.6,0.6-1c0.2-0.4,0.3-0.9,0.3-1.3l0.5-5.7l3.1,0.3l-1,11.6l-2.9-0.3L361.3,65.8z"></path>
</g>
<g>
	<path class="st4" d="M523.8,293.6l-15.5-9c0,0-4.7,9.4,2.7,13C517.6,300.8,523.8,293.6,523.8,293.6z"></path>
</g>
<g>
	<path class="st3" d="M523.6,293.6c-2-0.6-3.6-1.2-5.1-1.7s-2.9-1.1-4.1-1.7c-1.2-0.5-2.3-1.3-3.3-2.2c-1-1-2.1-2-3.2-2.8l1-0.3   c-1.1,2-1.3,4.4-0.6,6.6c0.5,1.8,1.8,3.2,3.5,3.9c1.7,0.6,3.5,0.7,5.3,0.4c1.1-0.2,2.1-0.6,3.1-1c0.5-0.2,1.1-0.4,1.7-0.7l0.9-0.4   l0.4-0.2l0.2-0.1h0.1h0.1l0,0L523.6,293.6z M524.1,293.5l-0.1,0.2l0,0v0.1v0.1l-0.1,0.2l-0.2,0.5c-0.1,0.3-0.3,0.6-0.5,0.9   c-0.4,0.6-0.8,1.1-1.2,1.6c-0.9,1.1-2,1.9-3.3,2.6c-1.4,0.7-2.9,1.1-4.4,1.1c-1.6,0-3.1-0.5-4.5-1.3c-1.4-0.8-2.5-1.9-3.4-3.3   c-0.8-1.3-1.1-2.9-1-4.4c0.1-1.3,0.4-2.7,0.9-4c0.4-1.2,0.9-2.4,1.3-3.6l0.3-0.7l0.7,0.4c1.5,0.7,3,1.2,4.6,1.7   c1.6,0.5,3.1,1.3,4.5,2.3c1.3,0.9,2.5,1.8,3.7,2.8C522.4,291.6,523.3,292.5,524.1,293.5z"></path>
</g>
<g>
	<path class="st2" d="M717.9,292.3L717.9,292.3c3,0,5.4,2.4,5.4,5.3c0,2.2-1.4,4.2-3.4,5c-2.8,1.1-5.9-0.3-6.9-3.1s0.3-5.9,3.1-6.9   C716.6,292.4,717.2,292.3,717.9,292.3 M717.9,288.7c-1.1,0-2.2,0.2-3.2,0.6c-4.6,1.9-6.8,7.2-4.9,11.8c1.4,3.3,4.5,5.5,8.1,5.5   c1.1,0,2.2-0.2,3.2-0.6c4.6-1.9,6.8-7.2,4.9-11.8C724.6,290.9,721.4,288.7,717.9,288.7z"></path>
</g>
<g>
	<path class="st2" d="M695.1,295.3L695.1,295.3c3,0,5.3,2.4,5.3,5.4c0,2.2-1.4,4.2-3.4,5c-2.7,1.1-5.8-0.3-6.9-3   c-1.1-2.7,0.3-5.8,3-6.9C693.7,295.5,694.3,295.4,695.1,295.3 M695,291.8c-5,0-9,4-9,9c0,5,4,9,9,9c5,0,9-4,9-9   c0-1.1-0.2-2.2-0.6-3.3C702,294,698.8,291.8,695,291.8L695,291.8z"></path>
</g>
<g>
	
		<rect x="701.8" y="296.9" transform="matrix(0.9975 -7.097518e-02 7.097518e-02 0.9975 -19.3984 50.8681)" class="st2" width="8.6" height="3.1"></rect>
</g>
<g>
	<path class="st2" d="M190.7,94.3l-36-20.8c-2.5-1.5-5.8-0.6-7.3,1.9c-0.5,0.8-0.7,1.7-0.7,2.7v45.7c0,2.9,2.4,5.3,5.3,5.3   c0.9,0,1.9-0.2,2.7-0.7l36-20.8c3.7-2.1,4.9-6.8,2.8-10.5C192.8,96,191.8,95,190.7,94.3z"></path>
</g>
<g>
	<path class="st0" d="M1024.4,145.2l-12.5-5.1l-3.2,0.8l-30.5,74.6c-0.6,1.3-0.9,2.7-1,4.1l-1.5,20.4c-0.2,1.3,0.7,2.6,2,2.9   c1,0.2,1.9-0.2,2.5-1l13.2-15.5c0.9-1.1,1.7-2.3,2.2-3.6l30.5-74.6L1024.4,145.2z"></path>
</g>
<g>
	<path class="st4" d="M977.2,219.6l-1.5,20.4c-0.2,1.3,0.7,2.6,2,2.9c1,0.2,1.9-0.2,2.5-1l13.2-15.5L977.2,219.6z"></path>
</g>
<g>
	<path class="st2" d="M1033.4,130.1c1.3-3.2-0.2-6.9-3.4-8.3c0,0,0,0,0,0l-5.6-2.3c-3.2-1.3-6.9,0.2-8.3,3.5c0,0,0,0,0,0l-2.4,5.9   l1.6,2.4l12.9,5.3l2.8-0.6L1033.4,130.1z"></path>
</g>
<g>
	
		<rect x="1013.4" y="129.2" transform="matrix(0.3788 -0.9255 0.9255 0.3788 505.3522 1029.9513)" class="st0" width="13" height="18.8"></rect>
</g>
<g>
	<path class="st2" d="M976.3,232.5l8.6,3.8l-5.8,6.6c-0.7,0.9-1.9,1-2.8,0.4c-0.6-0.4-0.9-1.2-0.8-1.9L976.3,232.5z"></path>
</g>
</svg>