<svg xmlns="http://www.w3.org/2000/svg" id="Layer_1" data-name="Layer 1" viewBox="0 0 195.06 195.06"><defs><style>.cls-1{fill:#f4f4f4;}.cls-2{fill:#ff8388;}.cls-3{fill:#fff;}.cls-4{fill:#022494;}.cls-5{fill:none;stroke:#022494;stroke-linecap:round;stroke-linejoin:round;stroke-width:9.78px;}</style></defs><rect class="cls-1" width="195.06" height="195.06" rx="18.25"></rect><path class="cls-2" d="M137.17,30.47h-32.1A4.09,4.09,0,0,0,101,34.56v5a4.09,4.09,0,0,0,4.09,4.09h9.49V61.17h13.11V43.62h9.5a4.09,4.09,0,0,0,4.09-4.09v-5A4.09,4.09,0,0,0,137.17,30.47Zm-7,12.84a3.85,3.85,0,0,1-.9.24Zm-.73-12.76.11,0Z"></path><path class="cls-2" d="M121.12,53.68c-.67,0-1.32.06-2,.08-.35,0-.66,0-.88,0s-.62.07-.94.09l-.46,0H117a54.93,54.93,0,0,0-.11,109.52c1,.08,1.9.1,2.86.1.47,0,.94.06,1.41.06a54.93,54.93,0,0,0,0-109.86Z"></path><circle class="cls-3" cx="121.12" cy="108.61" r="38.18"></circle><path class="cls-4" d="M121.12,70.43v37.23l25.65-27.33A36.68,36.68,0,0,0,121.12,70.43Z"></path><line class="cls-5" x1="35.9" y1="81.85" x2="58.9" y2="81.85"></line><line class="cls-5" x1="18.25" y1="109.04" x2="41.25" y2="109.04"></line><line class="cls-5" x1="35.9" y1="134.55" x2="58.9" y2="134.55"></line></svg>