<svg xmlns="http://www.w3.org/2000/svg" xmlns:xlink="http://www.w3.org/1999/xlink" width="254px" height="152px" viewBox="0 0 254 152"><title>Group 17</title><desc>Created with Sketch.</desc><g id="New_Website" stroke="none" stroke-width="1" fill="none" fill-rule="evenodd"><g id="home_page" transform="translate(-830.000000, -1188.000000)"><g id="Group-17" transform="translate(830.000000, 1188.000000)"><rect id="Rectangle-12" fill="#FF7A85" x="0" y="0" width="254" height="152" rx="11.05"></rect><rect id="Rectangle-9" fill="#FFFFFF" opacity="0.8" x="65.4113712" y="95.1061453" width="128.274247" height="16.9832402" rx="8.49162011"></rect><path d="M127.777317,36.5513785 C130.059682,32.9922985 133.757438,32.9881052 136.042492,36.5513785 L149.014775,56.7801279 C151.29714,60.339208 149.725371,63.2244124 145.504643,63.2244124 L118.315166,63.2244124 C114.094208,63.2244124 112.51998,60.3434012 114.805034,56.7801279 L127.777317,36.5513785 Z" id="Triangle" fill="#FFFFFF" opacity="0.8" transform="translate(131.909286, 48.552454) rotate(90.000000) translate(-131.909286, -48.552454) "></path><path d="M37.3779264,128.223464 C37.3779264,123.533671 41.1893235,119.731844 45.860104,119.731844 L212.387388,119.731844 C217.071965,119.731844 220.869565,123.543214 220.869565,128.223464 L220.869565,128.223464 C220.869565,132.913256 217.058168,136.715084 212.387388,136.715084 L45.860104,136.715084 C41.1755267,136.715084 37.3779264,132.903713 37.3779264,128.223464 L37.3779264,128.223464 Z" id="Rectangle-9" fill="#FFFFFF" opacity="0.8"></path></g></g></g></svg>