<svg xmlns="http://www.w3.org/2000/svg" xmlns:xlink="http://www.w3.org/1999/xlink" width="254px" height="152px" viewBox="0 0 254 152"><title>Group 17</title><desc>Created with Sketch.</desc><g id="New_Website" stroke="none" stroke-width="1" fill="none" fill-rule="evenodd"><g id="home_page" transform="translate(-358.000000, -1188.000000)"><g id="Group-17" transform="translate(358.000000, 1188.000000)"><rect id="Rectangle-12" fill="#009EFE" x="0" y="0" width="254" height="152" rx="11.05"></rect><rect id="Rectangle-9" fill="#FFFFFF" opacity="0.8" x="22.9364548" y="22.0782123" width="128.274247" height="16.9832402" rx="8.49162011"></rect><rect id="Rectangle-9" fill="#FFFFFF" opacity="0.8" x="22.9364548" y="46.7039106" width="207.277592" height="16.9832402" rx="8.49162011"></rect><rect id="Rectangle-9" fill="#FFFFFF" opacity="0.8" x="22.9364548" y="70.4804469" width="207.277592" height="16.9832402" rx="8.49162011"></rect><rect id="Rectangle-9" fill="#FFFFFF" opacity="0.8" x="22.9364548" y="94.2569832" width="207.277592" height="16.9832402" rx="8.49162011"></rect><path d="M78.1538462,126.52514 C78.1538462,121.835347 81.950596,118.03352 86.6550925,118.03352 L221.7128,118.03352 C226.407909,118.03352 230.214047,121.84489 230.214047,126.52514 L230.214047,126.52514 C230.214047,131.214932 226.417297,135.01676 221.7128,135.01676 L86.6550925,135.01676 C81.9599838,135.01676 78.1538462,131.205389 78.1538462,126.52514 L78.1538462,126.52514 Z" id="Rectangle-9" fill="#FFFFFF" opacity="0.8"></path></g></g></g></svg>