<svg xmlns="http://www.w3.org/2000/svg" xmlns:xlink="http://www.w3.org/1999/xlink" id="Layer_1" x="0px" y="0px" viewBox="0 0 517.4 279.8" style="enable-background:new 0 0 517.4 279.8;" xml:space="preserve">
<style type="text/css">
	.st0{fill:#F4F4F4;}
	.st1{fill:#022494;}
	.st2{enable-background:new    ;}
	.st3{fill:#FFFFFF;}
	.st4{fill:#269EF7;}
	.st5{fill:#F03429;}
	.st6{fill:#FFD20B;}
	.st7{fill:#003429;}
	.st8{fill:#FF161C;}
	.st9{fill:#16AA49;}
	.st10{fill:#F08700;}
	.st11{fill:#FF8388;}
</style>
<g>
	<path class="st0" d="M160.2,0H54.9c-5.6,0-10.1,4.5-10.1,10.1c0,0,0,0,0,0v51.4c0,5.6,4.5,10.1,10.1,10.1c0,0,0,0,0,0h59.1   l27.7,20.2c1.7,1.2,4.1,0.9,5.3-0.8c0.5-0.7,0.7-1.4,0.7-2.3V71.7h12.4c5.6,0,10.1-4.5,10.1-10.1c0,0,0,0,0,0V10.1   C170.3,4.5,165.8,0,160.2,0C160.2,0,160.2,0,160.2,0z"></path>
</g>
<g>
	<path class="st1" d="M200.3,186.9h-96.2c-5.3,0-9.5,4.3-9.5,9.5v54.2c0,5.2,4.3,9.5,9.5,9.5c0,0,0,0,0,0h50.3l25.9,19   c1.6,1.2,3.8,0.8,5-0.8c0.4-0.6,0.7-1.3,0.7-2.1v-16.1h14.2c5.2,0,9.5-4.2,9.5-9.5c0,0,0,0,0,0v-54.2   C209.8,191.2,205.6,186.9,200.3,186.9z"></path>
</g>
<g class="st2">
	<path class="st3" d="M115.3,219.3h0.3c0.5-0.8,1.1-1.4,2-1.9c0.8-0.5,1.8-0.7,2.8-0.7c1,0,1.8,0.2,2.6,0.5c0.7,0.3,1.4,0.8,1.8,1.4   c0.5,0.6,0.8,1.3,1.1,2.1c0.2,0.8,0.4,1.7,0.4,2.7v9.5h-4.2v-8.9c0-1.1-0.2-2-0.7-2.5c-0.5-0.5-1.2-0.8-2.2-0.8   c-0.6,0-1.1,0.1-1.5,0.4c-0.4,0.2-0.8,0.6-1.1,1c-0.3,0.4-0.5,0.9-0.7,1.5c-0.2,0.6-0.2,1.2-0.2,1.8v7.6h-4.2v-15.6h3.9V219.3z"></path>
</g>
<g class="st2">
	<path class="st3" d="M135.7,210.1h1.9c-0.2,1.3-0.6,2.3-1.4,3c-0.8,0.7-1.8,1-3.2,1c-1.3,0-2.4-0.3-3.2-1c-0.8-0.7-1.3-1.7-1.4-3   h1.9c0.1,0.7,0.4,1.2,0.9,1.6c0.4,0.3,1,0.5,1.7,0.5c0.8,0,1.5-0.2,1.9-0.5C135.3,211.4,135.6,210.9,135.7,210.1z M131.6,232.9   v-16.5h2.8v16.5H131.6z"></path>
</g>
<g class="st2">
	<path class="st3" d="M146,210.1h4.2v6.4l-0.3,2.8h0.3c0.4-0.7,1.1-1.4,1.9-1.8c0.8-0.5,1.8-0.7,2.8-0.7c2,0,3.5,0.6,4.5,1.8   c1,1.2,1.4,2.8,1.4,4.9v9.5h-4.2v-8.9c0-1.1-0.3-1.9-0.8-2.5c-0.5-0.6-1.2-0.8-2.1-0.8c-0.6,0-1.1,0.1-1.5,0.4   c-0.4,0.2-0.8,0.6-1.1,1c-0.3,0.4-0.5,0.9-0.7,1.5c-0.2,0.6-0.2,1.2-0.2,1.8v7.6H146V210.1z"></path>
</g>
<g class="st2">
	<path class="st3" d="M176,230.9c-1,0.9-2,1.5-3,1.9c-1,0.4-2,0.5-3.1,0.5c-1.8,0-3.2-0.4-4.2-1.3c-1-0.9-1.5-2-1.5-3.4   c0-0.8,0.2-1.5,0.6-2.2s0.8-1.2,1.4-1.6c0.6-0.4,1.3-0.7,2-0.9c0.5-0.1,1.4-0.3,2.5-0.4c2.3-0.3,3.9-0.6,5-1c0-0.4,0-0.6,0-0.7   c0-1.1-0.3-1.9-0.8-2.4c-0.7-0.6-1.8-0.9-3.2-0.9c-1.3,0-2.3,0.2-2.9,0.7c-0.6,0.5-1.1,1.3-1.4,2.4l-2.7-0.4   c0.2-1.2,0.7-2.1,1.2-2.8c0.6-0.7,1.4-1.3,2.5-1.7c1.1-0.4,2.3-0.6,3.7-0.6c1.4,0,2.6,0.2,3.4,0.5s1.5,0.7,1.9,1.3   c0.4,0.5,0.7,1.1,0.9,1.9c0.1,0.5,0.1,1.3,0.1,2.6v3.7c0,2.6,0.1,4.2,0.2,4.9c0.1,0.7,0.4,1.3,0.7,2h-2.9   C176.3,232.3,176.1,231.6,176,230.9z M175.8,224.6c-1,0.4-2.5,0.8-4.6,1.1c-1.1,0.2-2,0.4-2.4,0.6c-0.5,0.2-0.8,0.5-1.1,0.9   c-0.3,0.4-0.4,0.8-0.4,1.3c0,0.7,0.3,1.4,0.8,1.9s1.4,0.7,2.5,0.7c1.1,0,2-0.2,2.9-0.7c0.8-0.5,1.5-1.1,1.8-1.9   c0.3-0.6,0.5-1.6,0.5-2.8V224.6z M175,210.1h1.9c-0.2,1.3-0.6,2.3-1.4,3c-0.8,0.7-1.8,1-3.2,1c-1.3,0-2.4-0.3-3.2-1   c-0.8-0.7-1.3-1.7-1.4-3h1.9c0.1,0.7,0.4,1.2,0.9,1.6c0.4,0.3,1,0.5,1.7,0.5c0.8,0,1.5-0.2,1.9-0.5   C174.5,211.4,174.8,210.9,175,210.1z"></path>
</g>
<g class="st2">
	<path class="st3" d="M188.3,216.8c1.2,0,2.3,0.2,3.3,0.6c1,0.4,1.9,1,2.6,1.7c0.7,0.7,1.3,1.6,1.7,2.6c0.4,1,0.6,2.1,0.6,3.3   s-0.2,2.3-0.6,3.3c-0.4,1-1,1.9-1.7,2.6c-0.7,0.7-1.6,1.3-2.6,1.7c-1,0.4-2.1,0.6-3.3,0.6c-1.2,0-2.3-0.2-3.3-0.6   c-1-0.4-1.9-1-2.6-1.7c-0.7-0.7-1.3-1.6-1.7-2.6c-0.4-1-0.6-2.1-0.6-3.3s0.2-2.3,0.6-3.3c0.4-1,1-1.9,1.7-2.6   c0.7-0.7,1.6-1.3,2.6-1.7C186,217,187.1,216.8,188.3,216.8z M188.3,229.5c0.5,0,1-0.1,1.5-0.3c0.5-0.2,0.9-0.5,1.3-0.9   s0.7-0.8,0.9-1.4c0.2-0.6,0.3-1.2,0.3-1.9s-0.1-1.3-0.3-1.9c-0.2-0.6-0.5-1-0.9-1.4s-0.8-0.7-1.3-0.9c-0.5-0.2-1-0.3-1.5-0.3   c-0.6,0-1.1,0.1-1.6,0.3c-0.5,0.2-0.9,0.5-1.3,0.9s-0.7,0.8-0.9,1.4s-0.3,1.2-0.3,1.9s0.1,1.3,0.3,1.9c0.2,0.6,0.5,1,0.9,1.4   s0.8,0.7,1.3,0.9C187.2,229.4,187.8,229.5,188.3,229.5z"></path>
</g>
<g>
	<path class="st4" d="M140.8,103.5H6.9c-3.8,0-6.9,3.1-6.9,6.8c0,0,0,0,0,0v39.1c0,3.8,3.1,6.9,6.9,6.9h68.7l18.7,13.7   c1.2,0.8,2.8,0.6,3.6-0.6c0.3-0.4,0.5-1,0.5-1.5v-11.6h42.4c3.8,0,6.9-3.1,6.9-6.9v-39.1C147.7,106.6,144.6,103.5,140.8,103.5z"></path>
</g>
<g class="st2">
	<path class="st3" d="M13,134.3l5.6-6h-5.4v-2.5h9v2.4l-5.6,6h5.6v2.5H13V134.3z"></path>
</g>
<g class="st2">
	<path class="st3" d="M32.5,135.4h-0.2c-0.3,0.5-0.7,0.9-1.2,1.2c-0.6,0.3-1.3,0.5-2.1,0.5c-0.7,0-1.4-0.1-2-0.4   c-0.6-0.3-1.2-0.7-1.7-1.2c-0.5-0.5-0.9-1.1-1.1-1.8c-0.3-0.7-0.4-1.5-0.4-2.3c0-0.8,0.1-1.6,0.4-2.3c0.3-0.7,0.7-1.3,1.1-1.8   c0.5-0.5,1-0.9,1.7-1.2c0.6-0.3,1.3-0.4,2-0.4c0.8,0,1.5,0.2,2.1,0.5c0.6,0.3,1,0.7,1.2,1.2h0.2l-0.2-1.6v-4.8h2.9v15.9h-2.7V135.4   z M29.6,134.4c0.4,0,0.8-0.1,1.1-0.2s0.7-0.3,0.9-0.6s0.5-0.6,0.6-1c0.2-0.4,0.2-0.8,0.2-1.3c0-0.5-0.1-0.9-0.2-1.3   c-0.2-0.4-0.4-0.7-0.6-1s-0.6-0.5-0.9-0.6s-0.7-0.2-1.1-0.2c-0.4,0-0.8,0.1-1.1,0.2c-0.3,0.1-0.7,0.4-0.9,0.6s-0.5,0.6-0.6,1   c-0.2,0.4-0.2,0.8-0.2,1.3c0,0.5,0.1,0.9,0.2,1.3c0.2,0.4,0.4,0.7,0.6,1s0.6,0.5,0.9,0.6C28.9,134.3,29.2,134.4,29.6,134.4z"></path>
</g>
<g class="st2">
	<path class="st3" d="M38.2,125.8h2.7v1.5h0.2c0.1-0.3,0.3-0.5,0.5-0.7c0.2-0.2,0.5-0.4,0.7-0.6c0.3-0.2,0.6-0.3,0.9-0.4   c0.3-0.1,0.6-0.2,0.9-0.2c0.4,0,0.7,0,1,0.1c0.3,0.1,0.5,0.2,0.7,0.3l-0.8,2.6c-0.2-0.1-0.4-0.2-0.6-0.2s-0.5-0.1-0.8-0.1   c-0.4,0-0.8,0.1-1.1,0.2s-0.6,0.4-0.8,0.7c-0.2,0.3-0.4,0.6-0.5,1c-0.1,0.4-0.2,0.8-0.2,1.2v5.4h-2.9V125.8z"></path>
</g>
<g class="st2">
	<path class="st3" d="M53.9,135.6h-0.2c-0.3,0.4-0.8,0.8-1.2,1.1c-0.5,0.3-1.1,0.4-1.9,0.4c-0.6,0-1.1-0.1-1.6-0.3   c-0.5-0.2-0.9-0.4-1.3-0.8c-0.4-0.3-0.7-0.7-0.9-1.2c-0.2-0.5-0.3-1-0.3-1.5c0-0.6,0.1-1.1,0.3-1.5c0.2-0.5,0.5-0.8,0.9-1.2   c0.4-0.3,0.9-0.6,1.4-0.7c0.5-0.2,1.1-0.3,1.8-0.3c0.7,0,1.3,0.1,1.8,0.2s0.8,0.2,1.1,0.3v-0.3c0-0.6-0.2-1.1-0.7-1.4   s-1-0.6-1.7-0.6c-1,0-1.9,0.4-2.6,1.3l-2.1-1.4c1.2-1.5,2.7-2.2,4.7-2.2c1.7,0,3,0.4,3.9,1.2c0.9,0.8,1.3,2,1.3,3.5v6.5h-2.9V135.6   z M53.9,132.3c-0.3-0.2-0.7-0.3-1.1-0.4c-0.4-0.1-0.8-0.1-1.2-0.1c-0.7,0-1.2,0.2-1.6,0.5c-0.4,0.3-0.6,0.7-0.6,1.1   c0,0.4,0.2,0.8,0.5,1.1c0.4,0.3,0.8,0.4,1.3,0.4c0.4,0,0.7-0.1,1.1-0.2c0.3-0.1,0.6-0.3,0.8-0.6c0.2-0.2,0.4-0.5,0.5-0.8   S53.9,132.6,53.9,132.3z"></path>
	<path class="st3" d="M63.8,137.1c-0.7,0-1.3-0.1-1.9-0.3s-1-0.4-1.4-0.7s-0.8-0.6-1-1c-0.3-0.4-0.5-0.8-0.6-1.1l2.6-1.1   c0.3,0.6,0.6,1,1,1.3c0.4,0.3,0.9,0.4,1.4,0.4c0.5,0,1-0.1,1.3-0.3c0.3-0.2,0.5-0.4,0.5-0.7c0-0.3-0.1-0.5-0.4-0.7   s-0.7-0.4-1.3-0.5l-1.5-0.3c-0.3-0.1-0.7-0.2-1.1-0.4c-0.4-0.2-0.7-0.4-1-0.6c-0.3-0.3-0.5-0.6-0.7-0.9c-0.2-0.4-0.3-0.8-0.3-1.2   c0-0.5,0.1-1,0.3-1.4c0.2-0.4,0.5-0.8,0.9-1.1c0.4-0.3,0.9-0.5,1.4-0.7c0.5-0.2,1.1-0.2,1.7-0.2c1,0,2,0.2,2.8,0.6   c0.8,0.4,1.4,1.1,1.8,1.9l-2.5,1c-0.2-0.4-0.5-0.7-0.9-0.9c-0.4-0.2-0.8-0.3-1.2-0.3c-0.4,0-0.8,0.1-1.1,0.3   c-0.3,0.2-0.5,0.4-0.5,0.7c0,0.3,0.1,0.5,0.4,0.6s0.6,0.3,1.1,0.4l1.7,0.4c1.1,0.3,1.9,0.7,2.5,1.3c0.5,0.6,0.8,1.3,0.8,2.1   c0,0.5-0.1,0.9-0.3,1.4c-0.2,0.4-0.5,0.8-0.9,1.1c-0.4,0.3-0.9,0.6-1.5,0.8S64.5,137.1,63.8,137.1z"></path>
</g>
<g class="st2">
	<path class="st3" d="M71.7,128.3h-1.9v-2.5h1.9v-3.3h2.9v3.3h2.7v2.5h-2.7v4.4c0,0.3,0,0.5,0.1,0.7c0.1,0.2,0.2,0.4,0.3,0.6   c0.2,0.2,0.5,0.4,0.9,0.4c0.3,0,0.5,0,0.6-0.1c0.1-0.1,0.3-0.1,0.4-0.2l0.8,2.6c-0.3,0.2-0.7,0.3-1.1,0.4c-0.4,0.1-0.8,0.1-1.3,0.1   c-0.5,0-1-0.1-1.5-0.3s-0.8-0.4-1.1-0.7c-0.7-0.7-1-1.6-1-2.9V128.3z"></path>
</g>
<g class="st2">
	<path class="st3" d="M78.8,125.8h3.3l2.7,6.9H85l2.7-6.9H91l-4.7,10.9h-2.9L78.8,125.8z"></path>
	<path class="st3" d="M100.3,135.3h-0.2c-0.3,0.5-0.8,1-1.4,1.3s-1.2,0.5-2,0.5c-1.4,0-2.4-0.4-3.1-1.3c-0.7-0.8-1-2-1-3.4v-6.6h2.9   v6.2c0,0.8,0.2,1.4,0.5,1.7c0.3,0.4,0.9,0.6,1.5,0.6c0.4,0,0.8-0.1,1.1-0.3c0.3-0.2,0.6-0.4,0.8-0.7c0.2-0.3,0.4-0.6,0.5-1   c0.1-0.4,0.2-0.8,0.2-1.3v-5.3h2.9v10.9h-2.7V135.3z"></path>
</g>
<g class="st2">
	<path class="st3" d="M105.8,123.7c-0.4,0-0.8-0.2-1.1-0.5c-0.3-0.3-0.5-0.7-0.5-1.1c0-0.4,0.2-0.8,0.5-1.1c0.3-0.3,0.7-0.4,1.1-0.4   c0.4,0,0.8,0.1,1.1,0.4c0.3,0.3,0.4,0.7,0.4,1.1c0,0.4-0.1,0.8-0.4,1.1C106.6,123.5,106.2,123.7,105.8,123.7z M106.2,136.7v-10.9   h2.9v10.9H106.2z M109.5,123.6c-0.4,0-0.8-0.1-1.1-0.4s-0.5-0.6-0.5-1c0-0.4,0.2-0.8,0.5-1.1c0.3-0.3,0.7-0.4,1.1-0.4   c0.4,0,0.8,0.1,1.1,0.4c0.3,0.3,0.4,0.6,0.4,1.1c0,0.4-0.1,0.8-0.4,1C110.3,123.5,109.9,123.6,109.5,123.6z"></path>
</g>
<g class="st2">
	<path class="st3" d="M113.3,128.3h-1.9v-2.5h1.9v-3.3h2.9v3.3h2.7v2.5h-2.7v4.4c0,0.3,0,0.5,0.1,0.7c0.1,0.2,0.2,0.4,0.3,0.6   c0.2,0.2,0.5,0.4,0.9,0.4c0.3,0,0.5,0,0.6-0.1c0.1-0.1,0.3-0.1,0.4-0.2l0.8,2.6c-0.3,0.2-0.7,0.3-1.1,0.4c-0.4,0.1-0.8,0.1-1.3,0.1   c-0.5,0-1-0.1-1.5-0.3s-0.8-0.4-1.1-0.7c-0.7-0.7-1-1.6-1-2.9V128.3z"></path>
	<path class="st3" d="M121.2,125.8v-5h2.6v5H121.2z"></path>
	<path class="st3" d="M136.8,134.1c-0.5,0.9-1.2,1.6-2,2.2c-0.9,0.5-1.9,0.8-3.1,0.8c-0.8,0-1.6-0.1-2.3-0.4   c-0.7-0.3-1.3-0.7-1.8-1.2c-0.5-0.5-0.9-1.1-1.2-1.8c-0.3-0.7-0.4-1.5-0.4-2.3c0-0.8,0.1-1.5,0.4-2.2c0.3-0.7,0.7-1.3,1.2-1.8   c0.5-0.5,1.1-0.9,1.8-1.3c0.7-0.3,1.4-0.5,2.3-0.5c0.9,0,1.7,0.1,2.3,0.4c0.7,0.3,1.3,0.7,1.7,1.2c0.5,0.5,0.8,1.1,1,1.8   s0.4,1.5,0.4,2.3c0,0.1,0,0.2,0,0.3c0,0.1,0,0.2,0,0.2c0,0.1,0,0.2,0,0.2h-8.2c0.1,0.4,0.2,0.8,0.4,1.1s0.4,0.6,0.7,0.8   c0.3,0.2,0.6,0.4,0.9,0.5c0.3,0.1,0.7,0.1,1,0.1c0.7,0,1.2-0.2,1.7-0.5c0.4-0.3,0.8-0.7,1-1.1L136.8,134.1z M134.1,129.9   c0-0.2-0.1-0.4-0.2-0.6c-0.1-0.2-0.3-0.5-0.5-0.7c-0.2-0.2-0.5-0.4-0.8-0.5c-0.3-0.1-0.7-0.2-1.1-0.2c-0.6,0-1.2,0.2-1.6,0.5   c-0.5,0.4-0.8,0.9-1,1.5H134.1z"></path>
</g>
<g>
	<path class="st4" d="M465.8,0.7H280.4c-5.8,0-10.5,4.7-10.5,10.5v59.6c0,5.8,4.7,10.5,10.5,10.5l0,0h61l28.5,20.8   c1.8,1.3,4.3,0.8,5.6-1c0.4-0.6,0.7-1.4,0.7-2.2V81.2h89.6c5.8,0,10.5-4.7,10.5-10.5c0,0,0,0,0,0V11.1   C476.2,5.4,471.5,0.7,465.8,0.7C465.8,0.7,465.8,0.7,465.8,0.7z"></path>
</g>
<g class="st2">
	<path class="st3" d="M298.4,61.2c-1.3,0-2.5-0.2-3.5-0.5s-1.9-0.8-2.7-1.3s-1.4-1.1-1.9-1.8c-0.5-0.7-0.9-1.3-1.1-2l4.7-1.9   c0.4,1,0.9,1.7,1.7,2.3c0.8,0.5,1.7,0.8,2.7,0.8c1.6,0,2.8-0.5,3.7-1.5s1.4-2.4,1.4-4.2v-1.3h-0.3c-0.6,0.8-1.3,1.4-2.3,1.9   s-2.1,0.7-3.3,0.7c-1.1,0-2.2-0.2-3.2-0.7c-1-0.4-2-1.1-2.8-1.9c-0.8-0.8-1.5-1.8-2-3c-0.5-1.2-0.8-2.5-0.8-3.9   c0-1.4,0.3-2.8,0.8-3.9c0.5-1.2,1.2-2.2,2-3c0.8-0.8,1.7-1.5,2.8-1.9c1-0.4,2.1-0.7,3.2-0.7c1.3,0,2.4,0.2,3.3,0.7   c0.9,0.5,1.7,1.1,2.3,1.9h0.3v-2h4.7v17.1c0,1.6-0.2,3-0.7,4.2c-0.5,1.2-1.1,2.3-2,3.2c-0.9,0.9-1.9,1.5-3.1,2   C301.2,61,299.8,61.2,298.4,61.2z M298.6,48.1c0.6,0,1.2-0.1,1.8-0.3c0.6-0.2,1.1-0.5,1.6-1s0.8-1,1.1-1.6s0.4-1.4,0.4-2.2   c0-0.8-0.1-1.5-0.4-2.2s-0.6-1.2-1.1-1.6s-1-0.8-1.6-1c-0.6-0.2-1.2-0.3-1.8-0.3c-0.6,0-1.2,0.1-1.8,0.3c-0.6,0.2-1.1,0.6-1.5,1   c-0.5,0.4-0.8,1-1.1,1.6s-0.4,1.4-0.4,2.2c0,0.8,0.1,1.5,0.4,2.2s0.6,1.2,1.1,1.6c0.5,0.4,1,0.8,1.5,1S298,48.1,298.6,48.1z"></path>
	<path class="st3" d="M313.1,34h4.6v2.6h0.3c0.2-0.5,0.5-0.9,0.9-1.2c0.4-0.4,0.8-0.7,1.3-1c0.5-0.3,1-0.5,1.5-0.7   c0.5-0.2,1.1-0.3,1.6-0.3c0.7,0,1.2,0.1,1.7,0.2s0.9,0.3,1.2,0.5l-1.3,4.4c-0.3-0.2-0.6-0.3-1-0.4s-0.8-0.1-1.3-0.1   c-0.7,0-1.3,0.1-1.8,0.4c-0.6,0.3-1,0.6-1.4,1.1c-0.4,0.5-0.7,1-0.9,1.7c-0.2,0.6-0.3,1.3-0.3,2.1v9.1h-4.9V34z"></path>
	<path class="st3" d="M342,50.1h-0.3c-0.6,0.9-1.4,1.7-2.3,2.2c-1,0.5-2.1,0.8-3.4,0.8c-2.3,0-4.1-0.7-5.2-2.1   c-1.1-1.4-1.7-3.3-1.7-5.7V34h4.9v10.6c0,1.3,0.3,2.3,0.9,3c0.6,0.6,1.5,1,2.6,1c0.7,0,1.3-0.1,1.8-0.4c0.5-0.3,1-0.7,1.3-1.2   c0.4-0.5,0.6-1.1,0.8-1.7c0.2-0.7,0.3-1.4,0.3-2.1v-9h4.9v18.5H342V50.1z M334.5,30.4c-0.8,0-1.4-0.3-1.9-0.8   c-0.5-0.5-0.8-1.2-0.8-1.9c0-0.8,0.3-1.4,0.8-1.9s1.2-0.8,1.9-0.8s1.4,0.3,1.9,0.8s0.8,1.2,0.8,1.9c0,0.7-0.3,1.4-0.8,1.9   C335.9,30.1,335.3,30.4,334.5,30.4z M341.7,30.4c-0.7,0-1.4-0.3-1.9-0.8c-0.5-0.5-0.8-1.2-0.8-1.9c0-0.8,0.3-1.4,0.8-1.9   c0.5-0.5,1.2-0.8,1.9-0.8c0.8,0,1.4,0.3,1.9,0.8c0.5,0.5,0.8,1.2,0.8,1.9c0,0.7-0.3,1.4-0.8,1.9C343.1,30.1,342.5,30.4,341.7,30.4z   "></path>
	<path class="st3" d="M366,38.4c1.4,0.6,2.4,1.4,3.2,2.5c0.8,1.1,1.1,2.5,1.1,4.1c0,1.2-0.2,2.3-0.6,3.3c-0.4,1-1,1.8-1.8,2.6   c-0.8,0.7-1.7,1.3-2.8,1.7c-1.1,0.4-2.2,0.6-3.5,0.6c-0.4,0-0.8,0-1.1,0c-0.4,0-0.7-0.1-1.1-0.1v-4.6c0.6,0.1,1.2,0.2,1.9,0.2   c1.2,0,2.1-0.4,2.9-1.1c0.8-0.7,1.2-1.7,1.2-2.9c0-0.6-0.1-1.1-0.4-1.6c-0.2-0.5-0.6-0.9-1-1.3c-0.4-0.4-0.9-0.6-1.5-0.8   s-1.1-0.3-1.7-0.3h-1.1v-4.3h0.8c1.2,0,2.1-0.3,2.7-0.9s1-1.4,1-2.5c0-0.9-0.3-1.6-1-2.2c-0.7-0.6-1.5-0.9-2.5-0.9   c-1.2,0-2.1,0.4-2.7,1.1c-0.6,0.7-1,1.7-1,2.8v18.8h-4.9V33.6c0-1.2,0.2-2.3,0.6-3.3c0.4-1,1-1.9,1.7-2.7c0.7-0.7,1.6-1.3,2.7-1.8   c1.1-0.4,2.2-0.6,3.6-0.6c1.2,0,2.3,0.2,3.3,0.5s1.9,0.8,2.6,1.5c0.7,0.6,1.3,1.4,1.7,2.3c0.4,0.9,0.6,1.9,0.6,2.9   c0,1.3-0.3,2.4-0.9,3.4c-0.6,1-1.3,1.7-2.1,2.2V38.4z"></path>
</g>
<g class="st2">
</g>
<g class="st2">
	<path class="st3" d="M396.1,37.7h13.2c0.1,0.3,0.1,0.7,0.2,1.1c0.1,0.4,0.1,0.9,0.1,1.3c0,1.7-0.3,3.4-0.8,4.9   c-0.5,1.5-1.4,2.9-2.5,4.1c-1.2,1.3-2.7,2.3-4.3,3s-3.6,1.1-5.8,1.1c-2,0-3.8-0.4-5.5-1.1s-3.2-1.7-4.5-2.9   c-1.3-1.3-2.3-2.7-3.1-4.5c-0.8-1.7-1.1-3.6-1.1-5.6s0.4-3.9,1.1-5.6c0.8-1.7,1.8-3.2,3.1-4.5c1.3-1.3,2.8-2.2,4.5-2.9   c1.7-0.7,3.6-1.1,5.5-1.1c2.2,0,4.1,0.4,5.9,1.1c1.7,0.8,3.2,1.8,4.4,3.1l-3.5,3.4c-0.9-0.9-1.9-1.6-2.9-2.1   c-1.1-0.5-2.4-0.7-3.9-0.7c-1.2,0-2.4,0.2-3.5,0.7c-1.1,0.4-2.1,1.1-2.9,1.9s-1.5,1.8-2,2.9c-0.5,1.1-0.7,2.4-0.7,3.8   s0.2,2.7,0.7,3.8c0.5,1.1,1.2,2.1,2,2.9c0.8,0.8,1.8,1.4,2.9,1.9s2.3,0.7,3.5,0.7c1.4,0,2.6-0.2,3.6-0.6c1-0.4,1.8-0.9,2.5-1.6   c0.5-0.5,0.9-1,1.3-1.7c0.4-0.7,0.6-1.5,0.8-2.3h-8.5V37.7z"></path>
</g>
<g class="st2">
	<path class="st3" d="M422.5,33.4c1.4,0,2.7,0.2,3.9,0.7c1.2,0.5,2.2,1.2,3.1,2c0.9,0.9,1.5,1.9,2,3.1c0.5,1.2,0.7,2.5,0.7,4   c0,1.4-0.2,2.8-0.7,4c-0.5,1.2-1.2,2.2-2,3.1c-0.9,0.9-1.9,1.5-3.1,2c-1.2,0.5-2.5,0.7-3.9,0.7c-1.4,0-2.7-0.2-3.9-0.7   s-2.2-1.2-3.1-2c-0.9-0.9-1.5-1.9-2-3.1c-0.5-1.2-0.7-2.5-0.7-4c0-1.4,0.2-2.8,0.7-4c0.5-1.2,1.2-2.2,2-3.1c0.9-0.9,1.9-1.5,3.1-2   C419.8,33.7,421.1,33.4,422.5,33.4z M422.5,48.5c0.6,0,1.2-0.1,1.8-0.4c0.6-0.2,1.1-0.6,1.6-1c0.5-0.5,0.8-1,1.1-1.7   c0.3-0.7,0.4-1.4,0.4-2.2s-0.1-1.6-0.4-2.2c-0.3-0.7-0.6-1.2-1.1-1.7s-1-0.8-1.6-1c-0.6-0.2-1.2-0.4-1.8-0.4   c-0.7,0-1.3,0.1-1.8,0.4c-0.6,0.2-1.1,0.6-1.5,1s-0.8,1-1.1,1.7c-0.3,0.7-0.4,1.4-0.4,2.2s0.1,1.6,0.4,2.2c0.3,0.7,0.6,1.2,1.1,1.7   c0.5,0.5,1,0.8,1.5,1C421.3,48.4,421.9,48.5,422.5,48.5z"></path>
</g>
<g class="st2">
	<path class="st3" d="M442.7,45.4c0,0.4,0,0.8,0.1,1.2s0.3,0.7,0.5,0.9c0.4,0.4,0.9,0.6,1.5,0.6c0.4,0,0.7,0,0.9-0.1   s0.5-0.2,0.8-0.3l0.3,4.6c-0.5,0.2-1,0.3-1.4,0.4s-1,0.1-1.6,0.1c-0.9,0-1.8-0.1-2.5-0.4c-0.7-0.3-1.4-0.7-1.9-1.2   c-1.2-1.1-1.8-2.7-1.8-4.8v-8.1h-3.2V34h3.2v-5.7h4.9V34h7.1v-5.7h4.9V34h4.5v4.2h-4.5v7.2c0,0.4,0,0.8,0.1,1.2   c0.1,0.4,0.3,0.7,0.5,0.9c0.4,0.4,0.9,0.6,1.5,0.6c0.4,0,0.8,0,1-0.1c0.3-0.1,0.5-0.2,0.7-0.4L460,52c-0.6,0.3-1.2,0.5-1.9,0.6   c-0.7,0.1-1.4,0.2-2.2,0.2c-0.9,0-1.8-0.1-2.5-0.4c-0.7-0.3-1.4-0.7-1.9-1.2c-1.2-1.1-1.8-2.7-1.8-4.8v-8.1h-7.1V45.4z"></path>
</g>
<g>
	<path class="st0" d="M507.5,163.3H313.9c-5.5,0-9.9,4.4-9.9,9.9c0,0,0,0,0,0v56.5c0,5.5,4.4,9.9,9.9,9.9l0,0h99.3l27.1,19.8   c1.7,1.2,4,0.9,5.2-0.8c0.5-0.6,0.7-1.4,0.7-2.2v-16.8h61.3c5.5,0,9.9-4.4,9.9-9.9c0,0,0,0,0,0v-56.5   C517.4,167.7,513,163.3,507.5,163.3C507.5,163.3,507.5,163.3,507.5,163.3z"></path>
</g>
<g>
	<path class="st5" d="M405.9,195c1.8,4.4,1.8,9.3,0.1,13.7l-0.1-0.1h-34.1h-0.1c-0.9-2.1-1.3-4.4-1.3-6.7c0-2.4,0.5-4.8,1.4-7   L405.9,195L405.9,195z"></path>
</g>
<g>
	<path class="st6" d="M405.8,208.6l0.1,0.1c-3.7,9.5-14.4,14.2-23.9,10.4c-4.8-1.9-8.6-5.7-10.4-10.4h0.1L405.8,208.6z"></path>
</g>
<g>
	<path class="st7" d="M405.9,195h-34.2c3.9-9.4,14.6-14,24.1-10.1C400.3,186.8,404,190.4,405.9,195L405.9,195z"></path>
</g>
<g>
	<path class="st1" d="M452.2,208.3c-3.5,9.6-14.1,14.5-23.7,11c-5.1-1.9-9.1-5.9-11-11l0.1-0.1H452L452.2,208.3z"></path>
</g>
<g>
	<path class="st3" d="M452.2,208.3l-0.2-0.1h-34.3l-0.1,0.1c-0.7-2-1.1-4.2-1.1-6.4c0-2.4,0.5-4.7,1.4-6.9H452   C453.7,199.3,453.8,204,452.2,208.3L452.2,208.3z"></path>
</g>
<g>
	<path class="st5" d="M451.9,195h-34.2c3.8-9.4,14.6-14,24-10.2C446.4,186.7,450.1,190.4,451.9,195z"></path>
</g>
<g>
	<path class="st3" d="M498,198.3c0.5,2.4,0.5,4.8,0,7.2h-21.7v-7.2H498z"></path>
</g>
<g>
	<path class="st5" d="M498,198.3h-21.7v-14.5c1.2-0.2,2.4-0.3,3.6-0.4C488.7,183.5,496.3,189.7,498,198.3z"></path>
</g>
<g>
	<path class="st5" d="M476.3,205.6H498c-1.7,8.6-9.3,14.8-18.1,14.8c-1.2,0-2.4-0.1-3.6-0.4L476.3,205.6z"></path>
</g>
<g>
	<path class="st3" d="M476.3,205.6V220c-2.6-0.5-5.1-1.6-7.2-3.2v-11.3H476.3z"></path>
</g>
<g>
	<rect x="469" y="198.3" class="st3" width="7.2" height="7.2"></rect>
</g>
<g>
	<path class="st3" d="M476.3,183.8v14.5H469V187C471.2,185.4,473.7,184.3,476.3,183.8z"></path>
</g>
<g>
	<path class="st5" d="M469,205.6v11.3c-3.8-2.7-6.3-6.8-7.3-11.3L469,205.6z"></path>
</g>
<g>
	<path class="st3" d="M469,198.3v7.2h-7.3c-0.5-2.4-0.5-4.8,0-7.2H469z"></path>
</g>
<g>
	<path class="st5" d="M469,187v11.3h-7.3C462.7,193.8,465.3,189.7,469,187z"></path>
</g>
<g>
	<path class="st8" d="M361.9,201.9c0,0.2,0,0.3,0,0.5H343v-4.6h18.5C361.8,199.2,361.9,200.5,361.9,201.9z"></path>
</g>
<g>
	<path class="st3" d="M343,202.4h18.9c0,1.7-0.3,3.3-0.8,4.9H343V202.4z"></path>
</g>
<g>
	<path class="st3" d="M361.4,197.8H343v-2.7h17.6C361,196,361.2,196.9,361.4,197.8z"></path>
</g>
<g>
	<path class="st8" d="M343,207.3h18.1c-0.6,1.8-1.4,3.5-2.4,5H343V207.3z"></path>
</g>
<g>
	<path class="st3" d="M360.6,195.1H343v-2.4h16.5C359.9,193.5,360.3,194.3,360.6,195.1z"></path>
</g>
<g>
	<path class="st8" d="M359.4,192.8H343v-2h15.1C358.6,191.4,359,192.1,359.4,192.8z"></path>
</g>
<g>
	<path class="st3" d="M343,212.3h15.7c-1.4,2-3.1,3.7-5.2,5H343V212.3z"></path>
</g>
<g>
	<path class="st8" d="M358.1,190.7H343v-3h12.2C356.3,188.6,357.2,189.6,358.1,190.7z"></path>
</g>
<g>
	<path class="st3" d="M355.2,187.7H343v-4.2c0.2,0,0.3,0,0.5,0C347.8,183.5,351.9,185,355.2,187.7z"></path>
</g>
<g>
	<path class="st8" d="M343,217.4h10.5c-6.1,4-14,4-20.1,0H343z"></path>
</g>
<g>
	<path class="st3" d="M343,217.2v0.1h-9.6c-2-1.3-3.8-3-5.2-5H343V217.2z"></path>
</g>
<g>
	<polygon class="st1" points="343,192.8 343,195.1 343,197.8 338.4,197.8 340.7,196.1 337.6,196.1 336.7,193.2 336.7,192.8  "></polygon>
</g>
<g>
	<path class="st1" d="M343,190.7v2h-15.6c1.1-1.9,2.5-3.6,4.2-5.1h2.6l0.9,0.7l-0.9,2.9l2.5-1.8l2.5,1.8l-0.9-2.9l0.9-0.7h3.9V190.7   z"></path>
</g>
<g>
	<path class="st8" d="M343,207.3v5h-14.8c-1.1-1.5-1.9-3.2-2.4-5H343z"></path>
</g>
<g>
	<path class="st3" d="M343,202.4v4.9h-17.2c-0.5-1.6-0.8-3.2-0.8-4.9H343z"></path>
</g>
<g>
	<path class="st1" d="M343,197.8v4.6h-18c0-0.2,0-0.3,0-0.5c0-0.6,0-1.3,0.1-1.9l1.4-1l2.5,1.8l-1-2.9l0.1-0.1h7l0.1,0.1l-0.9,2.9   l2.5-1.8l2.5,1.8l-0.9-2.9l0.1-0.1L343,197.8z"></path>
</g>
<g>
	<path class="st1" d="M343,183.5v4.2h-3.8l1.6-1.1h-3l-0.6-1.9C339,183.9,341,183.5,343,183.5z"></path>
</g>
<g>
	<path class="st3" d="M340.7,186.6l-1.6,1.1h-4.9l-1.3-1l0.3-0.2h2.5l0.5-1.6c0.2-0.1,0.5-0.2,0.7-0.3l0.6,1.9L340.7,186.6z"></path>
</g>
<g>
	<polygon class="st3" points="340.7,196.1 338.4,197.8 335.1,197.8 332.7,196.1 335.8,196.1 336.7,193.2 337.6,196.1  "></polygon>
</g>
<g>
	<polygon class="st3" points="338.2,188.4 339.2,191.3 336.7,189.5 334.2,191.3 335.2,188.4 334.3,187.7 339.1,187.7  "></polygon>
</g>
<g>
	<polygon class="st3" points="338.2,197.9 339.2,200.8 336.7,199 334.2,200.8 335.2,197.9 335.1,197.8 338.4,197.8  "></polygon>
</g>
<g>
	<path class="st3" d="M336.7,183.7l0.3,1c-0.2,0.1-0.5,0.2-0.7,0.3L336.7,183.7z"></path>
</g>
<g>
	<path class="st1" d="M336.7,192.8v0.4l-0.9,2.9h-3.1l2.4,1.7h-7l2.4-1.7h-3l-0.7-2.1c0.2-0.4,0.4-0.9,0.7-1.3H336.7z"></path>
</g>
<g>
	<path class="st1" d="M336.3,184.9l-0.5,1.6h-2.5C334.2,185.9,335.2,185.4,336.3,184.9z"></path>
</g>
<g>
	<path class="st1" d="M333,186.7l1.3,1h-2.6C332.1,187.4,332.5,187.1,333,186.7z"></path>
</g>
<g>
	<path class="st3" d="M332.7,186.6h0.5l-0.3,0.2L332.7,186.6z"></path>
</g>
<g>
	<path class="st3" d="M330.5,196.1l-2.4,1.7h-2.7c0.3-1.3,0.7-2.6,1.3-3.8l0.7,2.1L330.5,196.1z"></path>
</g>
<g>
	<path class="st3" d="M328,197.9l1,2.9l-2.5-1.8l-1.4,1c0.1-0.7,0.2-1.5,0.4-2.2h2.7L328,197.9z"></path>
</g>
<g>
	<path class="st3" d="M326.5,193.2l0.3,0.8c-0.6,1.2-1,2.5-1.3,3.8h-0.6l-2.4-1.7h3L326.5,193.2z"></path>
</g>
<g>
	<path class="st3" d="M324.8,197.8h0.6c-0.2,0.7-0.3,1.5-0.4,2.2l-1.1,0.8l0.9-2.9L324.8,197.8z"></path>
</g>
<g>
	<path class="st6" d="M85.1,29.9c0.7,1.8,1.1,3.7,1.1,5.6c0,1.8-0.3,3.7-1,5.4h-0.1H57.8h-0.1c-0.7-1.7-1-3.5-1-5.4   c0-1.9,0.4-3.8,1.1-5.6L85.1,29.9L85.1,29.9z"></path>
</g>
<g>
	<path class="st5" d="M85,40.8L85,40.8c-2.9,7.6-11.4,11.3-19,8.3c-3.8-1.5-6.8-4.5-8.3-8.3h0.1H85z"></path>
</g>
<g>
	<path class="st5" d="M85.1,29.9H57.8c3.1-7.5,11.7-11.2,19.2-8.1C80.6,23.3,83.6,26.2,85.1,29.9z"></path>
</g>
<g>
	<path class="st5" d="M113,21.9c7.6,2.9,11.4,11.4,8.6,19c-1.5,3.9-4.6,7.1-8.6,8.6V21.9L113,21.9z"></path>
</g>
<g>
	<path class="st3" d="M113,21.9v27.5c-1.7,0.7-3.4,1-5.2,1c-2,0-4-0.4-5.9-1.2v-27c1.9-0.8,3.9-1.2,5.9-1.2   C109.6,21,111.3,21.3,113,21.9L113,21.9z"></path>
</g>
<g>
	<path class="st9" d="M101.9,22.1v27c-7.5-3.3-10.9-11.9-7.6-19.4C95.7,26.3,98.5,23.6,101.9,22.1z"></path>
</g>
<g>
	<path class="st10" d="M147.8,21.9c7.6,2.9,11.4,11.4,8.6,19c-1.5,3.9-4.6,7.1-8.6,8.6V21.9L147.8,21.9z"></path>
</g>
<g>
	<path class="st3" d="M147.8,21.9v27.5c-1.7,0.7-3.4,1-5.2,1c-2,0-4-0.4-5.9-1.2v-27c1.9-0.8,3.9-1.2,5.9-1.2   C144.3,21,146.1,21.3,147.8,21.9L147.8,21.9z"></path>
</g>
<g>
	<path class="st9" d="M136.7,22.1v27c-7.5-3.3-10.9-12-7.6-19.4C130.6,26.3,133.3,23.6,136.7,22.1z"></path>
</g>
<g>
	<path class="st5" d="M66.2,28.5c0,1.2-0.4,2.8-2.2,2.8s-2.2-1.6-2.2-2.8v-1.9h4.4L66.2,28.5z"></path>
</g>
<g>
	<ellipse class="st5" cx="64" cy="25.5" rx="2" ry="1.1"></ellipse>
</g>
<g>
	<rect x="60.3" y="24.7" class="st5" width="1.1" height="6.6"></rect>
</g>
<g>
	<rect x="66.6" y="24.7" class="st5" width="1.1" height="6.6"></rect>
</g>
<g>
	<path class="st11" d="M309.8,94H199.1c-5.9,0-10.7,4.8-10.7,10.7v60.8c0,5.9,4.8,10.7,10.7,10.7h62.2l29.1,21.3   c1.8,1.3,4.3,1,5.6-0.8c0.5-0.7,0.8-1.6,0.8-2.5v-18h13c5.9,0,10.7-4.8,10.7-10.7v0v-60.9C320.5,98.7,315.7,94,309.8,94z"></path>
</g>
<g class="st2">
	<path class="st3" d="M215.9,120.2h5.2v11h11.6v-11h5.2v27.5h-5.2v-11.6h-11.6v11.6h-5.2V120.2z"></path>
</g>
<g class="st2">
	<path class="st3" d="M252.5,128.2c1.5,0,2.8,0.2,4,0.7c1.2,0.5,2.3,1.2,3.2,2.1c0.9,0.9,1.6,1.9,2.1,3.2c0.5,1.2,0.7,2.6,0.7,4   c0,1.5-0.2,2.8-0.7,4c-0.5,1.2-1.2,2.3-2.1,3.2c-0.9,0.9-1.9,1.6-3.2,2.1c-1.2,0.5-2.6,0.8-4,0.8s-2.8-0.2-4-0.8   c-1.2-0.5-2.3-1.2-3.2-2.1c-0.9-0.9-1.6-1.9-2.1-3.2c-0.5-1.2-0.7-2.6-0.7-4c0-1.5,0.2-2.8,0.7-4c0.5-1.2,1.2-2.3,2.1-3.2   c0.9-0.9,1.9-1.6,3.2-2.1C249.7,128.5,251,128.2,252.5,128.2z M252.5,143.7c0.6,0,1.3-0.1,1.9-0.4c0.6-0.2,1.1-0.6,1.6-1.1   c0.5-0.5,0.8-1,1.1-1.7c0.3-0.7,0.4-1.4,0.4-2.3c0-0.8-0.1-1.6-0.4-2.3c-0.3-0.7-0.6-1.2-1.1-1.7c-0.5-0.5-1-0.8-1.6-1.1   c-0.6-0.2-1.2-0.4-1.9-0.4c-0.7,0-1.3,0.1-1.9,0.4c-0.6,0.2-1.1,0.6-1.6,1.1c-0.5,0.5-0.8,1-1.1,1.7c-0.3,0.7-0.4,1.4-0.4,2.3   c0,0.8,0.1,1.6,0.4,2.3c0.3,0.7,0.6,1.2,1.1,1.7c0.5,0.5,1,0.8,1.6,1.1C251.2,143.5,251.8,143.7,252.5,143.7z"></path>
	<path class="st3" d="M265.9,147.7v-27.5h5v27.5H265.9z"></path>
</g>
<g class="st2">
	<path class="st3" d="M287.8,145.7h-0.3c-0.6,0.7-1.3,1.3-2.1,1.8c-0.8,0.5-1.9,0.8-3.2,0.8c-1,0-1.9-0.2-2.7-0.5   c-0.9-0.3-1.6-0.8-2.2-1.3s-1.1-1.2-1.5-2c-0.4-0.8-0.5-1.7-0.5-2.6c0-1,0.2-1.9,0.6-2.6c0.4-0.8,0.9-1.5,1.6-2   c0.7-0.6,1.5-1,2.4-1.3c0.9-0.3,2-0.4,3.1-0.4c1.2,0,2.2,0.1,3,0.3c0.8,0.2,1.4,0.4,2,0.6v-0.6c0-1-0.4-1.8-1.2-2.5   c-0.8-0.7-1.8-1-3-1c-1.7,0-3.2,0.7-4.4,2.2l-3.7-2.5c2-2.5,4.7-3.8,8.2-3.8c2.9,0,5.1,0.7,6.7,2.1c1.5,1.4,2.3,3.4,2.3,6.1v11.3   h-5V145.7z M287.8,140c-0.6-0.3-1.2-0.5-1.8-0.7c-0.6-0.2-1.3-0.2-2.1-0.2c-1.2,0-2.1,0.3-2.8,0.8c-0.7,0.5-1,1.2-1,1.9   s0.3,1.4,0.9,1.8c0.6,0.5,1.4,0.7,2.2,0.7c0.7,0,1.3-0.1,1.8-0.4s1-0.6,1.4-1c0.4-0.4,0.7-0.9,0.9-1.4   C287.7,141.2,287.8,140.6,287.8,140z"></path>
</g>
</svg>