<svg xmlns="http://www.w3.org/2000/svg" xmlns:xlink="http://www.w3.org/1999/xlink" id="Layer_1" x="0px" y="0px" viewBox="0 0 195.1 195.1" style="enable-background:new 0 0 195.1 195.1;" xml:space="preserve">
<style type="text/css">
	.st0{fill:#F4F4F4;}
	.st1{fill:#FF8388;}
	.st2{fill:#FFFFFF;}
	.st3{enable-background:new    ;}
	.st4{fill:#022494;}
</style>
<g>
	<path class="st0" d="M18.2,0h158.6c10.1,0,18.2,8.2,18.2,18.2v158.6c0,10.1-8.2,18.2-18.2,18.2H18.2C8.2,195.1,0,186.9,0,176.8   V18.2C0,8.2,8.2,0,18.2,0z"></path>
</g>
<g>
	<path class="st1" d="M127.2,179.1l-27.6-16.6c-0.7-0.4-1.5-0.4-2.2,0l-27.3,16.5c-1,0.6-2.3,0.3-3-0.7c-0.2-0.3-0.3-0.7-0.3-1.1   v-73.7h63.7v73.7c0,1.2-1,2.2-2.2,2.2C127.9,179.4,127.5,179.3,127.2,179.1z"></path>
</g>
<g>
	<path class="st1" d="M104.8,21c1.9,3.4,6.3,4.6,9.7,2.7c0.3-0.2,0.6-0.4,0.9-0.6c3.1-2.4,7.5-1.9,10,1.2c0.8,1,1.3,2.2,1.5,3.5   c0.5,3.9,4,6.7,7.9,6.2c0.4,0,0.8-0.1,1.1-0.2c3.8-1,7.7,1.2,8.7,4.9c0.3,1.2,0.3,2.6,0,3.8c-1.1,3.8,1.1,7.7,4.9,8.8   c0.4,0.1,0.7,0.2,1.1,0.2c3.9,0.5,6.7,4,6.2,7.9c-0.2,1.3-0.7,2.5-1.5,3.5c-2.4,3.1-1.9,7.5,1.2,10c0.3,0.2,0.6,0.4,0.9,0.6   c3.4,1.9,4.6,6.3,2.7,9.7c-0.6,1.1-1.6,2.1-2.7,2.7c-3.4,1.9-4.6,6.3-2.7,9.7c0.2,0.3,0.4,0.6,0.6,0.9c2.4,3.1,1.9,7.6-1.2,10   c-1,0.8-2.2,1.3-3.5,1.5c-3.9,0.5-6.7,4-6.2,7.9c0,0.4,0.1,0.7,0.2,1.1c1.1,3.8-1.2,7.7-4.9,8.7c-1.2,0.3-2.6,0.3-3.8,0   c-3.8-1.1-7.7,1.1-8.8,4.9c-0.1,0.4-0.2,0.8-0.2,1.1c-0.5,3.9-4,6.7-7.9,6.2c-1.3-0.2-2.5-0.7-3.5-1.5c-3.1-2.4-7.5-1.9-10,1.2   c-0.2,0.3-0.4,0.6-0.6,0.9c-1.9,3.4-6.3,4.6-9.7,2.7c-1.1-0.6-2.1-1.6-2.7-2.7c-1.9-3.4-6.3-4.6-9.7-2.7c-0.3,0.2-0.6,0.4-0.9,0.6   c-3.1,2.4-7.6,1.9-10-1.2c-0.8-1-1.3-2.2-1.5-3.5c-0.5-3.9-4-6.7-7.9-6.2c-0.4,0-0.7,0.1-1.1,0.2c-3.8,1.1-7.7-1.2-8.7-4.9   c-0.3-1.2-0.3-2.6,0-3.8c1.1-3.8-1.1-7.7-4.9-8.8c-0.4-0.1-0.7-0.2-1.1-0.2c-3.9-0.5-6.7-4-6.2-7.9c0.2-1.3,0.7-2.5,1.5-3.5   c2.5-3.1,2-7.5-1.1-10c-0.3-0.2-0.6-0.5-1-0.6c-3.4-1.9-4.6-6.3-2.7-9.7c0.6-1.1,1.6-2.1,2.7-2.7c3.4-1.9,4.6-6.3,2.7-9.7   c-0.2-0.3-0.4-0.6-0.6-0.9c-2.4-3.1-1.9-7.5,1.2-10c1-0.8,2.2-1.3,3.5-1.5c3.9-0.5,6.7-4,6.2-7.9c0-0.4-0.1-0.7-0.2-1.1   c-1-3.8,1.2-7.7,4.9-8.7c1.2-0.3,2.6-0.3,3.8,0c3.8,1,7.7-1.2,8.7-4.9c0.1-0.3,0.2-0.7,0.2-1.1c0.5-3.9,4-6.7,7.9-6.2   c1.3,0.2,2.5,0.7,3.5,1.5c3.1,2.4,7.6,1.9,10-1.2c0.2-0.3,0.4-0.5,0.6-0.8c1.9-3.4,6.2-4.6,9.7-2.7C103.2,18.9,104.2,19.9,104.8,21   z"></path>
</g>
<g>
	<path class="st2" d="M140.5,79.7c0,23.1-18.7,41.9-41.9,41.9s-41.9-18.7-41.9-41.9s18.7-41.9,41.9-41.9   C121.7,37.8,140.5,56.5,140.5,79.7C140.5,79.6,140.5,79.6,140.5,79.7z"></path>
</g>
<g class="st3">
	<path class="st4" d="M78.3,87h-0.3c-0.6,0.7-1.3,1.4-2.2,1.9c-0.9,0.5-2,0.8-3.3,0.8c-1,0-1.9-0.2-2.8-0.5   c-0.9-0.3-1.7-0.8-2.3-1.4c-0.7-0.6-1.2-1.3-1.5-2.1c-0.4-0.8-0.6-1.7-0.6-2.7c0-1,0.2-1.9,0.6-2.7c0.4-0.8,0.9-1.5,1.7-2.1   s1.5-1,2.5-1.3c1-0.3,2-0.5,3.1-0.5c1.3,0,2.3,0.1,3.1,0.3c0.8,0.2,1.5,0.4,2,0.6v-0.6c0-1-0.4-1.9-1.2-2.6c-0.8-0.7-1.8-1-3-1   c-1.8,0-3.3,0.8-4.5,2.3l-3.8-2.6c2.1-2.6,4.9-3.9,8.4-3.9c3,0,5.3,0.7,6.9,2.1c1.6,1.4,2.4,3.5,2.4,6.3v11.6h-5.1V87z M78.3,81.2   c-0.6-0.3-1.2-0.5-1.9-0.7c-0.6-0.2-1.4-0.3-2.1-0.3c-1.2,0-2.2,0.3-2.9,0.8c-0.7,0.5-1,1.2-1,2s0.3,1.4,1,1.9   c0.6,0.5,1.4,0.7,2.2,0.7c0.7,0,1.3-0.1,1.9-0.4c0.6-0.2,1.1-0.6,1.5-1c0.4-0.4,0.7-0.9,0.9-1.4C78.1,82.3,78.3,81.8,78.3,81.2z"></path>
	<path class="st4" d="M88.2,60.7h5.2v8.5L93.1,72h0.3c0.5-0.8,1.2-1.5,2.2-2.1c1-0.6,2.2-0.9,3.7-0.9c1.2,0,2.4,0.3,3.5,0.8   c1.1,0.5,2.1,1.2,3,2.1c0.9,0.9,1.5,2,2,3.3s0.8,2.7,0.8,4.2s-0.3,2.9-0.8,4.2s-1.2,2.4-2,3.3c-0.9,0.9-1.8,1.6-3,2.1   c-1.1,0.5-2.3,0.8-3.5,0.8c-1.5,0-2.7-0.3-3.7-0.9c-1-0.6-1.7-1.3-2.2-2.1h-0.3v2.3h-4.9V60.7z M98.3,84.9c0.7,0,1.3-0.1,2-0.4   c0.6-0.3,1.2-0.6,1.6-1.1s0.9-1.1,1.1-1.7c0.3-0.7,0.4-1.5,0.4-2.3s-0.1-1.6-0.4-2.3c-0.3-0.7-0.7-1.3-1.1-1.7s-1-0.8-1.6-1.1   c-0.6-0.3-1.3-0.4-2-0.4c-0.7,0-1.3,0.1-2,0.4c-0.6,0.2-1.2,0.6-1.6,1.1s-0.9,1.1-1.1,1.7c-0.3,0.7-0.4,1.5-0.4,2.3   s0.1,1.6,0.4,2.3c0.3,0.7,0.7,1.3,1.1,1.7s1,0.8,1.6,1.1C96.9,84.8,97.6,84.9,98.3,84.9z"></path>
	<path class="st4" d="M131.1,84.1c-0.8,1.6-2,3-3.5,4c-1.5,1-3.4,1.6-5.7,1.6c-1.5,0-2.9-0.3-4.1-0.8c-1.3-0.5-2.3-1.2-3.2-2.2   c-0.9-0.9-1.6-2-2.1-3.3c-0.5-1.3-0.8-2.6-0.8-4.1s0.3-2.9,0.8-4.2c0.5-1.3,1.2-2.4,2.1-3.3c0.9-0.9,2-1.6,3.2-2.1   c1.3-0.5,2.6-0.8,4.1-0.8c2.2,0,4.1,0.5,5.7,1.5c1.5,1,2.6,2.4,3.4,4l-4.7,2c-0.4-0.9-1-1.6-1.7-2c-0.7-0.5-1.6-0.7-2.6-0.7   c-0.7,0-1.3,0.1-1.9,0.4s-1.1,0.6-1.6,1.1c-0.5,0.5-0.8,1.1-1.1,1.7s-0.4,1.5-0.4,2.3s0.1,1.6,0.4,2.3s0.6,1.3,1.1,1.7   c0.5,0.5,1,0.8,1.6,1.1s1.3,0.4,1.9,0.4c1.1,0,2-0.2,2.7-0.7c0.8-0.5,1.4-1.2,1.8-2.1L131.1,84.1z"></path>
</g>
</svg>