<svg xmlns="http://www.w3.org/2000/svg" id="Layer_1" data-name="Layer 1" viewBox="0 0 536.8 452.96"><defs><style>.cls-1{fill:#f4f4f4;}.cls-2{fill:#022494;}.cls-3{fill:#269ef7;}.cls-4{fill:#fff;}.cls-5{fill:#ff8388;}</style></defs><rect class="cls-1" x="164.65" y="135.53" width="213.16" height="274.64" rx="8.38"></rect><rect class="cls-2" x="190.14" y="179.11" width="162.18" height="11.71" rx="5.86"></rect><rect class="cls-2" x="190.14" y="208.85" width="162.18" height="11.71" rx="5.86"></rect><rect class="cls-2" x="190.14" y="238.58" width="162.18" height="11.71" rx="5.86"></rect><rect class="cls-2" x="190.14" y="268.31" width="162.18" height="11.71" rx="5.86"></rect><rect class="cls-2" x="190.14" y="298.05" width="162.18" height="11.71" rx="5.86"></rect><rect class="cls-2" x="190.14" y="327.78" width="162.18" height="11.71" rx="5.86"></rect><rect class="cls-2" x="190.14" y="357.51" width="162.18" height="11.71" rx="5.86"></rect><path class="cls-1" d="M28.1,312a72.69,72.69,0,0,1,109.53,14.94l36.66,7.53a3.42,3.42,0,0,1,1.59,5.9l-26.75,23.86A72.68,72.68,0,1,1,28.1,312Z"></path><path class="cls-3" d="M82.66,453a72.65,72.65,0,0,0,71.79-84l22.35-30a3.41,3.41,0,0,0-2.74-5.45H138.21A72.68,72.68,0,1,0,82.66,453Z"></path><circle class="cls-4" cx="66.94" cy="362.53" r="3.67"></circle><circle class="cls-4" cx="98.63" cy="362.53" r="3.67"></circle><path class="cls-4" d="M99,363.22c0,8.84-3.54,19-16,19s-16-10.15-16-19,1.14-24.35,16-24.35C96.39,338.87,99,354.37,99,363.22Z"></path><polyline class="cls-4" points="77.55 378.6 77.55 393.15 88.32 393.15 88.32 375.01"></polyline><path class="cls-2" d="M81.4,387.55h9.32c0,2.55,2.51,4.61,5.6,4.61H99c6.32,0,11.83,3.72,12.83,8.85a140.12,140.12,0,0,1,1.44,17.79,5,5,0,0,1-5,5.15H82.48"></path><path class="cls-2" d="M85.07,387.55H75.75c0,2.55-2.51,4.61-5.6,4.61H67.52c-6.32,0-11.85,3.71-12.82,8.85a134.83,134.83,0,0,0-1.46,17.79,5,5,0,0,0,5,5.15H84"></path><path class="cls-2" d="M77.77,372.81a6.13,6.13,0,0,0,4.9,2.85,6.61,6.61,0,0,0,5.07-2.85Z"></path><path class="cls-1" d="M448.51,176.69a72.73,72.73,0,0,0-61.08,92.14l-18.54,32.51a3.41,3.41,0,0,0,3.38,5.08l35.58-4.34a72.68,72.68,0,1,0,40.66-125.39Z"></path><path class="cls-3" d="M464.12,186.8a72.69,72.69,0,0,0-72.69,72.69,73.5,73.5,0,0,0,.89,11.37l-22.34,30a3.42,3.42,0,0,0,2.74,5.46h35.84A72.68,72.68,0,1,0,464.12,186.8Z"></path><path class="cls-4" d="M492.45,236.36c0-2.3,2.93-4.88,2.44-7s-4.27-3.27-5.24-5.27.54-5.64-.86-7.38-5.26-1.08-7-2.48-1.94-5.31-4-6.29-5.17,1.32-7.38.82-4-3.94-6.31-3.94-4.17,3.45-6.31,3.94-5.39-1.78-7.39-.82-2.23,4.9-4,6.29-5.61.72-7,2.48.12,5.35-.86,7.38-4.74,3.06-5.24,5.27,2.44,4.73,2.44,7-2.93,4.88-2.44,7,4.28,3.27,5.24,5.27-.53,5.64.86,7.39,5.26,1.07,7,2.47,1.94,5.31,4,6.29,5.17-1.32,7.39-.81,4,3.93,6.31,3.93,4.16-3.45,6.3-3.93,5.4,1.77,7.39.81,2.23-4.9,4-6.29,5.61-.72,7-2.47-.12-5.36.86-7.39,4.74-3.06,5.24-5.27S492.45,238.65,492.45,236.36Z"></path><path class="cls-2" d="M479.58,245.45c0,8.86-3.54,19-16,19s-16-10.15-16-19,1.15-22.45,16-22.45C477,223,479.58,236.59,479.58,245.45Z"></path><polyline class="cls-2" points="458.15 260.02 458.15 275.42 468.94 275.42 468.94 257.26"></polyline><path class="cls-5" d="M462,269.81h9.33c0,2.55,2.51,4.62,5.61,4.62h2.63c6.33,0,11.84,3.71,12.84,8.86a138.28,138.28,0,0,1,1.44,17.8,5,5,0,0,1-5,5.16H463.09"></path><path class="cls-5" d="M465.69,269.81h-9.33c0,2.55-2.51,4.62-5.61,4.62h-2.63c-6.33,0-11.86,3.71-12.84,8.86a135,135,0,0,0-1.46,17.81,5,5,0,0,0,5,5.15h25.78"></path><path class="cls-5" d="M458.38,255.05h10a9.81,9.81,0,0,0-5.32-1.94A6.85,6.85,0,0,0,458.38,255.05Z"></path><path class="cls-4" d="M458.38,255.05a6.13,6.13,0,0,0,4.9,2.86,6.62,6.62,0,0,0,5.08-2.86Z"></path><path class="cls-5" d="M458.38,255.05s.7,5.08,4.73,5.08,5.25-5.08,5.25-5.08-2.45,2.86-5.08,2.86S458.38,255.05,458.38,255.05Z"></path><path class="cls-4" d="M488.42,228.56c-1.4,1.76-5.25,1.08-7,2.48s-1.94,5.31-4,6.29-5.17-1.32-7.39-.82-4,3.94-6.3,3.94-4.17-3.45-6.31-3.94-5.39,1.78-7.39.82-2.23-4.9-4-6.29-5.61-.72-7-2.48c0,0,16.34-12.66,23.37-11.43S488.42,228.56,488.42,228.56Z"></path><path class="cls-1" d="M72.69,117.1a72.68,72.68,0,0,1,72.68,72.68,73.41,73.41,0,0,1-.89,11.37l22.34,30a3.41,3.41,0,0,1-2.74,5.45H128.24A72.68,72.68,0,1,1,72.69,117.1Z"></path><path class="cls-5" d="M82.66,127.75a72.66,72.66,0,0,1,71.79,84.06l22.35,30a3.41,3.41,0,0,1-2.74,5.45H138.21A72.68,72.68,0,1,1,82.66,127.75Z"></path><path class="cls-2" d="M98,219.12h-30c-4.42,0-7.89-4.74-7.48-10.25l2.44-33.51H103l2.44,33.51C105.84,214.38,102.38,219.12,98,219.12Z"></path><path class="cls-5" d="M99.15,185.72c0,8.94-3.58,19.19-16.18,19.19s-16.19-10.25-16.19-19.19a16.19,16.19,0,0,1,32.37,0Z"></path><path class="cls-2" d="M74.36,156.48H92.11A11.52,11.52,0,0,1,103.62,168v14.88a0,0,0,0,1,0,0H62.84a0,0,0,0,1,0,0V168A11.52,11.52,0,0,1,74.36,156.48Z"></path><polyline class="cls-5" points="77.52 201.63 77.52 215.97 88.41 215.97 88.41 197.64"></polyline><circle class="cls-3" cx="75.14" cy="185.85" r="6.92"></circle><circle class="cls-4" cx="75.14" cy="185.85" r="4.08"></circle><circle class="cls-3" cx="89.7" cy="185.85" r="7.04"></circle><circle class="cls-4" cx="89.7" cy="185.85" r="4.11"></circle><path class="cls-4" d="M81.44,210.31h9.3c0,2.54,2.5,4.6,5.59,4.6H99c6.3,0,11.79,3.7,12.79,8.83a135.34,135.34,0,0,1,1.42,17.43,5.26,5.26,0,0,1-5.27,5.44H82.52"></path><path class="cls-4" d="M85.1,210.31H75.81c0,2.54-2.51,4.6-5.59,4.6H67.6c-6.31,0-11.82,3.69-12.8,8.83a133.13,133.13,0,0,0-1.44,17.43,5.29,5.29,0,0,0,5.28,5.44H84"></path><path class="cls-2" d="M77.75,195.41H87.82a9.87,9.87,0,0,0-5.36-2A6.92,6.92,0,0,0,77.75,195.41Z"></path><path class="cls-4" d="M77.75,195.41a6.18,6.18,0,0,0,5,2.88,6.68,6.68,0,0,0,5.12-2.88Z"></path><path class="cls-2" d="M77.75,195.41s.7,5.12,4.77,5.12,5.3-5.12,5.3-5.12-2.47,2.88-5.12,2.88S77.75,195.41,77.75,195.41Z"></path><rect class="cls-2" x="74.22" y="143.63" width="17.54" height="17.54" rx="5.33"></rect><rect class="cls-3" x="80.26" y="182.79" width="3.67" height="4.15"></rect><rect class="cls-3" x="95.75" y="182.79" width="3.67" height="4.15"></rect><rect class="cls-3" x="66.45" y="182.79" width="3.67" height="4.15"></rect><path class="cls-1" d="M389.22,0a72.67,72.67,0,0,0-52.74,122.68l-8.19,30.25a3.78,3.78,0,0,0,5.44,3.93l31.19-15.67A72.69,72.69,0,1,0,389.22,0Z"></path><path class="cls-2" d="M398.83,7.89A72.67,72.67,0,0,0,346.1,130.57l-8.2,30.26a3.78,3.78,0,0,0,5.44,3.92l31.19-15.66a72.69,72.69,0,1,0,24.3-141.2Z"></path><path class="cls-3" d="M380.63,63.14s.78,18.45,16.32,18.07,19-9.91,18.46-16.71"></path><circle class="cls-1" cx="382.54" cy="63.43" r="3.67"></circle><circle class="cls-1" cx="414.23" cy="63.43" r="3.67"></circle><path class="cls-1" d="M414.56,64.11c0,8.85-3.55,19-16,19s-16-10.14-16-19,1.15-22.43,16-22.43C412,41.68,414.56,55.26,414.56,64.11Z"></path><polyline class="cls-1" points="391.52 81.04 391.52 109.49 405.55 109.49 405.55 73.46"></polyline><path class="cls-3" d="M398.08,124.84h25.75a5,5,0,0,0,5-5.18,137.49,137.49,0,0,0-1.44-17.75c-1-5.14-6.5-8.86-12.82-8.86h-2.63c-3.1,0-6.38,0-6.38-2.57h0a9.17,9.17,0,0,1-13.89.15l-.13-.15h0c0,1.43-2.68,2.57-5.77,2.57h-2.63c-6.32,0-11.85,3.71-12.83,8.86a134.39,134.39,0,0,0-1.45,17.75,5,5,0,0,0,5,5.18H399.6"></path><path class="cls-1" d="M393.38,73.7h10a9.75,9.75,0,0,0-5.3-1.94A6.85,6.85,0,0,0,393.38,73.7Z"></path><path class="cls-2" d="M393.38,73.7a6.11,6.11,0,0,0,4.89,2.85,6.61,6.61,0,0,0,5.07-2.85Z"></path><path class="cls-1" d="M393.38,73.7s.69,5.07,4.72,5.07,5.24-5.07,5.24-5.07-2.44,2.85-5.07,2.85S393.38,73.7,393.38,73.7Z"></path><path class="cls-3" d="M414.89,62.6c10-30.11-17.17-29.26-17.17-29.26v12c4.66,0,5.83-3.7,10.68,1.31s5.46,14.64,5.46,14.64Z"></path><path class="cls-3" d="M381.52,62.6c-10-30.11,17.17-29.26,17.17-29.26v12c-4.66,0-5.83-3.7-10.69,1.31s-5.45,14.64-5.45,14.64Z"></path><rect class="cls-5" x="250.33" y="238.58" width="57.34" height="11.71"></rect><rect class="cls-5" x="203.6" y="298.1" width="57.34" height="11.71"></rect><rect class="cls-3" x="220.27" y="327.78" width="116.99" height="11.78"></rect><rect class="cls-3" x="268.37" y="179.11" width="65.84" height="11.71"></rect><path class="cls-2" d="M66.92,363.22s-4.55-14.57-3.55-21.1,8.38-10.22,19.48-10.22v11.89s-6.91-2.68-10.26.17-4.19,19.26-4.19,19.26Z"></path><path class="cls-2" d="M98.71,363.22s4.55-14.57,3.54-21.1-8.37-10.22-19.4-10.22v11.89s6.84-2.68,10.19.17,4.19,19.26,4.19,19.26Z"></path><path class="cls-2" d="M82.39,366.51v2.8s-6.86,3.85-10.63-1.12Z"></path><path class="cls-2" d="M84.07,366.51v2.8s6.86,3.85,10.63-1.12Z"></path><circle class="cls-2" cx="464.12" cy="283.37" r="3.49"></circle><circle class="cls-2" cx="464.12" cy="294.86" r="3.49"></circle></svg>