<svg xmlns="http://www.w3.org/2000/svg" id="Layer_1" data-name="Layer 1" viewBox="0 0 729.99 232.41"><defs><style>.cls-1{fill:#f4f4f4;}.cls-2{fill:#269ef7;}.cls-3{fill:#fff;}.cls-4{fill:#022494;}.cls-5{fill:#ff8388;}</style></defs><path class="cls-1" d="M81.8,91.93c.61,3.66,1.29,7.51,1.68,9.88.57,3.41,1.13,6.61,1.69,9.41a.87.87,0,0,1-1.71.33c-.56-2.82-1.13-6-1.69-9.45-2.48-14.92-4.9-33.71-5.69-40-.47-2.59-.83-4.41-1-5-.87-3.07-4.46-5.34-8-2.62v0a3.64,3.64,0,0,0-1.27,3.2c1.55,18,3.5,30.9,4.44,36.59.18,1.07.32,1.88.42,2.42l.15.82h0a.87.87,0,0,1-1.71.33s-.22-1.14-.57-3.28c-.94-5.65-2.85-18.3-4.39-35.89a7.62,7.62,0,0,0-1.1-3.45c-1.66-2.61-4.57-3.71-7.2-1.65a5.15,5.15,0,0,0-1.51,2.13,8.3,8.3,0,0,0-.52,4.13c.06.53.12,1.08.18,1.64.85,7.44,2.1,17.28,3.7,26.92.6,3.61,1.25,7.19,1.94,10.61a.87.87,0,1,1-1.7.34c-.7-3.44-1.35-7-2-10.66-1.88-11.3-3.27-22.86-4.11-30.53a4.27,4.27,0,0,0-2.81-3.66,4.07,4.07,0,0,0-4,.87c-.16.14-.32.28-.47.43a7.11,7.11,0,0,0-1.94,5.74v.16c.51,5.5,1.37,13,2.71,21.16,1,5.91,2.23,12.13,3.79,18.11a.87.87,0,0,1-1.68.44c-1.58-6-2.84-12.32-3.82-18.27-1.4-8.42-1.39-13.43-2.31-19-.76-4.6-2.55-5.94-5-5.73-3.3.28-4.06,4-4.27,7-.29,4.21.54,10.69,2.19,20.66,1.62,9.76,4.33,24,4.33,24L41.8,129.2c2.56,24.69-18.62,64-29.46,87.74l50.44-8.36s17.21-32.28,22-49.1v.07c11.47-31.9,6.75-55.43,5.23-64.83a17.93,17.93,0,0,0-1.09-4Z"></path><path class="cls-1" d="M35.88,162.37l46.3.07a3.13,3.13,0,0,1,3.55,3.82c-1.13,4.61-24.16,61.41-26.65,66.15H0s31.18-63,33.54-68.24A3.14,3.14,0,0,1,35.88,162.37Z"></path><path class="cls-1" d="M82.32,136l19.7-3.27,4.31-.72a11.58,11.58,0,0,0,9.54-13.33L103.35,43.17A11.59,11.59,0,0,0,90,33.63L12.39,46.51A11.58,11.58,0,0,0,2.85,59.84l12.52,75.54a11.6,11.6,0,0,0,13.33,9.54l15.79-2.62"></path><path class="cls-2" d="M88.72,107.51l18.66-3.1,4.08-.67a11,11,0,0,0,9-12.62L108.64,19.66a11,11,0,0,0-12.62-9L22.53,22.82a11,11,0,0,0-9,12.62l11.86,71.5A11,11,0,0,0,38,116l14.94-2.48"></path><path class="cls-3" d="M38.62,57.58l3,2.72s2.66-2.9,3.76-3.08c.69-.11,2.28.44,3.65,3s7.61,16.25,8,16.87c1.55,2.78,3.85,8,8.27,8.13s9.14-5.17,11.62-8.85S88.88,57.18,88,49c-.79-7.6-3.55-8.94-4.78-9.46a10.52,10.52,0,0,0-8.67.81A15.26,15.26,0,0,0,67.11,53s4.08-2.31,5.93-1,2,4.7,1,7.44S70.32,68.56,68.94,69,66,66.82,65.7,66.12,61.39,55.69,59.56,50s-5.73-6.1-7.5-5.81S47.44,46.3,38.62,57.58Zm0,0"></path><path class="cls-4" d="M195.32,94.37h23a11,11,0,0,0,11-11V11a11,11,0,0,0-11-11H143.87a11,11,0,0,0-11,11V83.45a11,11,0,0,0,11,11H159"></path><path class="cls-1" d="M255.13,128.5c-.29,2.88,1.51,2,2.08-1.43,2.49-15,2.48-30.25,3.28-36.55.47-2.61.83-4.44,1-5,.88-3.09,4.5-5.37,8-2.63h0a3.7,3.7,0,0,1,1.29,3.22c-1.57,18.09-3.53,31.09-4.48,36.82-.18,1.07-.32,1.89-.42,2.43s-.15.83-.15.83h0a.88.88,0,0,0,1.72.33s.22-1.15.58-3.31c.94-5.67,2.86-18.41,4.41-36.1a7.71,7.71,0,0,1,1.11-3.47c1.67-2.63,4.59-3.74,7.24-1.67a5.15,5.15,0,0,1,1.52,2.15,8.42,8.42,0,0,1,.53,4.16c-.06.53-.13,1.08-.19,1.65-.86,7.48-2.11,17.39-3.72,27.08-.6,3.63-1.25,7.24-1.95,10.67a.87.87,0,0,0,1.71.35c.71-3.46,1.36-7.08,2-10.73,1.88-11.37,3.28-23,4.12-30.72a4.3,4.3,0,0,1,2.83-3.68,4.08,4.08,0,0,1,4,.88,4.91,4.91,0,0,1,.48.43,7.19,7.19,0,0,1,2,5.77l0,.16c-.51,5.54-1.37,13.12-2.73,21.29-1,6-2.23,12.21-3.81,18.22a.87.87,0,0,0,1.69.45c1.6-6.09,2.86-12.4,3.85-18.38,1.4-8.47,1.4-13.52,2.32-19.07.77-4.62,2.57-6,5-5.76,3.32.28,4.09,4,4.3,7,.29,4.24-.54,10.76-2.21,20.78-1.63,9.82-4.36,24.12-4.36,24.12L295,158c-2.05,19.8-1.28,22,23.92,69.27l-50.38.18s-12-22.06-16.77-39v.07c-11.54-32.09-6.79-55.77-5.26-65.22a37.66,37.66,0,0,1,.81-4.18l7.41.92c-.63,3.87-2.17,4.49-2.57,6.87a26.79,26.79,0,0,1-.55,2.81"></path><path class="cls-1" d="M297.77,183.66l-43.42,7.78a3.15,3.15,0,0,0-3.57,3.85c1.13,4.63,17.44,36.87,17.44,36.87h59.2s-24.92-41.4-27.29-46.69A3.14,3.14,0,0,0,297.77,183.66Z"></path><path class="cls-1" d="M294.14,157l18.71,2.7,4.09.59A11,11,0,0,0,329.37,151L339.7,79.33a11,11,0,0,0-9.29-12.43L256.69,56.27a11,11,0,0,0-12.43,9.3L233.92,137.3a11,11,0,0,0,9.29,12.43l15,2.16"></path><path class="cls-2" d="M406.85,94.37h23a11,11,0,0,0,11-11V11a11,11,0,0,0-11-11H355.4a11,11,0,0,0-11,11V83.45a11,11,0,0,0,11,11h15.15"></path><g id="_4Ltnz6" data-name="4Ltnz6"><path class="cls-3" d="M362.29,30.36c4,0,7.85,0,11.71,0,3.52,0,7.05.24,10.57.19,7.2-.12,14.4-.25,21.58-.6a27.89,27.89,0,0,0,7-1.44,8.58,8.58,0,0,0,6.09-6.32,7.91,7.91,0,0,1,3.1,5.74c.68,6.15-2.32,10.38-7.18,13.55A36.49,36.49,0,0,1,397.22,47c-4.85.31-9.72.24-14.58.35a11.27,11.27,0,0,1-9.42-4.21c-3.46-4.16-7.1-8.17-10.66-12.24A3.93,3.93,0,0,1,362.29,30.36Z"></path><path class="cls-3" d="M423.08,40.34c0,1,.05,1.67,0,2.33-.83,10.24-6.31,17.29-15.17,22a39.8,39.8,0,0,1-18.42,4.75c-8.68.07-17.36,0-26,0-.34,0-.68-.06-1.26-.11a7.22,7.22,0,0,1,.63-1c3.81-4.31,7.65-8.6,11.46-12.91,2.48-2.8,5.65-3.33,9.19-3.14,8.51.46,17,.28,25.22-2.28a31.06,31.06,0,0,0,13.46-8.7C422.35,41,422.56,40.82,423.08,40.34Z"></path></g><path class="cls-5" d="M305.68,138l18.71,2.7,4.1.59A11,11,0,0,0,340.91,132L351.25,60.3A11,11,0,0,0,342,47.87L268.23,37.24a11,11,0,0,0-12.42,9.3l-10.35,71.73a11,11,0,0,0,9.3,12.43l15,2.16"></path><path class="cls-3" d="M298.75,65.33l6.21.94.4.1c5.28.87,10.56,1.78,15.79,3a39.87,39.87,0,0,1,5.44,1.5A8,8,0,0,1,332,77.42a23.25,23.25,0,0,1,.18,3.64,23.87,23.87,0,0,1-.19,3.49c-.78,5.41-1.62,10.81-2.45,16.21-.15,1-.33,2-.56,3a29.56,29.56,0,0,1-1.62,5.2,8,8,0,0,1-6.8,5,24.67,24.67,0,0,1-5-.07c-2.63-.22-5.25-.44-7.86-.76-4.18-.51-8.36-1-12.52-1.67-6.46-1-12.91-2.08-19.3-3.51a42.46,42.46,0,0,1-5.57-1.53,8,8,0,0,1-5.52-6.93,35.42,35.42,0,0,1,.07-7.28c.18-2.15.45-4.29.67-6.44,0-.12,0-.23,0-.35l.53-3.46c0-.1.07-.21.09-.31.47-2.75,1-5.48,1.7-8.18a31.41,31.41,0,0,1,1.62-5.12,8,8,0,0,1,6.81-5.08,24.09,24.09,0,0,1,4.33,0q4.37.33,8.7.81c2.92.33,5.82.75,8.73,1.13Zm10.19,24.9L293.43,77.87l-3,19.57Z"></path><path class="cls-5" d="M512.62,94.37h23a11,11,0,0,0,11-11V11a11,11,0,0,0-11-11H461.17a11,11,0,0,0-11,11V83.45a11,11,0,0,0,11,11h15.14"></path><path class="cls-1" d="M685.61,158.14h23a11,11,0,0,0,11-11V74.74a11,11,0,0,0-11-11H634.16a11,11,0,0,0-11,11v72.48a11,11,0,0,0,11,11h15.15"></path><path class="cls-2" d="M618.38,94.37h23a11,11,0,0,0,11-11V11a11,11,0,0,0-11-11H566.94a11,11,0,0,0-11,11V83.45a11,11,0,0,0,11,11h15.14"></path><path class="cls-3" d="M54,81.52s17.68-7.07,28.91-4l3.74,37-17.47,4.78-10-1.66L55.5,104Z"></path><path class="cls-4" d="M93.05,107.18c.56,3.25,1.16,6.69,1.51,8.8.5,3,1,5.89,1.5,8.38a.77.77,0,1,1-1.52.3c-.5-2.51-1-5.38-1.51-8.42-2.21-13.3-4.36-30-5.07-35.63-.42-2.3-.74-3.93-.88-4.44-.77-2.74-4-4.76-7.08-2.33h0a3.29,3.29,0,0,0-1.13,2.85c1.38,16,3.12,27.54,4,32.62.16,1,.29,1.67.37,2.15s.14.73.14.73h0a.78.78,0,0,1-1.53.29s-.19-1-.51-2.93c-.83-5-2.53-16.31-3.91-32a6.69,6.69,0,0,0-1-3.08C74.91,72.19,72.32,71.2,70,73a4.57,4.57,0,0,0-1.35,1.9,7.44,7.44,0,0,0-.46,3.68c0,.48.1,1,.16,1.47.76,6.62,1.87,15.4,3.3,24,.53,3.21,1.11,6.4,1.73,9.45a.78.78,0,0,1-.61.91.77.77,0,0,1-.91-.61c-.63-3.06-1.21-6.27-1.74-9.5C68.43,94.26,67.19,84,66.44,77.12a3.81,3.81,0,0,0-2.51-3.26,3.63,3.63,0,0,0-3.58.77l-.42.39a6.39,6.39,0,0,0-1.73,5.11v.15c.46,4.9,1.22,11.61,2.42,18.85.87,5.27,2,10.82,3.38,16.14a.78.78,0,0,1-1.5.4c-1.41-5.39-2.53-11-3.41-16.28-1.24-7.51-1.24-12-2.05-16.89-.68-4.1-2.28-5.29-4.47-5.11-2.94.25-3.62,3.55-3.8,6.22-.27,3.75.47,9.52,1.95,18.4,1.44,8.7,3.86,21.37,3.86,21.37l2.82,17c2.28,22-16.6,57-26.26,78.2l44.95-7.46s15.34-28.77,19.61-43.76v.07c10.23-28.43,6-49.4,4.66-57.77a15.69,15.69,0,0,0-1-3.54Z"></path><path class="cls-5" d="M52.13,170,93.4,170a2.78,2.78,0,0,1,3.16,3.4c-1,4.11-21.53,54.73-23.75,59H20.16S48,176.25,50.05,171.56A2.77,2.77,0,0,1,52.13,170Z"></path><path class="cls-3" d="M504.06,34.07,517.33,20.7c2.15,1.11,6.08,5,7.79,7.63L511.6,41.94c.58,0,.93.07,1.29.07,5.65,0,11.3,0,17,0,.78,0,1.06.18,1.17,1a35.18,35.18,0,0,1,0,8.82c-.1.81-.42,1-1.13,1-5.62,0-11.24,0-16.86,0-.4,0-.79,0-1.19.07,4.5,4.52,8.94,9,13.43,13.49a32.63,32.63,0,0,1-7.82,7.82L503.86,60.48V79.72a31.38,31.38,0,0,1-10.85,0V60.81l-.24-.15L479.39,74c-1.89-.87-5.9-4.8-7.69-7.52l13.55-13.62c-.65,0-1-.09-1.43-.09-5.55,0-11.11,0-16.67,0-.85,0-1.24-.14-1.37-1.12a38.24,38.24,0,0,1,.07-9c.08-.73.54-.65,1-.65H484.8L471.47,28.57a32.78,32.78,0,0,1,7.91-7.94l13.35,13.46L493,34V33c0-5.69,0-11.37,0-17,0-.71.19-.95.93-1a36.14,36.14,0,0,1,9,0c.83.11.94.43.93,1.13,0,5.66,0,11.31,0,17v1ZM498.4,55.92c2.13-.42,4.22-.8,6.28-1.28a1.66,1.66,0,0,0,1-1,18.94,18.94,0,0,0,0-12.63,1.71,1.71,0,0,0-.92-.91,19.55,19.55,0,0,0-12.64,0,1.76,1.76,0,0,0-1,1,19,19,0,0,0,0,12.55,1.62,1.62,0,0,0,1,1C494.18,55.12,496.27,55.5,498.4,55.92Z"></path><path class="cls-3" d="M592.78,28.09c5.62,0,11.24,0,16.86,0a10,10,0,0,1,10.44,10.48q0,11.68,0,23.35c0,2.15-.53,2.67-2.7,2.67H583.2c-6.25,0-10.54-4.28-10.55-10.5q0-11.69,0-23.35c0-2.1.55-2.65,2.62-2.65C581.09,28.08,586.94,28.09,592.78,28.09Z"></path><path class="cls-3" d="M638.31,46.41c0,5.39,0,10.78,0,16.17a5.92,5.92,0,0,1-.49,1.64,6.23,6.23,0,0,1-1.52-.54c-4.5-3.1-9-6.25-13.47-9.35a1.93,1.93,0,0,1-.94-1.78q0-6.21,0-12.41a1.94,1.94,0,0,1,.95-1.78q6.63-4.62,13.24-9.28a7.34,7.34,0,0,1,1-.6.8.8,0,0,1,1.27.63,6.18,6.18,0,0,1,.05,1.14V46.41Z"></path><path class="cls-3" d="M210,56.69c-.12.17-.25.33-.35.5l-8.47,15a.77.77,0,0,1-.77.48H165.87c.09-.19.14-.34.22-.48q4.29-7.58,8.58-15.16a.74.74,0,0,1,.76-.41H210Z"></path><path class="cls-3" d="M172,21.8h17.59a.84.84,0,0,1,.87.5q8.89,15.49,17.81,31c.1.17.19.35.33.61H191a.79.79,0,0,1-.81-.43q-8.94-15.61-17.92-31.19Z"></path><path class="cls-3" d="M169.56,25.84c.14.22.24.37.33.53q4.4,7.51,8.79,15a.8.8,0,0,1,0,.91q-8.56,14.86-17.1,29.76l-.31.52c-.14-.23-.26-.42-.36-.6l-8.48-15a.73.73,0,0,1-.05-.86q8.49-15,17-30Z"></path><path class="cls-3" d="M313.56,107.8s-20.59-7.6-31.82-4.48l-7.45,51,24.1-8.63,10-1.67,3.74-13.72Z"></path><path class="cls-2" d="M272.13,133.06c-.55,3.43-1.12,7.1-1.47,9.21-.5,3-1,5.89-1.5,8.38a.78.78,0,0,0,1.53.3c.49-2.51,1-5.38,1.5-8.43,2.21-13.29,4.36-30,5.07-35.62.42-2.3.74-3.93.88-4.44.78-2.74,4-4.76,7.09-2.34v0a3.23,3.23,0,0,1,1.13,2.85c-1.38,16-3.12,27.54-4,32.61-.16,1-.28,1.67-.37,2.16s-.13.73-.13.73h0a.77.77,0,1,0,1.52.29s.19-1,.51-2.92c.83-5,2.53-16.31,3.91-32a6.77,6.77,0,0,1,1-3.07c1.48-2.33,4.07-3.31,6.42-1.48a4.64,4.64,0,0,1,1.34,1.9,7.37,7.37,0,0,1,.47,3.69c-.06.47-.11,1-.17,1.46-.76,6.63-1.87,15.4-3.29,24-.54,3.22-1.11,6.41-1.73,9.45a.78.78,0,0,0,.6.92.79.79,0,0,0,.92-.61c.62-3.06,1.2-6.27,1.73-9.51,1.67-10.07,2.92-20.37,3.66-27.2a3.83,3.83,0,0,1,2.51-3.27,3.66,3.66,0,0,1,3.58.78,3.88,3.88,0,0,1,.42.39,6.34,6.34,0,0,1,1.73,5.11v.14c-.46,4.9-1.22,11.62-2.42,18.86-.87,5.27-2,10.81-3.37,16.14a.77.77,0,1,0,1.5.39c1.41-5.39,2.52-11,3.4-16.28,1.24-7.5,1.24-12,2.06-16.89.67-4.09,2.27-5.29,4.46-5.1,2.94.25,3.62,3.55,3.81,6.21.26,3.75-.48,9.53-1.95,18.41-1.45,8.7-3.87,21.37-3.87,21.37l-2.82,17C306,184.21,306.68,186.13,329,228l-44.63.16s-10.59-19.54-14.85-34.53v.07c-10.22-28.44-6-49.41-4.66-57.78a36.85,36.85,0,0,1,.71-3.71Z"></path><path class="cls-4" d="M310.29,189.41l-38.47,6.89a2.79,2.79,0,0,0-3.16,3.41c1,4.1,15.45,32.66,15.45,32.66h52.44S314.47,195.7,312.37,191A2.76,2.76,0,0,0,310.29,189.41Z"></path><path class="cls-1" d="M673.28,137c.14,3.3.31,7.07.39,9.21.12,3.08.26,6,.44,8.51a.78.78,0,0,1-1.55.1c-.17-2.55-.32-5.46-.44-8.55-.51-13.46-.55-30.35-.55-36-.13-2.34-.24-4-.32-4.52-.42-2.82-3.35-5.23-6.73-3.21h0a3.28,3.28,0,0,0-1.48,2.69c-.64,16.07-.36,27.71-.16,32.85,0,1,.07,1.7.09,2.19s0,.74,0,.74h0a.77.77,0,1,1-1.54.1s-.07-1-.14-3c-.2-5.09-.47-16.49.13-32.22a6.89,6.89,0,0,0-.58-3.17c-1.18-2.49-3.62-3.79-6.18-2.27a4.57,4.57,0,0,0-1.58,1.72,7.5,7.5,0,0,0-.92,3.6c0,.47,0,1,0,1.47-.08,6.67-.08,15.51.26,24.21.12,3.26.29,6.5.53,9.59a.77.77,0,0,1-.72.83.77.77,0,0,1-.83-.71c-.23-3.12-.4-6.38-.53-9.65-.39-10.2-.33-20.57-.21-27.45a3.82,3.82,0,0,0-2.08-3.55,3.63,3.63,0,0,0-3.65.32,5,5,0,0,0-.47.33,6.37,6.37,0,0,0-2.36,4.85v.15c-.16,4.92-.25,11.67,0,19,.2,5.33.61,11,1.32,16.43a.77.77,0,0,1-1.53.21c-.73-5.53-1.13-11.21-1.34-16.58-.29-7.6.27-12,.08-17-.16-4.14-1.59-5.53-3.79-5.62-3-.12-4,3.07-4.55,5.68-.73,3.69-.72,9.52-.38,18.51.34,8.81,1.15,21.68,1.15,21.68l.67,17.23c-.5,22.12-11.38,34.72-23.63,54.5L653.06,224a148.23,148.23,0,0,0,15.3-26.69v.07c13.71-26.93,12.17-48.26,11.88-56.73,0-1.3-.2-3.66-.2-3.66Z"></path><path class="cls-4" d="M696,137h23a11,11,0,0,0,11-11V53.62a11,11,0,0,0-11-11H644.53a11,11,0,0,0-11,11v72.47a11,11,0,0,0,11,11h15.15"></path><polygon class="cls-3" points="643.84 72.31 663.06 60.32 681.74 72.31 663.06 84.31 643.84 72.31"></polygon><polygon class="cls-3" points="719.6 72.31 700.38 60.32 681.7 72.31 700.38 84.31 719.6 72.31"></polygon><polygon class="cls-3" points="643.84 96.46 663.06 84.47 681.74 96.46 663.06 108.46 643.84 96.46"></polygon><polygon class="cls-3" points="719.6 96.46 700.38 84.47 681.7 96.46 700.38 108.46 719.6 96.46"></polygon><polygon class="cls-3" points="700.92 112.59 681.7 100.59 663.02 112.59 681.7 124.59 700.92 112.59"></polygon><path class="cls-3" d="M655.38,104.3s18.27-2.16,29,2.34l-.93,37.19-17.93,2.55-9.7-2.9-2-14.09Z"></path><path class="cls-1" d="M624.81,194.43l40.93,5.24a2.78,2.78,0,0,1,2.71,3.78c-1.51,4-13.3,25-16,28.92h-54s21.46-32.22,24.13-36.61A2.79,2.79,0,0,1,624.81,194.43Z"></path><path class="cls-5" d="M690.7,137c.14,3.3.31,7.07.4,9.21.11,3.08.26,6,.43,8.51a.77.77,0,0,1-.72.82.76.76,0,0,1-.82-.72c-.18-2.55-.32-5.46-.44-8.55-.52-13.46-.56-30.35-.56-36-.13-2.34-.24-4-.32-4.52-.42-2.82-3.35-5.23-6.73-3.21h0a3.28,3.28,0,0,0-1.48,2.69c-.64,16.07-.36,27.71-.16,32.85,0,1,.07,1.7.1,2.19s0,.74,0,.74h0a.79.79,0,0,1-.73.83.78.78,0,0,1-.82-.73s-.06-1-.14-3c-.2-5.09-.47-16.49.13-32.22a6.76,6.76,0,0,0-.58-3.17c-1.18-2.49-3.62-3.79-6.18-2.27a4.57,4.57,0,0,0-1.58,1.72,7.5,7.5,0,0,0-.92,3.6c0,.47,0,1,0,1.47-.08,6.67-.07,15.51.26,24.21.13,3.26.3,6.5.53,9.59a.78.78,0,0,1-1.55.12c-.23-3.12-.4-6.38-.53-9.65-.39-10.2-.33-20.57-.21-27.45a3.82,3.82,0,0,0-2.08-3.55,3.63,3.63,0,0,0-3.65.32,5,5,0,0,0-.47.33,6.33,6.33,0,0,0-2.35,4.85v.15c-.16,4.92-.25,11.67,0,19,.21,5.33.61,11,1.32,16.43a.77.77,0,0,1-1.53.21c-.73-5.53-1.13-11.21-1.34-16.58-.29-7.6.28-12,.08-17-.16-4.14-1.59-5.53-3.79-5.62-2.95-.12-4,3.07-4.55,5.68-.73,3.69-.72,9.52-.38,18.51.34,8.81,1.15,21.68,1.15,21.68l.67,17.23c-.5,22.12-11.38,34.72-23.63,54.5L670.48,224a148.23,148.23,0,0,0,15.3-26.69v.07c13.71-26.93,12.17-48.26,11.88-56.73,0-1.3-.2-3.66-.2-3.66Z"></path><path class="cls-2" d="M642.23,194.43l40.93,5.24a2.78,2.78,0,0,1,2.71,3.78c-1.51,4-13.3,25-16,28.92h-54s21.45-32.22,24.12-36.61A2.79,2.79,0,0,1,642.23,194.43Z"></path><path class="cls-4" d="M660.31,136.67a15.76,15.76,0,0,0,8.2-.28l.16,2.66s-4.57,1.45-8.09.17Z"></path></svg>