<svg xmlns="http://www.w3.org/2000/svg" id="Layer_1" data-name="Layer 1" viewBox="0 0 190.41 190.41"><defs><style>.cls-1{fill:#022494;}.cls-2{fill:#269ef7;}.cls-3{fill:#fff;}.cls-4,.cls-5{fill:#ff8388;}.cls-5{stroke:#ff8388;stroke-linecap:round;stroke-linejoin:round;stroke-width:0.33px;}</style></defs><rect class="cls-1" width="190.41" height="190.41" rx="13.89"></rect><path class="cls-2" d="M115.89,141.65H75.15c-6,0-10.69-9.46-10.14-20.44L68.32,54.4l29-14.85,26.22,25L126,121.21C126.59,132.19,121.89,141.65,115.89,141.65Z"></path><path class="cls-3" d="M117.51,68.45c0,12.12-4.86,26-22,26s-22-13.91-22-26a22,22,0,0,1,43.91,0Z"></path><path class="cls-2" d="M123.58,64.59,95.25,46.5l-27,18.09V54.49A25.78,25.78,0,0,1,94,28.78h3.91a25.71,25.71,0,0,1,25.71,25.71Z"></path><polyline class="cls-3" points="88.17 93.89 88.17 109.48 102.94 109.48 102.94 84.61"></polyline><path class="cls-4" d="M93.49,101.8H106.1c0,3.45,3.39,6.24,7.58,6.24h3.56c8.55,0,16,5,17.35,12,.91,4.66,1.59,13.72,1.93,23.65a7.15,7.15,0,0,1-7.16,7.38H95"></path><path class="cls-4" d="M98.45,101.8H85.84c0,3.45-3.39,6.24-7.58,6.24H74.71c-8.56,0-16,5-17.36,12-1,5.38-1.65,14.52-2,23.65a7.16,7.16,0,0,0,7.16,7.38H97"></path><path class="cls-5" d="M88.48,81.6h13.66a13.35,13.35,0,0,0-7.27-2.66A9.38,9.38,0,0,0,88.48,81.6Z"></path><path class="cls-3" d="M88.48,81.6s2.31,3.9,6.71,3.9,7-3.9,7-3.9Z"></path><path class="cls-5" d="M88.48,81.6s1,6.94,6.47,6.94,7.19-6.94,7.19-6.94-3.35,3.9-7,3.9S88.48,81.6,88.48,81.6Z"></path><rect class="cls-1" x="91.89" y="65.78" width="7.35" height="4.32"></rect><rect class="cls-1" x="112.9" y="65.78" width="4.98" height="4.32"></rect><rect class="cls-1" x="73.15" y="65.78" width="4.98" height="4.32"></rect><path class="cls-1" d="M89.4,64.45v7.39H81.25V64.45H89.4m.88-3.2H80.37a2.31,2.31,0,0,0-2.31,2.31v9.17A2.3,2.3,0,0,0,80.37,75h9.91a2.3,2.3,0,0,0,2.31-2.3V63.56a2.31,2.31,0,0,0-2.31-2.31Z"></path><path class="cls-1" d="M109.76,64.45v7.39h-8.14V64.45h8.14m.89-3.2h-9.92a2.31,2.31,0,0,0-2.3,2.31v9.17a2.3,2.3,0,0,0,2.3,2.3h9.92a2.31,2.31,0,0,0,2.31-2.3V63.56a2.32,2.32,0,0,0-2.31-2.31Z"></path></svg>