<svg xmlns="http://www.w3.org/2000/svg" id="Layer_1" data-name="Layer 1" viewBox="0 0 195.06 195.06"><defs><style>.cls-1{fill:#f4f4f4;}.cls-2{fill:#ff8388;}.cls-3{fill:#fff;}.cls-4{fill:#269ef7;}</style></defs><rect class="cls-1" width="195.06" height="195.06" rx="18.25"></rect><rect class="cls-2" x="28.13" y="23.71" width="93.57" height="74.31" rx="4.91"></rect><rect class="cls-3" x="44.95" y="38.62" width="60.46" height="7.38" rx="3.69"></rect><rect class="cls-3" x="44.95" y="56.16" width="60.46" height="7.38" rx="3.69"></rect><rect class="cls-3" x="44.95" y="73.7" width="60.46" height="7.38" rx="3.69"></rect><path class="cls-2" d="M63.26,98,42,118.8a3,3,0,0,1-5.16-2.17V94.37"></path><rect class="cls-4" x="76.44" y="73.7" width="93.95" height="74.62" rx="4.93" transform="translate(246.83 222.01) rotate(-180)"></rect><rect class="cls-3" x="92.92" y="88.81" width="60.46" height="7.38" rx="3.69" transform="translate(246.3 184.99) rotate(-180)"></rect><rect class="cls-3" x="92.92" y="106.34" width="60.46" height="7.38" rx="3.69" transform="translate(246.3 220.07) rotate(180)"></rect><rect class="cls-3" x="92.92" y="123.88" width="60.46" height="7.38" rx="3.69" transform="translate(246.3 255.14) rotate(-180)"></rect><path class="cls-4" d="M135.12,148.32l21.37,20.86a3.05,3.05,0,0,0,5.18-2.19V144.65"></path></svg>