<svg xmlns="http://www.w3.org/2000/svg" id="Layer_1" data-name="Layer 1" viewBox="0 0 195.06 195.06"><defs><style>.cls-1{fill:#f4f4f4;}.cls-2{fill:#269ef7;}.cls-3{fill:#fff;}.cls-4{fill:#022494;}</style></defs><rect class="cls-1" width="195.06" height="195.06" rx="18.25"></rect><rect class="cls-2" x="29.8" y="46.09" width="134.81" height="106.21" rx="9.72"></rect><path class="cls-3" d="M132.65,130.06H61.76a3.43,3.43,0,0,1,0-6.86h70.89a3.43,3.43,0,1,1,0,6.86Z"></path><path class="cls-3" d="M142.68,144.35h-91a3.43,3.43,0,0,1,0-6.86h91a3.43,3.43,0,1,1,0,6.86Z"></path><path class="cls-4" d="M116.73,85,88.66,68.77a4.15,4.15,0,0,0-6.23,3.6V108a4.15,4.15,0,0,0,6.23,3.6l28.07-16.21A6,6,0,0,0,116.73,85Z"></path></svg>