<svg xmlns="http://www.w3.org/2000/svg" id="Layer_1" data-name="Layer 1" viewBox="0 0 196.59 196.59"><defs><style>.cls-1{fill:#f4f4f4;}.cls-2{fill:#269ef7;}.cls-3{fill:#fff;}.cls-4{fill:#022494;}</style></defs><rect class="cls-1" width="196.59" height="196.59" rx="23.09"></rect><path class="cls-2" d="M69.92,66,57.3,51.32a2.47,2.47,0,0,0-3.49-.27L46,57.8a2.49,2.49,0,0,0-.86,1.7,2.53,2.53,0,0,0,.6,1.8L58.31,76a2.49,2.49,0,0,0,3.5.26l7.85-6.75a2.47,2.47,0,0,0,.26-3.5Z"></path><path class="cls-2" d="M62.54,46.81l-5.33-6.19a2.48,2.48,0,0,0-3.5-.27L35.39,56.11a2.49,2.49,0,0,0-.86,1.69,2.53,2.53,0,0,0,.59,1.81l5.33,6.19a2.48,2.48,0,0,0,3.5.27L62.28,50.31a2.49,2.49,0,0,0,.26-3.5Z"></path><path class="cls-2" d="M152,59.5a2.44,2.44,0,0,0-.85-1.7l-7.86-6.75a2.49,2.49,0,0,0-3.5.27L127.2,66a2.47,2.47,0,0,0,.26,3.5l7.85,6.75a2.49,2.49,0,0,0,3.5-.26L151.43,61.3A2.46,2.46,0,0,0,152,59.5Z"></path><path class="cls-2" d="M161.73,56.11,143.41,40.35a2.48,2.48,0,0,0-3.5.27l-5.33,6.19a2.48,2.48,0,0,0,.26,3.5l18.33,15.76a2.46,2.46,0,0,0,1.62.6H155a2.49,2.49,0,0,0,1.7-.86L162,59.61a2.48,2.48,0,0,0-.27-3.5Z"></path><path class="cls-2" d="M117.55,22.63H80.26a4.75,4.75,0,0,0-4.75,4.75v5.78a4.75,4.75,0,0,0,4.75,4.75h11V58.3h15.23V37.91h11a4.75,4.75,0,0,0,4.75-4.75V27.38A4.75,4.75,0,0,0,117.55,22.63Zm-8.12,14.92a4.66,4.66,0,0,1-1.05.29Zm-.86-14.82.13,0Z"></path><path class="cls-2" d="M98.91,49.61c-.78,0-1.54.06-2.31.08-.4,0-.76,0-1,0s-.73.08-1.09.11c-.18,0-.37,0-.55,0h.14A63.81,63.81,0,0,0,93.94,177c1.11.09,2.22.12,3.34.12.54,0,1.08.07,1.63.07a63.81,63.81,0,0,0,0-127.62Z"></path><circle class="cls-3" cx="98.91" cy="113.42" r="44.36"></circle><path class="cls-4" d="M98.91,112.3a2.48,2.48,0,0,1-2.48-2.48V93.13a2.48,2.48,0,0,1,5,0v16.69A2.48,2.48,0,0,1,98.91,112.3Z"></path><path class="cls-4" d="M119.79,136.2a2.47,2.47,0,0,1-1.76-.73L100,117.41a2.48,2.48,0,1,1,3.51-3.51L121.54,132a2.48,2.48,0,0,1,0,3.51A2.44,2.44,0,0,1,119.79,136.2Z"></path><path class="cls-4" d="M99.24,121.29a8.12,8.12,0,1,1,8.12-8.12A8.13,8.13,0,0,1,99.24,121.29Z"></path></svg>